SplineFontDB: 3.0
FontName: FrankRuehlCLM-Medium
FullName: Frank Ruehl CLM Medium
FamilyName: Frank Ruehl CLM
Weight: Medium
Copyright: Copyright (c) 2002-2011 by Maxim Iorsh (iorsh@users.sourceforge.net).\nDistributed under the terms of GNU General Public License version 2(http://www.gnu.org/licenses/gpl.html). \nLatin glyphs, digits and punctuation: portions of Century Schoolbook L Roman ver. 1.06 Copyright (URW)++,Copyright 1999 by (URW)++ Design & Development.\nAll rights reserved.
Version: 0.121
ItalicAngle: 0
UnderlinePosition: -310
UnderlineWidth: 70
Ascent: 960
Descent: 240
InvalidEm: 0
sfntRevision: 0x00001ef9
LayerCount: 2
Layer: 0 1 "Back" 1
Layer: 1 1 "Fore" 0
XUID: [1021 239 -1752255070 6309206]
StyleMap: 0x0040
FSType: 0
OS2Version: 1
OS2_WeightWidthSlopeOnly: 0
OS2_UseTypoMetrics: 0
CreationTime: 1163025783
ModificationTime: 1324323580
PfmFamily: 17
TTFWeight: 500
TTFWidth: 5
LineGap: 90
VLineGap: 0
Panose: 2 0 6 3 0 0 0 0 0 0
OS2TypoAscent: 960
OS2TypoAOffset: 0
OS2TypoDescent: -240
OS2TypoDOffset: 0
OS2TypoLinegap: 0
OS2WinAscent: 960
OS2WinAOffset: 0
OS2WinDescent: 300
OS2WinDOffset: 0
HheadAscent: 960
HheadAOffset: 0
HheadDescent: -300
HheadDOffset: 0
OS2SubXSize: 780
OS2SubYSize: 840
OS2SubXOff: 0
OS2SubYOff: 168
OS2SupXSize: 780
OS2SupYSize: 840
OS2SupXOff: 0
OS2SupYOff: 576
OS2StrikeYSize: 59
OS2StrikeYPos: 310
OS2Vendor: 'CLM '
OS2CodePages: 00000020.00000000
OS2UnicodeRanges: 80000803.50002802.00000000.00000000
Lookup: 6 1 0 "'ccmp' Glyph Composition/Decomposition in Hebrew lookup 0" { "'ccmp' Glyph Composition/Decomposition in Hebrew lookup 0 subtable"  } ['ccmp' ('hebr' <'dflt' > ) ]
Lookup: 1 1 0 "Single Substitution lookup 1" { "Single Substitution lookup 1 subtable"  } []
Lookup: 6 1 0 "'ccmp' Glyph Composition/Decomposition in Hebrew lookup 2" { "'ccmp' Glyph Composition/Decomposition in Hebrew lookup 2 subtable"  } ['ccmp' ('hebr' <'dflt' > ) ]

StartChar: .notdef
Encoding: 65536 -1 0
Width: 440
Flags: W
LayerCount: 2
Fore
SplineSet
40 0 m 1,0,-1
 40 800 l 1,1,-1
 360 800 l 1,2,-1
 360 0 l 1,3,-1
 40 0 l 1,0,-1
80 40 m 1,4,-1
 320 40 l 1,5,-1
 320 760 l 1,6,-1
 80 760 l 1,7,-1
 80 40 l 1,4,-1
EndSplineSet
EndChar

StartChar: uni0000
Encoding: 0 -1 1
AltUni2: 000000.ffffffff.0
Width: 700
GlyphClass: 2
Flags: W
LayerCount: 2
Fore
SplineSet
140 660 m 1,0,-1
 140 -60 l 1,1,-1
 560 -60 l 1,2,-1
 560 660 l 1,3,-1
 140 660 l 1,0,-1
100 700 m 1,4,-1
 600 700 l 1,5,-1
 600 -100 l 1,6,-1
 100 -100 l 1,7,-1
 100 700 l 1,4,-1
EndSplineSet
EndChar

StartChar: exclam
Encoding: 33 33 4
Width: 305
GlyphClass: 2
Flags: W
LayerCount: 2
Fore
SplineSet
177 260 m 2,0,1
 176 250 176 250 168 239 c 0,2,3
 158 224 158 224 152.5 224 c 128,-1,4
 147 224 147 224 137 239 c 0,5,6
 129 250 129 250 127 260 c 2,7,-1
 87 548 l 2,8,9
 82 587 82 587 82 610 c 0,10,11
 82 704 82 704 153 704 c 0,12,13
 223 704 223 704 223 609 c 0,14,15
 223 590 223 590 217 549 c 2,16,-1
 177 260 l 2,0,1
87 96 m 2,17,-1
 138 167 l 2,18,19
 147 179 147 179 153.5 179 c 128,-1,20
 160 179 160 179 169 167 c 2,21,-1
 220 96 l 2,22,23
 232 80 232 80 220 64 c 2,24,-1
 169 -7 l 2,25,26
 160 -20 160 -20 154 -20 c 128,-1,27
 148 -20 148 -20 138 -7 c 2,28,-1
 87 64 l 2,29,30
 76 80 76 80 87 96 c 2,17,-1
EndSplineSet
EndChar

StartChar: quotedbl
Encoding: 34 34 5
Width: 427
GlyphClass: 2
Flags: W
LayerCount: 2
Fore
SplineSet
61 378 m 1,0,-1
 75 624 l 2,1,2
 76 632 76 632 79 645 c 0,3,4
 87 673 87 673 108.5 688.5 c 128,-1,5
 130 704 130 704 161 704 c 0,6,7
 193 704 193 704 206.5 689 c 128,-1,8
 220 674 220 674 212 645 c 0,9,10
 209 631 209 631 205 624 c 2,11,-1
 88 378 l 1,12,-1
 61 378 l 1,0,-1
250 378 m 1,13,-1
 265 624 l 2,14,15
 265 632 265 632 269 645 c 0,16,17
 276 673 276 673 298 688.5 c 128,-1,18
 320 704 320 704 351.5 704 c 128,-1,19
 383 704 383 704 397 688.5 c 128,-1,20
 411 673 411 673 404 646 c 0,21,22
 402 640 402 640 395 624 c 2,23,-1
 277 378 l 1,24,-1
 250 378 l 1,13,-1
EndSplineSet
EndChar

StartChar: numbersign
Encoding: 35 35 6
Width: 570
GlyphClass: 2
Flags: W
LayerCount: 2
Fore
SplineSet
134 218 m 1,0,-1
 33 218 l 1,1,-1
 33 284 l 1,2,-1
 143 284 l 1,3,-1
 162 416 l 1,4,-1
 60 416 l 1,5,-1
 60 482 l 1,6,-1
 171 482 l 1,7,-1
 201 686 l 1,8,-1
 273 686 l 1,9,-1
 243 482 l 1,10,-1
 366 482 l 1,11,-1
 396 686 l 1,12,-1
 468 686 l 1,13,-1
 438 482 l 1,14,-1
 538 482 l 1,15,-1
 538 416 l 1,16,-1
 429 416 l 1,17,-1
 410 284 l 1,18,-1
 511 284 l 1,19,-1
 511 218 l 1,20,-1
 401 218 l 1,21,-1
 369 0 l 1,22,-1
 297 0 l 1,23,-1
 329 218 l 1,24,-1
 206 218 l 1,25,-1
 174 0 l 1,26,-1
 102 0 l 1,27,-1
 134 218 l 1,0,-1
234 416 m 1,28,-1
 215 284 l 1,29,-1
 338 284 l 1,30,-1
 357 416 l 1,31,-1
 234 416 l 1,28,-1
EndSplineSet
EndChar

StartChar: dollar
Encoding: 36 36 7
Width: 556
GlyphClass: 2
Flags: W
LayerCount: 2
Fore
SplineSet
243 695 m 1,0,-1
 243 801 l 1,1,-1
 306 801 l 1,2,-1
 306 696 l 1,3,4
 385 689 385 689 432.5 648.5 c 128,-1,5
 480 608 480 608 480 550 c 0,6,7
 480 480 480 480 412 480 c 0,8,9
 381 480 381 480 363.5 497.5 c 128,-1,10
 346 515 346 515 346 542 c 0,11,12
 346 559 346 559 353.5 571 c 128,-1,13
 361 583 361 583 381 596 c 0,14,15
 387 600 387 600 387 605 c 0,16,17
 387 616 387 616 364.5 627.5 c 128,-1,18
 342 639 342 639 306 643 c 1,19,-1
 306 411 l 1,20,-1
 321 407 l 2,21,22
 408 382 408 382 460 335 c 0,23,24
 510 289 510 289 510 202 c 0,25,26
 510 110 510 110 456 54 c 128,-1,27
 402 -2 402 -2 306 -9 c 1,28,-1
 306 -130 l 1,29,-1
 243 -130 l 1,30,-1
 243 -11 l 1,31,32
 197 -8 197 -8 163 3 c 0,33,34
 108 21 108 21 76.5 60 c 128,-1,35
 45 99 45 99 45 148 c 0,36,37
 45 186 45 186 65.5 210 c 128,-1,38
 86 234 86 234 123 234 c 0,39,40
 151 234 151 234 168.5 216 c 128,-1,41
 186 198 186 198 186 172 c 0,42,43
 186 130 186 130 144 104 c 0,44,45
 136 100 136 100 136 94 c 0,46,47
 136 78 136 78 165.5 62.5 c 128,-1,48
 195 47 195 47 243 43 c 1,49,-1
 243 304 l 1,50,51
 192 319 192 319 142 350 c 0,52,53
 102 374 102 374 80 416 c 128,-1,54
 58 458 58 458 58 507 c 0,55,56
 58 583 58 583 106.5 632.5 c 128,-1,57
 155 682 155 682 243 695 c 1,0,-1
243 430 m 1,58,-1
 243 641 l 1,59,60
 198 636 198 636 168 606 c 128,-1,61
 138 576 138 576 138 539 c 0,62,63
 138 465 138 465 243 430 c 1,58,-1
306 288 m 1,64,-1
 306 44 l 1,65,66
 334 47 334 47 353 55 c 0,67,68
 387 69 387 69 407.5 97.5 c 128,-1,69
 428 126 428 126 428 167 c 0,70,71
 428 243 428 243 340 278 c 0,72,73
 324 284 324 284 306 288 c 1,64,-1
EndSplineSet
EndChar

StartChar: percent
Encoding: 37 37 8
Width: 848
GlyphClass: 2
Flags: W
LayerCount: 2
Fore
SplineSet
389 599 m 1,0,1
 390 585 390 585 390 582 c 0,2,3
 390 536 390 536 370.5 485.5 c 128,-1,4
 351 435 351 435 319 397 c 0,5,6
 255 321 255 321 173 321 c 0,7,8
 117 321 117 321 81 356 c 128,-1,9
 45 391 45 391 45 445 c 0,10,11
 45 495 45 495 76 556.5 c 128,-1,12
 107 618 107 618 151 656 c 0,13,14
 212 708 212 708 278 708 c 0,15,16
 333 708 333 708 369 661 c 1,17,18
 408 639 408 639 442 639 c 0,19,20
 543 639 543 639 604 722 c 1,21,-1
 665 722 l 1,22,-1
 251 0 l 1,23,-1
 186 0 l 1,24,-1
 540 620 l 1,25,26
 491 591 491 591 439 591 c 0,27,28
 414 591 414 591 389 599 c 1,0,1
282 654 m 1,29,30
 254 644 254 644 239 629.5 c 128,-1,31
 224 615 224 615 199 570 c 0,32,33
 167 515 167 515 155 484 c 128,-1,34
 143 453 143 453 143 428 c 0,35,36
 143 404 143 404 157 389 c 128,-1,37
 171 374 171 374 193 374 c 0,38,39
 247 374 247 374 294.5 439.5 c 128,-1,40
 342 505 342 505 342 580 c 0,41,42
 342 599 342 599 337 617 c 1,43,44
 303 629 303 629 282 654 c 1,29,30
690 401 m 0,45,46
 741 401 741 401 774 367.5 c 128,-1,47
 807 334 807 334 807 282 c 0,48,49
 807 238 807 238 786 185 c 128,-1,50
 765 132 765 132 731 89 c 0,51,52
 673 15 673 15 590 15 c 0,53,54
 534 15 534 15 497 49.5 c 128,-1,55
 460 84 460 84 460 136 c 0,56,57
 460 227 460 227 529 314 c 0,58,59
 600 401 600 401 690 401 c 0,45,46
702 346 m 0,60,61
 663 346 663 346 623 280 c 0,62,63
 556 172 556 172 556 121 c 0,64,65
 556 99 556 99 571 84 c 128,-1,66
 586 69 586 69 607 69 c 0,67,68
 661 69 661 69 709.5 134 c 128,-1,69
 758 199 758 199 758 273 c 0,70,71
 758 303 758 303 741.5 324.5 c 128,-1,72
 725 346 725 346 702 346 c 0,60,61
EndSplineSet
EndChar

StartChar: ampersand
Encoding: 38 38 9
Width: 815
GlyphClass: 2
Flags: W
LayerCount: 2
Fore
SplineSet
731 169 m 1,0,-1
 775 163 l 1,1,2
 768 105 768 105 741 65 c 0,3,4
 691 -11 691 -11 600 -11 c 0,5,6
 559 -11 559 -11 526.5 4 c 128,-1,7
 494 19 494 19 458 56 c 1,8,9
 366 -15 366 -15 266 -15 c 0,10,11
 164 -15 164 -15 108 46 c 0,12,13
 51 108 51 108 51 189 c 0,14,15
 51 256 51 256 95.5 313 c 128,-1,16
 140 370 140 370 224 411 c 1,17,18
 182 500 182 500 182 560 c 0,19,20
 182 640 182 640 230 688.5 c 128,-1,21
 278 737 278 737 357 737 c 0,22,23
 427 737 427 737 470 699.5 c 128,-1,24
 513 662 513 662 513 602 c 0,25,26
 513 562 513 562 492.5 524 c 128,-1,27
 472 486 472 486 437 462 c 0,28,29
 405 440 405 440 340 411 c 1,30,31
 428 249 428 249 501 163 c 1,32,33
 571 244 571 244 571 314 c 0,34,35
 571 361 571 361 481 361 c 2,36,-1
 471 361 l 1,37,-1
 471 404 l 1,38,-1
 753 404 l 1,39,-1
 753 361 l 1,40,-1
 742 361 l 2,41,42
 693 361 693 361 664 334 c 0,43,44
 651 320 651 320 643 306.5 c 128,-1,45
 635 293 635 293 598 225 c 0,46,47
 573 180 573 180 532 129 c 1,48,49
 589 68 589 68 642 68 c 0,50,51
 675 68 675 68 698.5 95 c 128,-1,52
 722 122 722 122 731 169 c 1,0,-1
319 453 m 1,53,54
 344 466 344 466 348 468 c 0,55,56
 433 514 433 514 433 600 c 0,57,58
 433 641 433 641 411 667.5 c 128,-1,59
 389 694 389 694 354 694 c 0,60,61
 320 694 320 694 298 666 c 128,-1,62
 276 638 276 638 276 595 c 0,63,64
 276 542 276 542 319 453 c 1,53,54
243 370 m 1,65,66
 198 344 198 344 178 314 c 128,-1,67
 158 284 158 284 158 243 c 0,68,69
 158 168 158 168 209 110.5 c 128,-1,70
 260 53 260 53 326 53 c 0,71,72
 369 53 369 53 427 90 c 1,73,74
 364 164 364 164 328.5 218 c 128,-1,75
 293 272 293 272 243 370 c 1,65,66
EndSplineSet
EndChar

StartChar: quotesingle
Encoding: 39 39 10
Width: 239
GlyphClass: 2
Flags: W
LayerCount: 2
Fore
SplineSet
61 378 m 1,0,-1
 76 624 l 2,1,2
 76 632 76 632 80 645 c 0,3,4
 87 673 87 673 108.5 688.5 c 128,-1,5
 130 704 130 704 161 704 c 0,6,7
 194 704 194 704 207 689 c 128,-1,8
 220 674 220 674 213 645 c 0,9,10
 209 631 209 631 206 624 c 2,11,-1
 88 378 l 1,12,-1
 61 378 l 1,0,-1
EndSplineSet
EndChar

StartChar: parenleft
Encoding: 40 40 11
Width: 348
GlyphClass: 2
Flags: W
LayerCount: 2
Fore
SplineSet
279 736 m 1,0,-1
 294 696 l 1,1,2
 219 630 219 630 186.5 539 c 128,-1,3
 154 448 154 448 154 304 c 128,-1,4
 154 160 154 160 186.5 68.5 c 128,-1,5
 219 -23 219 -23 294 -89 c 1,6,-1
 279 -123 l 1,7,8
 191 -69 191 -69 139 -3 c 0,9,10
 36 134 36 134 36 307 c 0,11,12
 36 494 36 494 153 633 c 0,13,14
 198 686 198 686 279 736 c 1,0,-1
EndSplineSet
EndChar

StartChar: parenright
Encoding: 41 41 12
Width: 348
GlyphClass: 2
Flags: W
LayerCount: 2
Fore
SplineSet
69 -123 m 1,0,-1
 54 -86 l 1,1,2
 129 -20 129 -20 161.5 71 c 128,-1,3
 194 162 194 162 194 307 c 0,4,5
 194 451 194 451 161.5 542 c 128,-1,6
 129 633 129 633 54 699 c 1,7,-1
 69 736 l 1,8,9
 157 683 157 683 209 616 c 0,10,11
 312 481 312 481 312 307 c 0,12,13
 312 118 312 118 195 -19 c 0,14,15
 150 -73 150 -73 69 -123 c 1,0,-1
EndSplineSet
EndChar

StartChar: asterisk
Encoding: 42 42 13
Width: 517
GlyphClass: 2
Flags: W
LayerCount: 2
Fore
SplineSet
243 491 m 1,0,-1
 212 473 l 2,1,2
 209 471 209 471 201 467 c 128,-1,3
 193 463 193 463 191 461.5 c 128,-1,4
 189 460 189 460 183 456 c 128,-1,5
 177 452 177 452 174 449 c 128,-1,6
 171 446 171 446 165.5 440.5 c 128,-1,7
 160 435 160 435 154.5 428 c 128,-1,8
 149 421 149 421 142 412 c 0,9,10
 130 396 130 396 120 390 c 0,11,12
 106 382 106 382 88 386 c 128,-1,13
 70 390 70 390 62 403.5 c 128,-1,14
 54 417 54 417 59 435.5 c 128,-1,15
 64 454 64 454 79 462 c 0,16,17
 89 468 89 468 132 474 c 0,18,19
 154 476 154 476 196 500 c 2,20,-1
 227 518 l 1,21,-1
 196 536 l 2,22,23
 178 546 178 546 170.5 550 c 128,-1,24
 163 554 163 554 146.5 558.5 c 128,-1,25
 130 563 130 563 108 565 c 0,26,27
 74 569 74 569 62 590 c 0,28,29
 53 604 53 604 57 620.5 c 128,-1,30
 61 637 61 637 75 645 c 0,31,32
 111 666 111 666 142 624 c 0,33,34
 155 607 155 607 167.5 595 c 128,-1,35
 180 583 180 583 187 578.5 c 128,-1,36
 194 574 194 574 212 563 c 2,37,-1
 243 546 l 1,38,-1
 243 581 l 2,39,40
 243 584 243 584 243 594 c 128,-1,41
 243 604 243 604 242.5 606 c 128,-1,42
 242 608 242 608 241.5 616 c 128,-1,43
 241 624 241 624 240 628 c 128,-1,44
 239 632 239 632 237 639.5 c 128,-1,45
 235 647 235 647 232 655 c 128,-1,46
 229 663 229 663 225 672 c 0,47,48
 204 720 204 720 240 741 c 0,49,50
 255 749 255 749 270.5 744 c 128,-1,51
 286 739 286 739 295 724 c 0,52,53
 307 703 307 703 293 672 c 0,54,55
 284 652 284 652 280 635.5 c 128,-1,56
 276 619 276 619 275.5 610.5 c 128,-1,57
 275 602 275 602 274 581 c 2,58,-1
 274 545 l 1,59,-1
 306 563 l 2,60,61
 307 564 307 564 314 568 c 128,-1,62
 321 572 321 572 322.5 573 c 128,-1,63
 324 574 324 574 329 577 c 128,-1,64
 334 580 334 580 336 581.5 c 128,-1,65
 338 583 338 583 342.5 587 c 128,-1,66
 347 591 347 591 350 594 c 128,-1,67
 353 597 353 597 357.5 601.5 c 128,-1,68
 362 606 362 606 366 612 c 128,-1,69
 370 618 370 618 376 624 c 0,70,71
 388 641 388 641 399 647 c 0,72,73
 412 655 412 655 430.5 650 c 128,-1,74
 449 645 449 645 457 631.5 c 128,-1,75
 465 618 465 618 459.5 600 c 128,-1,76
 454 582 454 582 440 574 c 0,77,78
 430 568 430 568 410 565 c 0,79,80
 398 564 398 564 389.5 563 c 128,-1,81
 381 562 381 562 373.5 560 c 128,-1,82
 366 558 366 558 361.5 557 c 128,-1,83
 357 556 357 556 350.5 552.5 c 128,-1,84
 344 549 344 549 342 548 c 128,-1,85
 340 547 340 547 332 542.5 c 128,-1,86
 324 538 324 538 321 536 c 2,87,-1
 290 518 l 1,88,-1
 321 500 l 2,89,90
 323 499 323 499 326 497 c 0,91,92
 342 489 342 489 350.5 485 c 128,-1,93
 359 481 359 481 374 477 c 128,-1,94
 389 473 389 473 410 471 c 0,95,96
 443 467 443 467 455 447 c 0,97,98
 464 432 464 432 460.5 415.5 c 128,-1,99
 457 399 457 399 442 391 c 0,100,101
 406 370 406 370 375 412 c 0,102,103
 362 430 362 430 349.5 442 c 128,-1,104
 337 454 337 454 331 457.5 c 128,-1,105
 325 461 325 461 305 473 c 2,106,-1
 275 491 l 1,107,-1
 275 455 l 2,108,109
 274 435 274 435 275 426 c 128,-1,110
 276 417 276 417 280 401 c 128,-1,111
 284 385 284 385 293 364 c 0,112,113
 315 317 315 317 277 295 c 0,114,115
 263 287 263 287 247 292 c 128,-1,116
 231 297 231 297 222 312 c 0,117,118
 210 333 210 333 224 364 c 0,119,120
 237 393 237 393 240 410.5 c 128,-1,121
 243 428 243 428 243 455 c 2,122,-1
 243 491 l 1,0,-1
EndSplineSet
EndChar

StartChar: plus
Encoding: 43 43 14
Width: 606
GlyphClass: 2
Flags: W
LayerCount: 2
Fore
SplineSet
263 293 m 1,0,-1
 263 505 l 1,1,-1
 343 505 l 1,2,-1
 343 293 l 1,3,-1
 555 293 l 1,4,-1
 555 213 l 1,5,-1
 343 213 l 1,6,-1
 343 0 l 1,7,-1
 263 0 l 1,8,-1
 263 213 l 1,9,-1
 51 213 l 1,10,-1
 51 293 l 1,11,-1
 263 293 l 1,0,-1
EndSplineSet
Substitution2: "'salt' Stylistic Alternatives in Hebrew lookup 3 subtable" uniFB29
EndChar

StartChar: comma
Encoding: 44 44 15
Width: 306
GlyphClass: 2
Flags: W
LayerCount: 2
Fore
SplineSet
99 96 m 2,0,-1
 155 164 l 2,1,2
 166 176 166 176 173 176 c 128,-1,3
 180 176 180 176 190 164 c 2,4,-1
 246 96 l 2,5,6
 257 83 257 83 246 64 c 2,7,-1
 144 -112 l 2,8,9
 134 -125 134 -125 120.5 -120.5 c 128,-1,10
 107 -116 107 -116 112 -97 c 2,11,-1
 134 -4 l 2,12,13
 139 16 139 16 129 28 c 2,14,-1
 99 64 l 2,15,16
 86 80 86 80 99 96 c 2,0,-1
EndSplineSet
EndChar

StartChar: hyphen
Encoding: 45 45 16
Width: 425
GlyphClass: 2
Flags: W
LayerCount: 2
Fore
SplineSet
378 336 m 2,0,-1
 359 262 l 2,1,2
 355 247 355 247 340 247 c 2,3,-1
 57 247 l 2,4,5
 38 247 38 247 42 267 c 2,6,-1
 61 341 l 2,7,8
 64 356 64 356 79 356 c 2,9,-1
 363 356 l 2,10,11
 383 356 383 356 378 336 c 2,0,-1
EndSplineSet
PairPos2: "'kern' Horizontal Kerning in Hebrew lookup 6 subtable" uniFB4E dx=45 dy=0 dh=45 dv=0 dx=0 dy=0 dh=0 dv=0
PairPos2: "'kern' Horizontal Kerning in Hebrew lookup 6 subtable" uniFB4D dx=40 dy=0 dh=40 dv=0 dx=0 dy=0 dh=0 dv=0
PairPos2: "'kern' Horizontal Kerning in Hebrew lookup 6 subtable" uniFB4C dx=45 dy=0 dh=45 dv=0 dx=0 dy=0 dh=0 dv=0
PairPos2: "'kern' Horizontal Kerning in Hebrew lookup 6 subtable" afii57700 dx=35 dy=0 dh=35 dv=0 dx=0 dy=0 dh=0 dv=0
PairPos2: "'kern' Horizontal Kerning in Hebrew lookup 6 subtable" uniFB4A dx=35 dy=0 dh=35 dv=0 dx=0 dy=0 dh=0 dv=0
PairPos2: "'kern' Horizontal Kerning in Hebrew lookup 6 subtable" uniFB49 dx=-10 dy=0 dh=-10 dv=0 dx=0 dy=0 dh=0 dv=0
PairPos2: "'kern' Horizontal Kerning in Hebrew lookup 6 subtable" uniFB48 dx=45 dy=0 dh=45 dv=0 dx=0 dy=0 dh=0 dv=0
PairPos2: "'kern' Horizontal Kerning in Hebrew lookup 6 subtable" uniFB47 dx=45 dy=0 dh=45 dv=0 dx=0 dy=0 dh=0 dv=0
PairPos2: "'kern' Horizontal Kerning in Hebrew lookup 6 subtable" uniFB46 dx=20 dy=0 dh=20 dv=0 dx=0 dy=0 dh=0 dv=0
PairPos2: "'kern' Horizontal Kerning in Hebrew lookup 6 subtable" uniFB45 dx=-20 dy=0 dh=-20 dv=0 dx=0 dy=0 dh=0 dv=0
PairPos2: "'kern' Horizontal Kerning in Hebrew lookup 6 subtable" uniFB44 dx=45 dy=0 dh=45 dv=0 dx=0 dy=0 dh=0 dv=0
PairPos2: "'kern' Horizontal Kerning in Hebrew lookup 6 subtable" uniFB43 dx=25 dy=0 dh=25 dv=0 dx=0 dy=0 dh=0 dv=0
PairPos2: "'kern' Horizontal Kerning in Hebrew lookup 6 subtable" uniFB42 dx=-10 dy=0 dh=-10 dv=0 dx=0 dy=0 dh=0 dv=0
PairPos2: "'kern' Horizontal Kerning in Hebrew lookup 6 subtable" uniFB41 dx=50 dy=0 dh=50 dv=0 dx=0 dy=0 dh=0 dv=0
PairPos2: "'kern' Horizontal Kerning in Hebrew lookup 6 subtable" uniFB40 dx=30 dy=0 dh=30 dv=0 dx=0 dy=0 dh=0 dv=0
PairPos2: "'kern' Horizontal Kerning in Hebrew lookup 6 subtable" uniFB3E dx=30 dy=0 dh=30 dv=0 dx=0 dy=0 dh=0 dv=0
PairPos2: "'kern' Horizontal Kerning in Hebrew lookup 6 subtable" uniFB3D dx=20 dy=0 dh=20 dv=0 dx=0 dy=0 dh=0 dv=0
PairPos2: "'kern' Horizontal Kerning in Hebrew lookup 6 subtable" uniFB3C dx=10 dy=0 dh=10 dv=0 dx=0 dy=0 dh=0 dv=0
PairPos2: "'kern' Horizontal Kerning in Hebrew lookup 6 subtable" uniFB3B dx=40 dy=0 dh=40 dv=0 dx=0 dy=0 dh=0 dv=0
PairPos2: "'kern' Horizontal Kerning in Hebrew lookup 6 subtable" uniFB3A dx=10 dy=0 dh=10 dv=0 dx=0 dy=0 dh=0 dv=0
PairPos2: "'kern' Horizontal Kerning in Hebrew lookup 6 subtable" uniFB39 dx=25 dy=0 dh=25 dv=0 dx=0 dy=0 dh=0 dv=0
PairPos2: "'kern' Horizontal Kerning in Hebrew lookup 6 subtable" uniFB38 dx=50 dy=0 dh=50 dv=0 dx=0 dy=0 dh=0 dv=0
PairPos2: "'kern' Horizontal Kerning in Hebrew lookup 6 subtable" uniFB37 dx=35 dy=0 dh=35 dv=0 dx=0 dy=0 dh=0 dv=0
PairPos2: "'kern' Horizontal Kerning in Hebrew lookup 6 subtable" uniFB36 dx=-10 dy=0 dh=-10 dv=0 dx=0 dy=0 dh=0 dv=0
PairPos2: "'kern' Horizontal Kerning in Hebrew lookup 6 subtable" afii57723 dx=35 dy=0 dh=35 dv=0 dx=0 dy=0 dh=0 dv=0
PairPos2: "'kern' Horizontal Kerning in Hebrew lookup 6 subtable" uniFB34 dx=10 dy=0 dh=10 dv=0 dx=0 dy=0 dh=0 dv=0
PairPos2: "'kern' Horizontal Kerning in Hebrew lookup 6 subtable" uniFB33 dx=10 dy=0 dh=10 dv=0 dx=0 dy=0 dh=0 dv=0
PairPos2: "'kern' Horizontal Kerning in Hebrew lookup 6 subtable" uniFB32 dx=10 dy=0 dh=10 dv=0 dx=0 dy=0 dh=0 dv=0
PairPos2: "'kern' Horizontal Kerning in Hebrew lookup 6 subtable" uniFB31 dx=45 dy=0 dh=45 dv=0 dx=0 dy=0 dh=0 dv=0
PairPos2: "'kern' Horizontal Kerning in Hebrew lookup 6 subtable" uniFB30 dx=-20 dy=0 dh=-20 dv=0 dx=0 dy=0 dh=0 dv=0
PairPos2: "'kern' Horizontal Kerning in Hebrew lookup 6 subtable" uniFB2F dx=-20 dy=0 dh=-20 dv=0 dx=0 dy=0 dh=0 dv=0
PairPos2: "'kern' Horizontal Kerning in Hebrew lookup 6 subtable" uniFB2E dx=-20 dy=0 dh=-20 dv=0 dx=0 dy=0 dh=0 dv=0
PairPos2: "'kern' Horizontal Kerning in Hebrew lookup 6 subtable" uniFB2D dx=-10 dy=0 dh=-10 dv=0 dx=0 dy=0 dh=0 dv=0
PairPos2: "'kern' Horizontal Kerning in Hebrew lookup 6 subtable" uniFB2C dx=-10 dy=0 dh=-10 dv=0 dx=0 dy=0 dh=0 dv=0
PairPos2: "'kern' Horizontal Kerning in Hebrew lookup 6 subtable" afii57695 dx=-10 dy=0 dh=-10 dv=0 dx=0 dy=0 dh=0 dv=0
PairPos2: "'kern' Horizontal Kerning in Hebrew lookup 6 subtable" afii57694 dx=-10 dy=0 dh=-10 dv=0 dx=0 dy=0 dh=0 dv=0
PairPos2: "'kern' Horizontal Kerning in Hebrew lookup 6 subtable" uniFB28 dx=35 dy=0 dh=35 dv=0 dx=0 dy=0 dh=0 dv=0
PairPos2: "'kern' Horizontal Kerning in Hebrew lookup 6 subtable" uniFB26 dx=20 dy=0 dh=20 dv=0 dx=0 dy=0 dh=0 dv=0
PairPos2: "'kern' Horizontal Kerning in Hebrew lookup 6 subtable" uniFB25 dx=10 dy=0 dh=10 dv=0 dx=0 dy=0 dh=0 dv=0
PairPos2: "'kern' Horizontal Kerning in Hebrew lookup 6 subtable" uniFB24 dx=40 dy=0 dh=40 dv=0 dx=0 dy=0 dh=0 dv=0
PairPos2: "'kern' Horizontal Kerning in Hebrew lookup 6 subtable" uniFB23 dx=10 dy=0 dh=10 dv=0 dx=0 dy=0 dh=0 dv=0
PairPos2: "'kern' Horizontal Kerning in Hebrew lookup 6 subtable" uniFB22 dx=10 dy=0 dh=10 dv=0 dx=0 dy=0 dh=0 dv=0
PairPos2: "'kern' Horizontal Kerning in Hebrew lookup 6 subtable" uniFB21 dx=-20 dy=0 dh=-20 dv=0 dx=0 dy=0 dh=0 dv=0
PairPos2: "'kern' Horizontal Kerning in Hebrew lookup 6 subtable" afii57705 dx=25 dy=0 dh=25 dv=0 dx=0 dy=0 dh=0 dv=0
PairPos2: "'kern' Horizontal Kerning in Hebrew lookup 6 subtable" uniFB1D dx=25 dy=0 dh=25 dv=0 dx=0 dy=0 dh=0 dv=0
PairPos2: "'kern' Horizontal Kerning in Hebrew lookup 6 subtable" uniE804 dx=25 dy=0 dh=25 dv=0 dx=0 dy=0 dh=0 dv=0
PairPos2: "'kern' Horizontal Kerning in Hebrew lookup 6 subtable" uniE803 dx=10 dy=0 dh=10 dv=0 dx=0 dy=0 dh=0 dv=0
PairPos2: "'kern' Horizontal Kerning in Hebrew lookup 6 subtable" uniE802 dx=10 dy=0 dh=10 dv=0 dx=0 dy=0 dh=0 dv=0
PairPos2: "'kern' Horizontal Kerning in Hebrew lookup 6 subtable" uniE801 dx=35 dy=0 dh=35 dv=0 dx=0 dy=0 dh=0 dv=0
PairPos2: "'kern' Horizontal Kerning in Hebrew lookup 6 subtable" afii57718 dx=25 dy=0 dh=25 dv=0 dx=0 dy=0 dh=0 dv=0
PairPos2: "'kern' Horizontal Kerning in Hebrew lookup 6 subtable" afii57717 dx=25 dy=0 dh=25 dv=0 dx=0 dy=0 dh=0 dv=0
PairPos2: "'kern' Horizontal Kerning in Hebrew lookup 6 subtable" afii57716 dx=35 dy=0 dh=35 dv=0 dx=0 dy=0 dh=0 dv=0
PairPos2: "'kern' Horizontal Kerning in Hebrew lookup 6 subtable" afii57690 dx=35 dy=0 dh=35 dv=0 dx=0 dy=0 dh=0 dv=0
PairPos2: "'kern' Horizontal Kerning in Hebrew lookup 6 subtable" afii57689 dx=-10 dy=0 dh=-10 dv=0 dx=0 dy=0 dh=0 dv=0
PairPos2: "'kern' Horizontal Kerning in Hebrew lookup 6 subtable" afii57688 dx=45 dy=0 dh=45 dv=0 dx=0 dy=0 dh=0 dv=0
PairPos2: "'kern' Horizontal Kerning in Hebrew lookup 6 subtable" afii57687 dx=45 dy=0 dh=45 dv=0 dx=0 dy=0 dh=0 dv=0
PairPos2: "'kern' Horizontal Kerning in Hebrew lookup 6 subtable" afii57686 dx=20 dy=0 dh=20 dv=0 dx=0 dy=0 dh=0 dv=0
PairPos2: "'kern' Horizontal Kerning in Hebrew lookup 6 subtable" afii57685 dx=-20 dy=0 dh=-20 dv=0 dx=0 dy=0 dh=0 dv=0
PairPos2: "'kern' Horizontal Kerning in Hebrew lookup 6 subtable" afii57684 dx=45 dy=0 dh=45 dv=0 dx=0 dy=0 dh=0 dv=0
PairPos2: "'kern' Horizontal Kerning in Hebrew lookup 6 subtable" afii57683 dx=25 dy=0 dh=25 dv=0 dx=0 dy=0 dh=0 dv=0
PairPos2: "'kern' Horizontal Kerning in Hebrew lookup 6 subtable" afii57682 dx=-10 dy=0 dh=-10 dv=0 dx=0 dy=0 dh=0 dv=0
PairPos2: "'kern' Horizontal Kerning in Hebrew lookup 6 subtable" afii57681 dx=50 dy=0 dh=50 dv=0 dx=0 dy=0 dh=0 dv=0
PairPos2: "'kern' Horizontal Kerning in Hebrew lookup 6 subtable" afii57680 dx=30 dy=0 dh=30 dv=0 dx=0 dy=0 dh=0 dv=0
PairPos2: "'kern' Horizontal Kerning in Hebrew lookup 6 subtable" afii57678 dx=30 dy=0 dh=30 dv=0 dx=0 dy=0 dh=0 dv=0
PairPos2: "'kern' Horizontal Kerning in Hebrew lookup 6 subtable" afii57677 dx=20 dy=0 dh=20 dv=0 dx=0 dy=0 dh=0 dv=0
PairPos2: "'kern' Horizontal Kerning in Hebrew lookup 6 subtable" afii57676 dx=10 dy=0 dh=10 dv=0 dx=0 dy=0 dh=0 dv=0
PairPos2: "'kern' Horizontal Kerning in Hebrew lookup 6 subtable" afii57675 dx=40 dy=0 dh=40 dv=0 dx=0 dy=0 dh=0 dv=0
PairPos2: "'kern' Horizontal Kerning in Hebrew lookup 6 subtable" afii57674 dx=10 dy=0 dh=10 dv=0 dx=0 dy=0 dh=0 dv=0
PairPos2: "'kern' Horizontal Kerning in Hebrew lookup 6 subtable" afii57673 dx=25 dy=0 dh=25 dv=0 dx=0 dy=0 dh=0 dv=0
PairPos2: "'kern' Horizontal Kerning in Hebrew lookup 6 subtable" afii57672 dx=50 dy=0 dh=50 dv=0 dx=0 dy=0 dh=0 dv=0
PairPos2: "'kern' Horizontal Kerning in Hebrew lookup 6 subtable" afii57671 dx=35 dy=0 dh=35 dv=0 dx=0 dy=0 dh=0 dv=0
PairPos2: "'kern' Horizontal Kerning in Hebrew lookup 6 subtable" afii57670 dx=-10 dy=0 dh=-10 dv=0 dx=0 dy=0 dh=0 dv=0
PairPos2: "'kern' Horizontal Kerning in Hebrew lookup 6 subtable" afii57669 dx=35 dy=0 dh=35 dv=0 dx=0 dy=0 dh=0 dv=0
PairPos2: "'kern' Horizontal Kerning in Hebrew lookup 6 subtable" afii57668 dx=10 dy=0 dh=10 dv=0 dx=0 dy=0 dh=0 dv=0
PairPos2: "'kern' Horizontal Kerning in Hebrew lookup 6 subtable" afii57667 dx=10 dy=0 dh=10 dv=0 dx=0 dy=0 dh=0 dv=0
PairPos2: "'kern' Horizontal Kerning in Hebrew lookup 6 subtable" afii57666 dx=10 dy=0 dh=10 dv=0 dx=0 dy=0 dh=0 dv=0
PairPos2: "'kern' Horizontal Kerning in Hebrew lookup 6 subtable" afii57665 dx=45 dy=0 dh=45 dv=0 dx=0 dy=0 dh=0 dv=0
PairPos2: "'kern' Horizontal Kerning in Hebrew lookup 6 subtable" afii57664 dx=-20 dy=0 dh=-20 dv=0 dx=0 dy=0 dh=0 dv=0
PairPos2: "'kern' Horizontal Kerning in Hebrew lookup 6 subtable" Y dx=0 dy=0 dh=-87 dv=0 dx=0 dy=0 dh=0 dv=0
PairPos2: "'kern' Horizontal Kerning in Hebrew lookup 6 subtable" W dx=0 dy=0 dh=-44 dv=0 dx=0 dy=0 dh=0 dv=0
PairPos2: "'kern' Horizontal Kerning in Hebrew lookup 6 subtable" V dx=0 dy=0 dh=-56 dv=0 dx=0 dy=0 dh=0 dv=0
PairPos2: "'kern' Horizontal Kerning in Hebrew lookup 6 subtable" T dx=0 dy=0 dh=-74 dv=0 dx=0 dy=0 dh=0 dv=0
PairPos2: "'kern' Horizontal Kerning in Hebrew lookup 6 subtable" A dx=0 dy=0 dh=-5 dv=0 dx=0 dy=0 dh=0 dv=0
EndChar

StartChar: period
Encoding: 46 46 17
Width: 305
GlyphClass: 2
Flags: W
LayerCount: 2
Fore
SplineSet
99 96 m 2,0,-1
 155 164 l 2,1,2
 166 176 166 176 173 176 c 128,-1,3
 180 176 180 176 190 164 c 2,4,-1
 246 96 l 2,5,6
 259 80 259 80 246 64 c 2,7,-1
 190 -4 l 2,8,9
 180 -17 180 -17 173 -17 c 128,-1,10
 166 -17 166 -17 155 -4 c 2,11,-1
 99 64 l 2,12,13
 86 80 86 80 99 96 c 2,0,-1
EndSplineSet
EndChar

StartChar: slash
Encoding: 47 47 18
Width: 293
GlyphClass: 2
Flags: W
LayerCount: 2
Fore
SplineSet
244 736 m 1,0,-1
 317 736 l 1,1,-1
 50 -14 l 1,2,-1
 -23 -14 l 1,3,-1
 244 736 l 1,0,-1
EndSplineSet
EndChar

StartChar: zero
Encoding: 48 48 19
Width: 570
GlyphClass: 2
Flags: W
LayerCount: 2
Fore
SplineSet
291 704 m 0,0,1
 399 704 399 704 465 601 c 128,-1,2
 531 498 531 498 531 339 c 0,3,4
 531 183 531 183 461.5 84 c 128,-1,5
 392 -15 392 -15 283 -15 c 0,6,7
 177 -15 177 -15 108 86.5 c 128,-1,8
 39 188 39 188 39 342 c 0,9,10
 39 499 39 499 110.5 601.5 c 128,-1,11
 182 704 182 704 291 704 c 0,0,1
284 651 m 0,12,13
 258 651 258 651 234.5 630.5 c 128,-1,14
 211 610 211 610 195 574 c 0,15,16
 170 517 170 517 170 362 c 0,17,18
 170 244 170 244 177 188 c 128,-1,19
 184 132 184 132 203 98 c 0,20,21
 237 38 237 38 285 38 c 0,22,23
 311 38 311 38 334.5 58.5 c 128,-1,24
 358 79 358 79 374 115 c 0,25,26
 388 146 388 146 393.5 200.5 c 128,-1,27
 399 255 399 255 399 357 c 0,28,29
 399 456 399 456 392 506.5 c 128,-1,30
 385 557 385 557 366 591 c 0,31,32
 332 651 332 651 284 651 c 0,12,13
EndSplineSet
EndChar

StartChar: one
Encoding: 49 49 20
Width: 570
GlyphClass: 2
Flags: W
LayerCount: 2
Fore
SplineSet
329 704 m 1,0,-1
 380 704 l 1,1,2
 373 605 373 605 373 536 c 2,3,-1
 373 128 l 2,4,5
 373 87 373 87 374 79 c 128,-1,6
 375 71 375 71 380 66 c 0,7,8
 391 52 391 52 463 52 c 2,9,-1
 503 52 l 1,10,-1
 503 0 l 1,11,-1
 107 0 l 1,12,-1
 107 52 l 1,13,-1
 157 52 l 2,14,15
 217 52 217 52 231.5 59.5 c 128,-1,16
 246 67 246 67 246 99 c 2,17,-1
 246 128 l 1,18,-1
 246 519 l 2,19,20
 246 563 246 563 237 572.5 c 128,-1,21
 228 582 228 582 184 582 c 2,22,-1
 111 582 l 1,23,-1
 111 630 l 1,24,25
 180 632 180 632 242 652.5 c 128,-1,26
 304 673 304 673 329 704 c 1,0,-1
EndSplineSet
EndChar

StartChar: two
Encoding: 50 50 21
Width: 570
GlyphClass: 2
Flags: W
LayerCount: 2
Fore
SplineSet
522 216 m 1,0,-1
 503 0 l 1,1,-1
 42 0 l 1,2,-1
 42 28 l 1,3,4
 99 103 99 103 140 151 c 2,5,-1
 218 235 l 1,6,-1
 277 297 l 2,7,8
 385 410 385 410 385 526 c 0,9,10
 385 584 385 584 349 617 c 128,-1,11
 313 650 313 650 252 650 c 0,12,13
 227 650 227 650 200 637.5 c 128,-1,14
 173 625 173 625 156 606 c 0,15,16
 135 583 135 583 135 558 c 0,17,18
 135 556 135 556 135.5 554 c 128,-1,19
 136 552 136 552 137 550.5 c 128,-1,20
 138 549 138 549 139.5 547.5 c 128,-1,21
 141 546 141 546 143.5 544.5 c 128,-1,22
 146 543 146 543 148 541.5 c 128,-1,23
 150 540 150 540 154 538.5 c 128,-1,24
 158 537 158 537 161 535.5 c 128,-1,25
 164 534 164 534 169.5 532 c 128,-1,26
 175 530 175 530 179 528 c 0,27,28
 215 512 215 512 215 471 c 0,29,30
 215 444 215 444 195.5 427 c 128,-1,31
 176 410 176 410 145 410 c 0,32,33
 103 410 103 410 80.5 438.5 c 128,-1,34
 58 467 58 467 58 516 c 0,35,36
 58 596 58 596 123 650 c 128,-1,37
 188 704 188 704 283 704 c 0,38,39
 392 704 392 704 455 650 c 128,-1,40
 518 596 518 596 518 509 c 0,41,42
 518 438 518 438 470 372 c 0,43,44
 434 325 434 325 320 237 c 0,45,46
 254 185 254 185 184 114 c 1,47,-1
 380 114 l 2,48,49
 429 114 429 114 443 125 c 128,-1,50
 457 136 457 136 464 174 c 2,51,-1
 473 216 l 1,52,-1
 522 216 l 1,0,-1
EndSplineSet
EndChar

StartChar: three
Encoding: 51 51 22
Width: 570
GlyphClass: 2
Flags: W
LayerCount: 2
Fore
SplineSet
362 368 m 1,0,1
 440 354 440 354 481 306.5 c 128,-1,2
 522 259 522 259 522 188 c 0,3,4
 522 96 522 96 453 40.5 c 128,-1,5
 384 -15 384 -15 270 -15 c 0,6,7
 169 -15 169 -15 105.5 30.5 c 128,-1,8
 42 76 42 76 42 149 c 0,9,10
 42 187 42 187 65 212 c 128,-1,11
 88 237 88 237 120 237 c 0,12,13
 153 237 153 237 173.5 220.5 c 128,-1,14
 194 204 194 204 194 174 c 0,15,16
 194 139 194 139 155 115 c 0,17,18
 140 107 140 107 136.5 103.5 c 128,-1,19
 133 100 133 100 133 93 c 0,20,21
 133 72 133 72 173 55 c 128,-1,22
 213 38 213 38 254 38 c 0,23,24
 319 38 319 38 355.5 79.5 c 128,-1,25
 392 121 392 121 392 190 c 128,-1,26
 392 259 392 259 363 298 c 128,-1,27
 334 337 334 337 280 337 c 0,28,29
 271 337 271 337 233 336 c 0,30,31
 220 335 220 335 209 335 c 0,32,33
 178 335 178 335 178 365 c 0,34,35
 178 397 178 397 210 397 c 0,36,37
 224 397 224 397 232 396 c 0,38,39
 262 394 262 394 272 394 c 0,40,41
 325 394 325 394 352 430 c 128,-1,42
 379 466 379 466 379 531 c 0,43,44
 379 585 379 585 351.5 618 c 128,-1,45
 324 651 324 651 272 651 c 0,46,47
 233 651 233 651 200 635.5 c 128,-1,48
 167 620 167 620 167 603 c 0,49,50
 167 594 167 594 180 585 c 0,51,52
 211 563 211 563 211 534 c 0,53,54
 211 507 211 507 193 490.5 c 128,-1,55
 175 474 175 474 142 474 c 0,56,57
 108 474 108 474 89 493 c 128,-1,58
 70 512 70 512 70 544 c 0,59,60
 70 612 70 612 132.5 658 c 128,-1,61
 195 704 195 704 287 704 c 0,62,63
 385 704 385 704 443.5 657 c 128,-1,64
 502 610 502 610 502 532 c 0,65,66
 502 479 502 479 472 438.5 c 128,-1,67
 442 398 442 398 386 376 c 0,68,69
 383 375 383 375 380.5 374 c 128,-1,70
 378 373 378 373 373 371.5 c 128,-1,71
 368 370 368 370 362 368 c 1,0,1
EndSplineSet
EndChar

StartChar: four
Encoding: 52 52 23
Width: 570
GlyphClass: 2
Flags: W
LayerCount: 2
Fore
SplineSet
375 704 m 1,0,-1
 433 704 l 1,1,2
 428 629 428 629 428 504 c 2,3,-1
 428 231 l 1,4,-1
 534 231 l 1,5,-1
 534 175 l 1,6,-1
 428 175 l 1,7,-1
 428 123 l 1,8,-1
 428 99 l 2,9,10
 428 67 428 67 439.5 59.5 c 128,-1,11
 451 52 451 52 503 52 c 2,12,-1
 507 52 l 1,13,-1
 507 0 l 1,14,-1
 215 0 l 1,15,-1
 215 52 l 1,16,-1
 226 52 l 2,17,18
 276 52 276 52 288.5 60 c 128,-1,19
 301 68 301 68 301 99 c 2,20,-1
 301 123 l 1,21,-1
 301 175 l 1,22,-1
 35 175 l 1,23,-1
 35 231 l 1,24,-1
 375 704 l 1,0,-1
301 231 m 1,25,-1
 301 496 l 1,26,-1
 107 231 l 1,27,-1
 301 231 l 1,25,-1
EndSplineSet
EndChar

StartChar: five
Encoding: 53 53 24
Width: 570
GlyphClass: 2
Flags: W
LayerCount: 2
Fore
SplineSet
169 571 m 1,0,-1
 154 421 l 1,1,2
 198 439 198 439 224.5 445 c 128,-1,3
 251 451 251 451 283 451 c 0,4,5
 389 451 389 451 454 388.5 c 128,-1,6
 519 326 519 326 519 224 c 0,7,8
 519 114 519 114 447 49.5 c 128,-1,9
 375 -15 375 -15 252 -15 c 0,10,11
 172 -15 172 -15 119 18 c 0,12,13
 84 41 84 41 63 76.5 c 128,-1,14
 42 112 42 112 42 149 c 0,15,16
 42 185 42 185 64.5 209 c 128,-1,17
 87 233 87 233 124 233 c 0,18,19
 158 233 158 233 177.5 215.5 c 128,-1,20
 197 198 197 198 197 171 c 0,21,22
 197 151 197 151 188.5 138.5 c 128,-1,23
 180 126 180 126 157 112 c 0,24,25
 139 102 139 102 139 90 c 0,26,27
 139 68 139 68 176 53 c 128,-1,28
 213 38 213 38 251 38 c 0,29,30
 310 38 310 38 346 73 c 0,31,32
 390 117 390 117 390 218 c 0,33,34
 390 301 390 301 353.5 346 c 128,-1,35
 317 391 317 391 257 391 c 0,36,37
 228 391 228 391 208 384.5 c 128,-1,38
 188 378 188 378 160 362 c 0,39,40
 151 357 151 357 140.5 337.5 c 128,-1,41
 130 318 130 318 116 317 c 0,42,43
 101 316 101 316 92 323 c 128,-1,44
 83 330 83 330 82 344 c 0,45,46
 81 352 81 352 85 367 c 128,-1,47
 89 382 89 382 90 389 c 0,48,49
 111 577 111 577 117 704 c 1,50,51
 243 674 243 674 333 674 c 0,52,53
 405 674 405 674 466 700 c 0,54,55
 473 704 473 704 479 704 c 0,56,57
 487 704 487 704 487 695 c 0,58,59
 487 677 487 677 472 649 c 0,60,61
 451 610 451 610 402 582 c 128,-1,62
 353 554 353 554 292 554 c 0,63,64
 240 554 240 554 169 571 c 1,0,-1
EndSplineSet
EndChar

StartChar: six
Encoding: 54 54 25
Width: 570
GlyphClass: 2
Flags: W
LayerCount: 2
Fore
SplineSet
165 346 m 1,0,1
 230 430 230 430 325 430 c 0,2,3
 411 430 411 430 472 370.5 c 128,-1,4
 533 311 533 311 533 224 c 0,5,6
 533 177 533 177 514 130.5 c 128,-1,7
 495 84 495 84 461 51 c 0,8,9
 395 -15 395 -15 293 -15 c 0,10,11
 178 -15 178 -15 108.5 73.5 c 128,-1,12
 39 162 39 162 39 308 c 0,13,14
 39 389 39 389 62 464.5 c 128,-1,15
 85 540 85 540 128 598 c 0,16,17
 165 648 165 648 222 676 c 128,-1,18
 279 704 279 704 343 704 c 0,19,20
 417 704 417 704 465.5 670 c 128,-1,21
 514 636 514 636 514 584 c 0,22,23
 514 552 514 552 494 532 c 128,-1,24
 474 512 474 512 439 512 c 0,25,26
 406 512 406 512 387 528.5 c 128,-1,27
 368 545 368 545 368 571 c 0,28,29
 368 590 368 590 380 613 c 0,30,31
 385 622 385 622 385 627 c 0,32,33
 385 650 385 650 335 650 c 0,34,35
 298 650 298 650 260.5 622 c 128,-1,36
 223 594 223 594 202 544 c 0,37,38
 186 507 186 507 179 467.5 c 128,-1,39
 172 428 172 428 165 346 c 1,0,1
297 359 m 0,40,41
 242 359 242 359 209.5 317 c 128,-1,42
 177 275 177 275 177 203 c 0,43,44
 177 150 177 150 199 107 c 0,45,46
 233 38 233 38 295 38 c 0,47,48
 345 38 345 38 374.5 86.5 c 128,-1,49
 404 135 404 135 404 216 c 0,50,51
 404 283 404 283 375.5 321 c 128,-1,52
 347 359 347 359 297 359 c 0,40,41
EndSplineSet
EndChar

StartChar: seven
Encoding: 55 55 26
Width: 570
GlyphClass: 2
Flags: W
LayerCount: 2
Fore
SplineSet
515 647 m 1,0,-1
 470 553 l 1,1,2
 391 378 391 378 368.5 295 c 128,-1,3
 346 212 346 212 350 105 c 0,4,5
 351 41 351 41 333 13.5 c 128,-1,6
 315 -14 315 -14 274 -14 c 0,7,8
 201 -14 201 -14 201 60 c 0,9,10
 201 130 201 130 248 240 c 0,11,12
 275 304 275 304 361 467 c 1,13,-1
 419 584 l 1,14,15
 392 583 392 583 357 583 c 0,16,17
 308 583 308 583 192 589 c 0,18,19
 184 590 184 590 170 590 c 0,20,21
 148 590 148 590 139 576.5 c 128,-1,22
 130 563 130 563 119 514 c 2,23,-1
 105 455 l 1,24,-1
 56 462 l 1,25,-1
 87 704 l 1,26,27
 243 694 243 694 359 694 c 0,28,29
 441 694 441 694 515 700 c 1,30,-1
 515 647 l 1,0,-1
EndSplineSet
EndChar

StartChar: eight
Encoding: 56 56 27
Width: 570
GlyphClass: 2
Flags: W
LayerCount: 2
Fore
SplineSet
385 390 m 1,0,1
 436 368 436 368 464 345 c 0,2,3
 530 290 530 290 530 201 c 0,4,5
 530 155 530 155 511 112.5 c 128,-1,6
 492 70 492 70 458 42 c 0,7,8
 392 -15 392 -15 274 -15 c 0,9,10
 172 -15 172 -15 110 28 c 0,11,12
 77 52 77 52 57.5 90 c 128,-1,13
 38 128 38 128 38 168 c 0,14,15
 38 249 38 249 102 299 c 0,16,17
 131 322 131 322 190 344 c 1,18,19
 140 369 140 369 118 394 c 0,20,21
 72 443 72 443 72 513 c 0,22,23
 72 596 72 596 134.5 650 c 128,-1,24
 197 704 197 704 292 704 c 0,25,26
 382 704 382 704 441 659 c 128,-1,27
 500 614 500 614 500 545 c 0,28,29
 500 450 500 450 385 390 c 1,0,1
275 431 m 2,30,-1
 336 409 l 1,31,32
 376 443 376 443 391.5 471 c 128,-1,33
 407 499 407 499 407 535 c 0,34,35
 407 587 407 587 374.5 619 c 128,-1,36
 342 651 342 651 289 651 c 0,37,38
 234 651 234 651 201 623 c 128,-1,39
 168 595 168 595 168 550 c 0,40,41
 168 509 168 509 193.5 481 c 128,-1,42
 219 453 219 453 275 431 c 2,30,-1
329 290 m 2,43,-1
 243 321 l 1,44,45
 188 296 188 296 164.5 261 c 128,-1,46
 141 226 141 226 141 172 c 0,47,48
 141 109 141 109 177.5 73.5 c 128,-1,49
 214 38 214 38 279 38 c 0,50,51
 348 38 348 38 389 72 c 128,-1,52
 430 106 430 106 430 164 c 0,53,54
 430 211 430 211 406 240.5 c 128,-1,55
 382 270 382 270 329 290 c 2,43,-1
EndSplineSet
EndChar

StartChar: nine
Encoding: 57 57 28
Width: 570
GlyphClass: 2
Flags: W
LayerCount: 2
Fore
SplineSet
401 336 m 1,0,1
 365 291 365 291 329 273.5 c 128,-1,2
 293 256 293 256 242 256 c 0,3,4
 153 256 153 256 94.5 315 c 128,-1,5
 36 374 36 374 36 463 c 0,6,7
 36 564 36 564 105.5 634 c 128,-1,8
 175 704 175 704 275 704 c 0,9,10
 391 704 391 704 460.5 614.5 c 128,-1,11
 530 525 530 525 530 374 c 0,12,13
 530 215 530 215 451 100 c 0,14,15
 413 45 413 45 354 15 c 128,-1,16
 295 -15 295 -15 224 -15 c 0,17,18
 152 -15 152 -15 103.5 18.5 c 128,-1,19
 55 52 55 52 55 101 c 0,20,21
 55 132 55 132 75.5 152.5 c 128,-1,22
 96 173 96 173 132 173 c 0,23,24
 164 173 164 173 182.5 156.5 c 128,-1,25
 201 140 201 140 201 114 c 0,26,27
 201 98 201 98 187 70 c 0,28,29
 182 61 182 61 182 57 c 0,30,31
 182 38 182 38 237 38 c 0,32,33
 279 38 279 38 316.5 69.5 c 128,-1,34
 354 101 354 101 372 155 c 0,35,36
 389 206 389 206 401 336 c 1,0,1
279 651 m 0,37,38
 249 651 249 651 228.5 639 c 128,-1,39
 208 627 208 627 193 599 c 0,40,41
 165 555 165 555 165 481 c 256,42,43
 165 407 165 407 193.5 366.5 c 128,-1,44
 222 326 222 326 274 326 c 0,45,46
 304 326 304 326 329.5 340.5 c 128,-1,47
 355 355 355 355 371 381 c 0,48,49
 392 414 392 414 392 476 c 0,50,51
 392 555 392 555 361 603 c 128,-1,52
 330 651 330 651 279 651 c 0,37,38
EndSplineSet
EndChar

StartChar: colon
Encoding: 58 58 29
Width: 305
GlyphClass: 2
Flags: W
LayerCount: 2
Fore
SplineSet
99 446 m 2,0,-1
 155 514 l 2,1,2
 166 526 166 526 173 526 c 128,-1,3
 180 526 180 526 190 514 c 2,4,-1
 246 446 l 2,5,6
 259 430 259 430 246 414 c 2,7,-1
 190 346 l 2,8,9
 180 333 180 333 173 333 c 128,-1,10
 166 333 166 333 155 346 c 2,11,-1
 99 414 l 2,12,13
 86 430 86 430 99 446 c 2,0,-1
99 96 m 2,14,-1
 155 164 l 2,15,16
 166 176 166 176 173 176 c 128,-1,17
 180 176 180 176 190 164 c 2,18,-1
 246 96 l 2,19,20
 259 80 259 80 246 64 c 2,21,-1
 190 -4 l 2,22,23
 180 -17 180 -17 173 -17 c 128,-1,24
 166 -17 166 -17 155 -4 c 2,25,-1
 99 64 l 2,26,27
 86 80 86 80 99 96 c 2,14,-1
EndSplineSet
EndChar

StartChar: semicolon
Encoding: 59 59 30
Width: 305
GlyphClass: 2
Flags: W
LayerCount: 2
Fore
SplineSet
99 96 m 2,0,-1
 155 164 l 2,1,2
 166 176 166 176 173 176 c 128,-1,3
 180 176 180 176 190 164 c 2,4,-1
 246 96 l 2,5,6
 257 83 257 83 246 64 c 2,7,-1
 144 -112 l 2,8,9
 134 -125 134 -125 120.5 -120.5 c 128,-1,10
 107 -116 107 -116 112 -97 c 2,11,-1
 134 -4 l 2,12,13
 139 16 139 16 129 28 c 2,14,-1
 99 64 l 2,15,16
 86 80 86 80 99 96 c 2,0,-1
99 446 m 2,17,-1
 155 514 l 2,18,19
 166 526 166 526 173 526 c 128,-1,20
 180 526 180 526 190 514 c 2,21,-1
 246 446 l 2,22,23
 259 430 259 430 246 414 c 2,24,-1
 190 346 l 2,25,26
 180 333 180 333 173 333 c 128,-1,27
 166 333 166 333 155 346 c 2,28,-1
 99 414 l 2,29,30
 86 430 86 430 99 446 c 2,17,-1
EndSplineSet
EndChar

StartChar: less
Encoding: 60 60 31
Width: 606
GlyphClass: 2
Flags: W
LayerCount: 2
Fore
SplineSet
558 438 m 1,0,-1
 160 253 l 1,1,-1
 558 68 l 1,2,-1
 558 -17 l 1,3,-1
 49 215 l 1,4,-1
 49 291 l 1,5,-1
 558 523 l 1,6,-1
 558 438 l 1,0,-1
EndSplineSet
EndChar

StartChar: equal
Encoding: 61 61 32
Width: 606
GlyphClass: 2
Flags: W
LayerCount: 2
Fore
SplineSet
51 112 m 1,0,-1
 51 192 l 1,1,-1
 555 192 l 1,2,-1
 555 112 l 1,3,-1
 51 112 l 1,0,-1
51 314 m 1,4,-1
 51 394 l 1,5,-1
 555 394 l 1,6,-1
 555 314 l 1,7,-1
 51 314 l 1,4,-1
EndSplineSet
EndChar

StartChar: greater
Encoding: 62 62 33
Width: 606
GlyphClass: 2
Flags: W
LayerCount: 2
Fore
SplineSet
48 438 m 1,0,-1
 48 523 l 1,1,-1
 557 291 l 1,2,-1
 557 215 l 1,3,-1
 48 -17 l 1,4,-1
 48 68 l 1,5,-1
 446 253 l 1,6,-1
 48 438 l 1,0,-1
EndSplineSet
EndChar

StartChar: question
Encoding: 63 63 34
Width: 499
GlyphClass: 2
Flags: W
LayerCount: 2
Fore
SplineSet
322 549 m 0,0,1
 322 598 322 598 295.5 623 c 128,-1,2
 269 648 269 648 224 648 c 0,3,4
 183 648 183 648 175 633.5 c 128,-1,5
 167 619 167 619 177 586 c 128,-1,6
 187 553 187 553 185 536 c 0,7,8
 183 517 183 517 159.5 504.5 c 128,-1,9
 136 492 136 492 106 492 c 0,10,11
 70 492 70 492 52.5 512 c 128,-1,12
 35 532 35 532 35 565 c 0,13,14
 35 625 35 625 96 664.5 c 128,-1,15
 157 704 157 704 250 704 c 0,16,17
 345 704 345 704 403 659 c 128,-1,18
 461 614 461 614 461 540 c 0,19,20
 461 492 461 492 436 458 c 128,-1,21
 411 424 411 424 341 372 c 0,22,23
 306 346 306 346 283 319.5 c 128,-1,24
 260 293 260 293 252 259 c 0,25,26
 250 250 250 250 241 238 c 0,27,28
 230 223 230 223 226 223.5 c 128,-1,29
 222 224 222 224 210 238 c 0,30,31
 199 250 199 250 201 272 c 0,32,33
 203 302 203 302 215 330.5 c 128,-1,34
 227 359 227 359 239.5 377.5 c 128,-1,35
 252 396 252 396 280 433 c 0,36,37
 286 441 286 441 289 445 c 0,38,39
 322 490 322 490 322 549 c 0,0,1
159 96 m 2,40,-1
 209 167 l 2,41,42
 219 179 219 179 225.5 179 c 128,-1,43
 232 179 232 179 241 167 c 2,44,-1
 291 96 l 2,45,46
 303 80 303 80 291 64 c 2,47,-1
 241 -7 l 2,48,49
 231 -20 231 -20 225 -20 c 128,-1,50
 219 -20 219 -20 209 -7 c 2,51,-1
 159 64 l 2,52,53
 147 80 147 80 159 96 c 2,40,-1
EndSplineSet
EndChar

StartChar: at
Encoding: 64 64 35
Width: 737
GlyphClass: 2
Flags: W
LayerCount: 2
Fore
SplineSet
637 188 m 1,0,-1
 698 188 l 1,1,2
 671 125 671 125 606 66 c 0,3,4
 515 -14 515 -14 391 -14 c 0,5,6
 243 -14 243 -14 143 92.5 c 128,-1,7
 43 199 43 199 43 356 c 0,8,9
 43 524 43 524 146 632 c 0,10,11
 193 681 193 681 257.5 708.5 c 128,-1,12
 322 736 322 736 389 736 c 0,13,14
 520 736 520 736 612.5 647.5 c 128,-1,15
 705 559 705 559 705 435 c 0,16,17
 705 367 705 367 676 303.5 c 128,-1,18
 647 240 647 240 596 198 c 0,19,20
 536 147 536 147 477 147 c 0,21,22
 446 147 446 147 427 165 c 128,-1,23
 408 183 408 183 408 212 c 0,24,25
 408 224 408 224 409 232 c 1,26,27
 380 189 380 189 355.5 171 c 128,-1,28
 331 153 331 153 301 153 c 0,29,30
 247 153 247 153 209 198 c 0,31,32
 176 237 176 237 176 302 c 0,33,34
 176 398 176 398 240 471 c 0,35,36
 269 503 269 503 306.5 523 c 128,-1,37
 344 543 344 543 377 543 c 0,38,39
 436 543 436 543 455 478 c 1,40,-1
 471 534 l 1,41,-1
 559 534 l 1,42,-1
 486 245 l 2,43,44
 482 229 482 229 482 215 c 0,45,46
 482 205 482 205 489.5 198 c 128,-1,47
 497 191 497 191 508 191 c 0,48,49
 528 191 528 191 553 210 c 128,-1,50
 578 229 578 229 600 260 c 0,51,52
 653 336 653 336 653 428 c 0,53,54
 653 479 653 479 631 529 c 128,-1,55
 609 579 609 579 570 616 c 0,56,57
 498 685 498 685 394 685 c 0,58,59
 266 685 266 685 182.5 593.5 c 128,-1,60
 99 502 99 502 99 361 c 0,61,62
 99 219 99 219 183.5 128 c 128,-1,63
 268 37 268 37 399 37 c 0,64,65
 552 37 552 37 637 188 c 1,0,-1
391 502 m 0,66,67
 354 502 354 502 328 460 c 0,68,69
 300 417 300 417 283 365 c 128,-1,70
 266 313 266 313 266 271 c 0,71,72
 266 234 266 234 278.5 213.5 c 128,-1,73
 291 193 291 193 314 193 c 0,74,75
 362 193 362 193 400 280 c 0,76,77
 436 361 436 361 436 430 c 0,78,79
 436 463 436 463 424 482.5 c 128,-1,80
 412 502 412 502 391 502 c 0,66,67
EndSplineSet
EndChar

StartChar: A
Encoding: 65 65 36
Width: 722
GlyphClass: 2
Flags: W
LayerCount: 2
Fore
SplineSet
378 736 m 1,0,-1
 633 111 l 2,1,2
 650 69 650 69 664.5 58 c 128,-1,3
 679 47 679 47 717 47 c 2,4,-1
 731 47 l 1,5,-1
 731 0 l 1,6,-1
 421 0 l 1,7,-1
 421 47 l 1,8,-1
 463 47 l 2,9,10
 525 47 525 47 525 73 c 0,11,12
 525 80 525 80 517 100 c 2,13,-1
 463 234 l 1,14,-1
 198 234 l 1,15,-1
 165 146 l 2,16,17
 156 122 156 122 156 104 c 0,18,19
 156 47 156 47 237 47 c 2,20,-1
 257 47 l 1,21,-1
 257 0 l 1,22,-1
 -8 0 l 1,23,-1
 -8 47 l 1,24,-1
 -4 47 l 2,25,26
 41 47 41 47 67 78 c 0,27,28
 84 96 84 96 106 153 c 2,29,-1
 336 736 l 1,30,-1
 378 736 l 1,0,-1
329 572 m 1,31,-1
 218 288 l 1,32,-1
 442 288 l 1,33,-1
 329 572 l 1,31,-1
EndSplineSet
EndChar

StartChar: B
Encoding: 66 66 37
Width: 722
GlyphClass: 2
Flags: W
LayerCount: 2
Fore
SplineSet
30 722 m 1,0,-1
 389 722 l 2,1,2
 480 722 480 722 534 698 c 0,3,4
 577 679 577 679 604.5 636.5 c 128,-1,5
 632 594 632 594 632 546 c 0,6,7
 632 464 632 464 565 415 c 0,8,9
 532 390 532 390 470 377 c 1,10,11
 572 359 572 359 621 314.5 c 128,-1,12
 670 270 670 270 670 196 c 0,13,14
 670 104 670 104 596.5 52 c 128,-1,15
 523 0 523 0 393 0 c 2,16,-1
 30 0 l 1,17,-1
 30 47 l 1,18,-1
 48 47 l 2,19,20
 109 47 109 47 123.5 54.5 c 128,-1,21
 138 62 138 62 138 94 c 2,22,-1
 138 123 l 1,23,-1
 138 599 l 1,24,-1
 138 628 l 2,25,26
 138 660 138 660 123.5 667.5 c 128,-1,27
 109 675 109 675 48 675 c 2,28,-1
 30 675 l 1,29,-1
 30 722 l 1,0,-1
250 397 m 1,30,-1
 339 397 l 2,31,32
 435 397 435 397 475.5 428 c 128,-1,33
 516 459 516 459 516 533 c 0,34,35
 516 620 516 620 461 654 c 0,36,37
 430 675 430 675 356 675 c 2,38,-1
 316 675 l 2,39,40
 277 675 277 675 263.5 664.5 c 128,-1,41
 250 654 250 654 250 625 c 2,42,-1
 250 397 l 1,30,-1
250 350 m 1,43,-1
 250 110 l 2,44,45
 250 69 250 69 260 58 c 128,-1,46
 270 47 270 47 308 47 c 2,47,-1
 350 47 l 2,48,49
 441 47 441 47 486 70 c 0,50,51
 547 100 547 100 547 199 c 0,52,53
 547 297 547 297 475 331 c 0,54,55
 431 350 431 350 338 350 c 2,56,-1
 250 350 l 1,43,-1
EndSplineSet
EndChar

StartChar: C
Encoding: 67 67 38
Width: 722
GlyphClass: 2
Flags: W
LayerCount: 2
Fore
SplineSet
639 729 m 1,0,-1
 654 440 l 1,1,-1
 610 440 l 1,2,3
 579 544 579 544 553 589 c 0,4,5
 524 637 524 637 479.5 663.5 c 128,-1,6
 435 690 435 690 383 690 c 0,7,8
 335 690 335 690 292 665.5 c 128,-1,9
 249 641 249 641 226 599 c 0,10,11
 177 513 177 513 177 350 c 0,12,13
 177 189 177 189 230.5 110.5 c 128,-1,14
 284 32 284 32 395 32 c 0,15,16
 519 32 519 32 581 136 c 0,17,18
 607 179 607 179 621 255 c 1,19,-1
 668 247 l 1,20,21
 651 121 651 121 577 53 c 128,-1,22
 503 -15 503 -15 383 -15 c 0,23,24
 235 -15 235 -15 140 89 c 128,-1,25
 45 193 45 193 45 354 c 0,26,27
 45 505 45 505 139 617 c 0,28,29
 240 737 240 737 384 737 c 0,30,31
 434 737 434 737 471 723 c 128,-1,32
 508 709 508 709 561 670 c 1,33,-1
 601 729 l 1,34,-1
 639 729 l 1,0,-1
EndSplineSet
EndChar

StartChar: D
Encoding: 68 68 39
Width: 778
GlyphClass: 2
Flags: W
LayerCount: 2
Fore
SplineSet
137 123 m 1,0,-1
 137 599 l 1,1,-1
 137 628 l 2,2,3
 137 660 137 660 122.5 667.5 c 128,-1,4
 108 675 108 675 48 675 c 2,5,-1
 29 675 l 1,6,-1
 29 722 l 1,7,-1
 347 722 l 2,8,9
 510 722 510 722 590 671 c 0,10,11
 659 626 659 626 695.5 547 c 128,-1,12
 732 468 732 468 732 365 c 0,13,14
 732 253 732 253 691.5 170 c 128,-1,15
 651 87 651 87 575 44 c 0,16,17
 497 0 497 0 365 0 c 2,18,-1
 29 0 l 1,19,-1
 29 47 l 1,20,-1
 48 47 l 2,21,22
 108 47 108 47 122.5 54.5 c 128,-1,23
 137 62 137 62 137 94 c 2,24,-1
 137 123 l 1,0,-1
306 47 m 2,25,-1
 374 47 l 2,26,27
 495 47 495 47 547.5 120 c 128,-1,28
 600 193 600 193 600 361 c 0,29,30
 600 527 600 527 543 601 c 128,-1,31
 486 675 486 675 358 675 c 2,32,-1
 306 675 l 2,33,34
 269 675 269 675 259 665.5 c 128,-1,35
 249 656 249 656 249 619 c 2,36,-1
 249 102 l 2,37,38
 249 65 249 65 258.5 56 c 128,-1,39
 268 47 268 47 306 47 c 2,25,-1
EndSplineSet
EndChar

StartChar: E
Encoding: 69 69 40
Width: 722
GlyphClass: 2
Flags: W
LayerCount: 2
Fore
SplineSet
630 722 m 1,0,-1
 644 466 l 1,1,-1
 601 466 l 1,2,3
 579 599 579 599 529 638 c 0,4,5
 504 659 504 659 467.5 667 c 128,-1,6
 431 675 431 675 364 675 c 2,7,-1
 312 675 l 2,8,9
 271 675 271 675 260 666 c 128,-1,10
 249 657 249 657 249 625 c 2,11,-1
 249 397 l 1,12,-1
 273 397 l 2,13,14
 344 397 344 397 376.5 429 c 128,-1,15
 409 461 409 461 413 534 c 1,16,-1
 460 534 l 1,17,-1
 460 206 l 1,18,-1
 413 206 l 1,19,20
 410 288 410 288 375 323 c 0,21,22
 360 339 360 339 337.5 344.5 c 128,-1,23
 315 350 315 350 269 350 c 2,24,-1
 249 350 l 1,25,-1
 249 95 l 2,26,27
 249 69 249 69 257 62 c 0,28,29
 272 47 272 47 321 47 c 2,30,-1
 387 47 l 2,31,32
 513 47 513 47 559 106 c 0,33,34
 598 153 598 153 619 267 c 1,35,-1
 663 267 l 1,36,-1
 643 0 l 1,37,-1
 29 0 l 1,38,-1
 29 47 l 1,39,-1
 47 47 l 2,40,41
 108 47 108 47 122.5 54.5 c 128,-1,42
 137 62 137 62 137 94 c 2,43,-1
 137 123 l 1,44,-1
 137 599 l 1,45,-1
 137 628 l 2,46,47
 137 660 137 660 122.5 667.5 c 128,-1,48
 108 675 108 675 47 675 c 2,49,-1
 29 675 l 1,50,-1
 29 722 l 1,51,-1
 630 722 l 1,0,-1
EndSplineSet
EndChar

StartChar: F
Encoding: 70 70 41
Width: 667
GlyphClass: 2
Flags: W
LayerCount: 2
Fore
SplineSet
624 722 m 1,0,-1
 638 466 l 1,1,-1
 594 466 l 1,2,3
 573 594 573 594 527.5 634.5 c 128,-1,4
 482 675 482 675 358 675 c 2,5,-1
 312 675 l 2,6,7
 271 675 271 675 260 666 c 128,-1,8
 249 657 249 657 249 625 c 2,9,-1
 249 397 l 1,10,-1
 273 397 l 2,11,12
 344 397 344 397 376.5 429 c 128,-1,13
 409 461 409 461 413 534 c 1,14,-1
 460 534 l 1,15,-1
 460 206 l 1,16,-1
 413 206 l 1,17,18
 410 287 410 287 376 323 c 0,19,20
 360 339 360 339 338 344.5 c 128,-1,21
 316 350 316 350 269 350 c 2,22,-1
 249 350 l 1,23,-1
 249 123 l 1,24,-1
 249 94 l 2,25,26
 249 62 249 62 263.5 54.5 c 128,-1,27
 278 47 278 47 339 47 c 2,28,-1
 372 47 l 1,29,-1
 372 0 l 1,30,-1
 29 0 l 1,31,-1
 29 47 l 1,32,-1
 47 47 l 2,33,34
 108 47 108 47 122.5 54.5 c 128,-1,35
 137 62 137 62 137 94 c 2,36,-1
 137 123 l 1,37,-1
 137 599 l 1,38,-1
 137 628 l 2,39,40
 137 660 137 660 122.5 667.5 c 128,-1,41
 108 675 108 675 47 675 c 2,42,-1
 29 675 l 1,43,-1
 29 722 l 1,44,-1
 624 722 l 1,0,-1
EndSplineSet
EndChar

StartChar: G
Encoding: 71 71 42
Width: 778
GlyphClass: 2
Flags: W
LayerCount: 2
Fore
SplineSet
650 729 m 1,0,-1
 664 448 l 1,1,-1
 621 448 l 1,2,3
 559 690 559 690 387 690 c 0,4,5
 283 690 283 690 228.5 602.5 c 128,-1,6
 174 515 174 515 174 348 c 0,7,8
 174 194 174 194 227 115 c 0,9,10
 252 78 252 78 297 55 c 128,-1,11
 342 32 342 32 390 32 c 0,12,13
 439 32 439 32 482 55 c 128,-1,14
 525 78 525 78 544 115 c 0,15,16
 564 155 564 155 564 222 c 0,17,18
 564 263 564 263 550 272.5 c 128,-1,19
 536 282 536 282 473 282 c 2,20,-1
 454 282 l 1,21,-1
 454 329 l 1,22,-1
 772 329 l 1,23,-1
 772 282 l 1,24,-1
 757 282 l 2,25,26
 686 282 686 282 673 268 c 0,27,28
 667 261 667 261 667 206 c 2,29,-1
 667 -14 l 1,30,-1
 625 -14 l 1,31,-1
 588 76 l 1,32,33
 539 27 539 27 491 6 c 128,-1,34
 443 -15 443 -15 380 -15 c 0,35,36
 308 -15 308 -15 242.5 14 c 128,-1,37
 177 43 177 43 130 96 c 0,38,39
 42 195 42 195 42 348 c 0,40,41
 42 547 42 547 187 664 c 0,42,43
 277 737 277 737 391 737 c 0,44,45
 446 737 446 737 485 722 c 128,-1,46
 524 707 524 707 573 668 c 1,47,-1
 612 729 l 1,48,-1
 650 729 l 1,0,-1
EndSplineSet
EndChar

StartChar: H
Encoding: 72 72 43
Width: 833
GlyphClass: 2
Flags: W
LayerCount: 2
Fore
SplineSet
584 347 m 1,0,-1
 249 347 l 1,1,-1
 249 123 l 1,2,-1
 249 94 l 2,3,4
 249 62 249 62 263.5 54.5 c 128,-1,5
 278 47 278 47 339 47 c 2,6,-1
 358 47 l 1,7,-1
 358 0 l 1,8,-1
 29 0 l 1,9,-1
 29 47 l 1,10,-1
 47 47 l 2,11,12
 108 47 108 47 122.5 54.5 c 128,-1,13
 137 62 137 62 137 94 c 2,14,-1
 137 123 l 1,15,-1
 137 599 l 1,16,-1
 137 628 l 2,17,18
 137 660 137 660 122.5 667.5 c 128,-1,19
 108 675 108 675 47 675 c 2,20,-1
 29 675 l 1,21,-1
 29 722 l 1,22,-1
 358 722 l 1,23,-1
 358 675 l 1,24,-1
 339 675 l 2,25,26
 278 675 278 675 263.5 667.5 c 128,-1,27
 249 660 249 660 249 628 c 2,28,-1
 249 599 l 1,29,-1
 249 401 l 1,30,-1
 584 401 l 1,31,-1
 584 599 l 1,32,-1
 584 628 l 2,33,34
 584 660 584 660 569.5 667.5 c 128,-1,35
 555 675 555 675 494 675 c 2,36,-1
 480 675 l 1,37,-1
 480 722 l 1,38,-1
 804 722 l 1,39,-1
 804 675 l 1,40,-1
 786 675 l 2,41,42
 725 675 725 675 710.5 667.5 c 128,-1,43
 696 660 696 660 696 628 c 2,44,-1
 696 599 l 1,45,-1
 696 123 l 1,46,-1
 696 94 l 2,47,48
 696 62 696 62 710.5 54.5 c 128,-1,49
 725 47 725 47 786 47 c 2,50,-1
 804 47 l 1,51,-1
 804 0 l 1,52,-1
 476 0 l 1,53,-1
 476 47 l 1,54,-1
 494 47 l 2,55,56
 555 47 555 47 569.5 54.5 c 128,-1,57
 584 62 584 62 584 94 c 2,58,-1
 584 123 l 1,59,-1
 584 347 l 1,0,-1
EndSplineSet
EndChar

StartChar: I
Encoding: 73 73 44
Width: 407
GlyphClass: 2
Flags: W
LayerCount: 2
Fore
SplineSet
260 599 m 1,0,-1
 260 123 l 1,1,-1
 260 94 l 2,2,3
 260 62 260 62 274.5 54.5 c 128,-1,4
 289 47 289 47 349 47 c 2,5,-1
 369 47 l 1,6,-1
 369 0 l 1,7,-1
 38 0 l 1,8,-1
 38 47 l 1,9,-1
 58 47 l 2,10,11
 119 47 119 47 133.5 54.5 c 128,-1,12
 148 62 148 62 148 94 c 2,13,-1
 148 123 l 1,14,-1
 148 599 l 1,15,-1
 148 628 l 2,16,17
 148 660 148 660 133.5 667.5 c 128,-1,18
 119 675 119 675 58 675 c 2,19,-1
 38 675 l 1,20,-1
 38 722 l 1,21,-1
 369 722 l 1,22,-1
 369 675 l 1,23,-1
 349 675 l 2,24,25
 289 675 289 675 274.5 667.5 c 128,-1,26
 260 660 260 660 260 628 c 2,27,-1
 260 599 l 1,0,-1
EndSplineSet
EndChar

StartChar: J
Encoding: 74 74 45
Width: 556
GlyphClass: 2
Flags: W
LayerCount: 2
Fore
SplineSet
428 599 m 1,0,-1
 428 268 l 2,1,2
 428 127 428 127 391 70 c 0,3,4
 338 -15 338 -15 204 -15 c 0,5,6
 112 -15 112 -15 63 28 c 0,7,8
 5 76 5 76 5 155 c 0,9,10
 5 208 5 208 33 242.5 c 128,-1,11
 61 277 61 277 105 277 c 0,12,13
 138 277 138 277 159 257 c 128,-1,14
 180 237 180 237 180 205 c 0,15,16
 180 174 180 174 162 153.5 c 128,-1,17
 144 133 144 133 117 133 c 0,18,19
 101 133 101 133 80 138 c 1,20,-1
 77 138 l 2,21,22
 65 138 65 138 65 122 c 0,23,24
 65 100 65 100 84 76 c 0,25,26
 118 32 118 32 186 32 c 0,27,28
 275 32 275 32 304 119 c 0,29,30
 317 158 317 158 317 277 c 2,31,-1
 317 599 l 1,32,-1
 317 628 l 2,33,34
 317 660 317 660 302.5 667.5 c 128,-1,35
 288 675 288 675 228 675 c 2,36,-1
 209 675 l 1,37,-1
 209 722 l 1,38,-1
 537 722 l 1,39,-1
 537 675 l 1,40,-1
 518 675 l 2,41,42
 457 675 457 675 442.5 667.5 c 128,-1,43
 428 660 428 660 428 628 c 2,44,-1
 428 599 l 1,0,-1
EndSplineSet
EndChar

StartChar: K
Encoding: 75 75 46
Width: 778
GlyphClass: 2
Flags: W
LayerCount: 2
Fore
SplineSet
250 327 m 1,0,-1
 495 573 l 2,1,2
 544 622 544 622 544 645 c 0,3,4
 544 675 544 675 479 675 c 2,5,-1
 454 675 l 1,6,-1
 454 722 l 1,7,-1
 762 722 l 1,8,-1
 762 675 l 1,9,10
 668 675 668 675 593 595 c 2,11,-1
 444 446 l 1,12,-1
 686 97 l 2,13,14
 708 65 708 65 725.5 56 c 128,-1,15
 743 47 743 47 784 47 c 2,16,-1
 803 47 l 1,17,-1
 803 0 l 1,18,-1
 461 0 l 1,19,-1
 461 47 l 1,20,-1
 492 47 l 2,21,22
 560 47 560 47 560 70 c 0,23,24
 560 82 560 82 540 112 c 2,25,-1
 366 367 l 1,26,-1
 250 250 l 1,27,-1
 250 123 l 1,28,-1
 250 94 l 2,29,30
 250 62 250 62 264.5 54.5 c 128,-1,31
 279 47 279 47 340 47 c 2,32,-1
 359 47 l 1,33,-1
 359 0 l 1,34,-1
 30 0 l 1,35,-1
 30 47 l 1,36,-1
 48 47 l 2,37,38
 109 47 109 47 123.5 54.5 c 128,-1,39
 138 62 138 62 138 94 c 2,40,-1
 138 123 l 1,41,-1
 138 599 l 1,42,-1
 138 628 l 2,43,44
 138 660 138 660 123.5 667.5 c 128,-1,45
 109 675 109 675 48 675 c 2,46,-1
 30 675 l 1,47,-1
 30 722 l 1,48,-1
 359 722 l 1,49,-1
 359 675 l 1,50,-1
 340 675 l 2,51,52
 279 675 279 675 264.5 667.5 c 128,-1,53
 250 660 250 660 250 628 c 2,54,-1
 250 599 l 1,55,-1
 250 327 l 1,0,-1
EndSplineSet
EndChar

StartChar: L
Encoding: 76 76 47
Width: 667
GlyphClass: 2
Flags: W
LayerCount: 2
Fore
SplineSet
646 274 m 1,0,-1
 625 0 l 1,1,-1
 35 0 l 1,2,-1
 35 47 l 1,3,-1
 53 47 l 2,4,5
 114 47 114 47 128.5 54.5 c 128,-1,6
 143 62 143 62 143 94 c 2,7,-1
 143 123 l 1,8,-1
 143 599 l 1,9,-1
 143 628 l 2,10,11
 143 660 143 660 128.5 667.5 c 128,-1,12
 114 675 114 675 53 675 c 2,13,-1
 35 675 l 1,14,-1
 35 722 l 1,15,-1
 363 722 l 1,16,-1
 363 675 l 1,17,-1
 345 675 l 2,18,19
 284 675 284 675 269.5 667.5 c 128,-1,20
 255 660 255 660 255 628 c 2,21,-1
 255 599 l 1,22,-1
 255 95 l 2,23,24
 255 69 255 69 263 62 c 0,25,26
 278 47 278 47 327 47 c 2,27,-1
 369 47 l 2,28,29
 496 47 496 47 542 105 c 0,30,31
 585 160 585 160 602 274 c 1,32,-1
 646 274 l 1,0,-1
EndSplineSet
EndChar

StartChar: M
Encoding: 77 77 48
Width: 944
GlyphClass: 2
Flags: W
LayerCount: 2
Fore
SplineSet
287 722 m 1,0,-1
 479 189 l 1,1,-1
 662 722 l 1,2,-1
 913 722 l 1,3,-1
 913 675 l 1,4,-1
 895 675 l 2,5,6
 834 675 834 675 819.5 667.5 c 128,-1,7
 805 660 805 660 805 628 c 2,8,-1
 805 599 l 1,9,-1
 805 123 l 1,10,-1
 805 94 l 2,11,12
 805 62 805 62 819.5 54.5 c 128,-1,13
 834 47 834 47 895 47 c 2,14,-1
 913 47 l 1,15,-1
 913 0 l 1,16,-1
 585 0 l 1,17,-1
 585 47 l 1,18,-1
 603 47 l 2,19,20
 664 47 664 47 678.5 54.5 c 128,-1,21
 693 62 693 62 693 94 c 2,22,-1
 693 123 l 1,23,-1
 693 658 l 1,24,-1
 470 0 l 1,25,-1
 430 0 l 1,26,-1
 192 658 l 1,27,-1
 192 216 l 2,28,29
 192 114 192 114 214 82 c 128,-1,30
 236 50 236 50 307 47 c 1,31,-1
 307 0 l 1,32,-1
 22 0 l 1,33,-1
 22 47 l 1,34,35
 94 50 94 50 116 82 c 128,-1,36
 138 114 138 114 138 216 c 2,37,-1
 138 599 l 1,38,-1
 138 628 l 2,39,40
 138 660 138 660 123.5 667.5 c 128,-1,41
 109 675 109 675 48 675 c 2,42,-1
 29 675 l 1,43,-1
 29 722 l 1,44,-1
 287 722 l 1,0,-1
EndSplineSet
EndChar

StartChar: N
Encoding: 78 78 49
Width: 815
GlyphClass: 2
Flags: W
LayerCount: 2
Fore
SplineSet
225 722 m 1,0,-1
 624 191 l 1,1,-1
 624 505 l 2,2,3
 624 608 624 608 602 640 c 128,-1,4
 580 672 580 672 509 675 c 1,5,-1
 509 722 l 1,6,-1
 794 722 l 1,7,-1
 794 675 l 1,8,9
 722 672 722 672 700 640 c 128,-1,10
 678 608 678 608 678 505 c 2,11,-1
 678 -14 l 1,12,-1
 636 -14 l 1,13,-1
 190 588 l 1,14,-1
 190 217 l 2,15,16
 190 114 190 114 212 82 c 128,-1,17
 234 50 234 50 305 47 c 1,18,-1
 305 0 l 1,19,-1
 20 0 l 1,20,-1
 20 47 l 1,21,22
 92 50 92 50 114 82 c 128,-1,23
 136 114 136 114 136 217 c 2,24,-1
 136 642 l 1,25,26
 123 661 123 661 102.5 668 c 128,-1,27
 82 675 82 675 44 675 c 2,28,-1
 19 675 l 1,29,-1
 19 722 l 1,30,-1
 225 722 l 1,0,-1
EndSplineSet
EndChar

StartChar: O
Encoding: 79 79 50
Width: 778
GlyphClass: 2
Flags: W
LayerCount: 2
Fore
SplineSet
393 737 m 0,0,1
 537 737 537 737 635 628.5 c 128,-1,2
 733 520 733 520 733 361 c 0,3,4
 733 200 733 200 634.5 92.5 c 128,-1,5
 536 -15 536 -15 389 -15 c 0,6,7
 243 -15 243 -15 144 92.5 c 128,-1,8
 45 200 45 200 45 360 c 0,9,10
 45 445 45 445 77 522.5 c 128,-1,11
 109 600 109 600 167 653 c 0,12,13
 258 737 258 737 393 737 c 0,0,1
392 690 m 0,14,15
 282 690 282 690 227 604 c 0,16,17
 199 559 199 559 188 506 c 128,-1,18
 177 453 177 453 177 363 c 0,19,20
 177 270 177 270 188 217 c 128,-1,21
 199 164 199 164 227 118 c 0,22,23
 282 32 282 32 389 32 c 128,-1,24
 496 32 496 32 551 118 c 0,25,26
 579 163 579 163 590 216.5 c 128,-1,27
 601 270 601 270 601 361 c 128,-1,28
 601 452 601 452 590 506 c 128,-1,29
 579 560 579 560 551 604 c 0,30,31
 495 690 495 690 392 690 c 0,14,15
EndSplineSet
EndChar

StartChar: P
Encoding: 80 80 51
Width: 667
GlyphClass: 2
Flags: W
LayerCount: 2
Fore
SplineSet
248 321 m 1,0,-1
 248 123 l 1,1,-1
 248 94 l 2,2,3
 248 62 248 62 262.5 54.5 c 128,-1,4
 277 47 277 47 338 47 c 2,5,-1
 364 47 l 1,6,-1
 364 0 l 1,7,-1
 28 0 l 1,8,-1
 28 47 l 1,9,-1
 46 47 l 2,10,11
 107 47 107 47 121.5 54.5 c 128,-1,12
 136 62 136 62 136 94 c 2,13,-1
 136 123 l 1,14,-1
 136 599 l 1,15,-1
 136 628 l 2,16,17
 136 660 136 660 121.5 667.5 c 128,-1,18
 107 675 107 675 46 675 c 2,19,-1
 28 675 l 1,20,-1
 28 722 l 1,21,-1
 378 722 l 2,22,23
 488 722 488 722 548 691 c 0,24,25
 649 640 649 640 649 524 c 0,26,27
 649 465 649 465 620 418.5 c 128,-1,28
 591 372 591 372 538 347 c 0,29,30
 483 321 483 321 361 321 c 2,31,-1
 248 321 l 1,0,-1
248 368 m 1,32,-1
 369 368 l 2,33,34
 526 368 526 368 526 520 c 0,35,36
 526 599 526 599 488.5 637 c 128,-1,37
 451 675 451 675 373 675 c 2,38,-1
 309 675 l 2,39,40
 268 675 268 675 258 666.5 c 128,-1,41
 248 658 248 658 248 624 c 2,42,-1
 248 368 l 1,32,-1
EndSplineSet
EndChar

StartChar: Q
Encoding: 81 81 52
Width: 778
GlyphClass: 2
Flags: W
LayerCount: 2
Fore
SplineSet
703 -20 m 1,0,-1
 748 -20 l 1,1,2
 749 -99 749 -99 714.5 -144 c 128,-1,3
 680 -189 680 -189 620 -189 c 0,4,5
 558 -189 558 -189 522.5 -139.5 c 128,-1,6
 487 -90 487 -90 484 0 c 1,7,8
 439 -15 439 -15 395 -15 c 0,9,10
 249 -15 249 -15 147 94 c 128,-1,11
 45 203 45 203 45 360 c 0,12,13
 45 445 45 445 79 523 c 128,-1,14
 113 601 113 601 175 656 c 0,15,16
 265 737 265 737 388 737 c 0,17,18
 533 737 533 737 633.5 630 c 128,-1,19
 734 523 734 523 734 369 c 0,20,21
 734 174 734 174 576 43 c 1,22,23
 602 -39 602 -39 621.5 -73.5 c 128,-1,24
 641 -108 641 -108 663 -108 c 0,25,26
 682 -108 682 -108 690.5 -88 c 128,-1,27
 699 -68 699 -68 703 -20 c 1,0,-1
550 119 m 1,28,29
 579 166 579 166 590.5 220.5 c 128,-1,30
 602 275 602 275 602 363 c 0,31,32
 602 512 602 512 561 591 c 0,33,34
 538 637 538 637 492.5 663.5 c 128,-1,35
 447 690 447 690 390 690 c 0,36,37
 277 690 277 690 228 602 c 0,38,39
 177 510 177 510 177 360 c 0,40,41
 177 189 177 189 236 111 c 1,42,43
 235 119 235 119 235 129 c 0,44,45
 235 189 235 189 275.5 227 c 128,-1,46
 316 265 316 265 379 265 c 128,-1,47
 442 265 442 265 486.5 227 c 128,-1,48
 531 189 531 189 550 119 c 1,28,29
480 54 m 1,49,-1
 480 64 l 2,50,51
 480 138 480 138 452.5 178 c 128,-1,52
 425 218 425 218 374 218 c 0,53,54
 333 218 333 218 307 190.5 c 128,-1,55
 281 163 281 163 281 119 c 0,56,57
 281 78 281 78 308.5 55 c 128,-1,58
 336 32 336 32 386 32 c 0,59,60
 437 32 437 32 480 54 c 1,49,-1
EndSplineSet
EndChar

StartChar: R
Encoding: 82 82 53
Width: 722
GlyphClass: 2
Flags: W
LayerCount: 2
Fore
SplineSet
246 350 m 1,0,-1
 246 122 l 1,1,-1
 246 94 l 2,2,3
 246 62 246 62 260.5 54.5 c 128,-1,4
 275 47 275 47 336 47 c 2,5,-1
 354 47 l 1,6,-1
 354 0 l 1,7,-1
 26 0 l 1,8,-1
 26 47 l 1,9,-1
 44 47 l 2,10,11
 105 47 105 47 119.5 54.5 c 128,-1,12
 134 62 134 62 134 94 c 2,13,-1
 134 122 l 1,14,-1
 134 599 l 1,15,-1
 134 628 l 2,16,17
 134 660 134 660 119.5 667.5 c 128,-1,18
 105 675 105 675 44 675 c 2,19,-1
 26 675 l 1,20,-1
 26 722 l 1,21,-1
 372 722 l 2,22,23
 498 722 498 722 567 675 c 128,-1,24
 636 628 636 628 636 543 c 0,25,26
 636 394 636 394 423 364 c 1,27,28
 482 349 482 349 514 314 c 128,-1,29
 546 279 546 279 562 210 c 2,30,-1
 578 147 l 2,31,32
 591 95 591 95 601 78 c 128,-1,33
 611 61 611 61 628 61 c 0,34,35
 648 61 648 61 658 84.5 c 128,-1,36
 668 108 668 108 671 160 c 1,37,-1
 713 160 l 1,38,39
 711 70 711 70 681 27.5 c 128,-1,40
 651 -15 651 -15 589 -15 c 0,41,42
 530 -15 530 -15 500 22 c 128,-1,43
 470 59 470 59 461 144 c 2,44,-1
 456 195 l 2,45,46
 446 287 446 287 405 320 c 0,47,48
 368 350 368 350 304 350 c 2,49,-1
 246 350 l 1,0,-1
246 397 m 1,50,-1
 356 397 l 2,51,52
 434 397 434 397 474 431 c 0,53,54
 513 462 513 462 513 542 c 0,55,56
 513 610 513 610 478 642.5 c 128,-1,57
 443 675 443 675 369 675 c 2,58,-1
 315 675 l 2,59,60
 266 675 266 675 257 668 c 0,61,62
 249 662 249 662 247.5 654.5 c 128,-1,63
 246 647 246 647 246 617 c 2,64,-1
 246 397 l 1,50,-1
EndSplineSet
EndChar

StartChar: S
Encoding: 83 83 54
Width: 630
GlyphClass: 2
Flags: W
LayerCount: 2
Fore
SplineSet
546 728 m 1,0,-1
 558 468 l 1,1,-1
 515 468 l 1,2,3
 495 545 495 545 455 602 c 0,4,5
 394 689 394 689 288 689 c 0,6,7
 224 689 224 689 185 656.5 c 128,-1,8
 146 624 146 624 146 571 c 0,9,10
 146 482 146 482 277 448 c 2,11,-1
 384 421 l 2,12,13
 493 394 493 394 530 358 c 0,14,15
 590 300 590 300 590 205 c 0,16,17
 590 104 590 104 524.5 44.5 c 128,-1,18
 459 -15 459 -15 349 -15 c 0,19,20
 284 -15 284 -15 236.5 2 c 128,-1,21
 189 19 189 19 139 60 c 1,22,-1
 94 -8 l 1,23,-1
 55 -8 l 1,24,-1
 51 277 l 1,25,-1
 94 277 l 1,26,27
 115 170 115 170 172 106 c 0,28,29
 240 31 240 31 346 31 c 0,30,31
 421 31 421 31 467 71 c 0,32,33
 512 111 512 111 512 171 c 128,-1,34
 512 231 512 231 466 266 c 0,35,36
 451 278 451 278 436 283 c 128,-1,37
 421 288 421 288 364 303 c 2,38,-1
 269 327 l 2,39,40
 159 355 159 355 113.5 400.5 c 128,-1,41
 68 446 68 446 68 528 c 0,42,43
 68 622 68 622 128.5 679.5 c 128,-1,44
 189 737 189 737 287 737 c 0,45,46
 397 737 397 737 469 668 c 1,47,-1
 509 728 l 1,48,-1
 546 728 l 1,0,-1
EndSplineSet
EndChar

StartChar: T
Encoding: 84 84 55
Width: 667
GlyphClass: 2
Flags: W
LayerCount: 2
Fore
SplineSet
633 722 m 1,0,-1
 648 444 l 1,1,-1
 605 444 l 1,2,3
 593 529 593 529 572 581 c 0,4,5
 553 626 553 626 518 650.5 c 128,-1,6
 483 675 483 675 437 675 c 0,7,8
 390 675 390 675 390 639 c 2,9,-1
 390 123 l 1,10,-1
 390 94 l 2,11,12
 390 62 390 62 404.5 54.5 c 128,-1,13
 419 47 419 47 479 47 c 2,14,-1
 505 47 l 1,15,-1
 505 0 l 1,16,-1
 162 0 l 1,17,-1
 162 47 l 1,18,-1
 188 47 l 2,19,20
 249 47 249 47 263.5 54.5 c 128,-1,21
 278 62 278 62 278 94 c 2,22,-1
 278 123 l 1,23,-1
 278 639 l 2,24,25
 278 675 278 675 231 675 c 0,26,27
 129 675 129 675 89 564 c 0,28,29
 72 514 72 514 62 444 c 1,30,-1
 19 444 l 1,31,-1
 34 722 l 1,32,-1
 633 722 l 1,0,-1
EndSplineSet
EndChar

StartChar: U
Encoding: 85 85 56
Width: 815
GlyphClass: 2
Flags: W
LayerCount: 2
Fore
SplineSet
683 505 m 2,0,-1
 683 278 l 2,1,2
 683 153 683 153 639 90 c 0,3,4
 568 -15 568 -15 400 -15 c 0,5,6
 225 -15 225 -15 153 88 c 0,7,8
 127 126 127 126 123 201 c 1,9,-1
 123 270 l 1,10,-1
 123 599 l 1,11,-1
 123 628 l 2,12,13
 123 660 123 660 108.5 667.5 c 128,-1,14
 94 675 94 675 34 675 c 2,15,-1
 17 675 l 1,16,-1
 17 722 l 1,17,-1
 344 722 l 1,18,-1
 344 675 l 1,19,-1
 325 675 l 2,20,21
 264 675 264 675 249.5 667.5 c 128,-1,22
 235 660 235 660 235 628 c 2,23,-1
 235 599 l 1,24,-1
 235 264 l 2,25,26
 235 194 235 194 241 166 c 128,-1,27
 247 138 247 138 267 110 c 0,28,29
 319 39 319 39 427 39 c 0,30,31
 488 39 488 39 534.5 64.5 c 128,-1,32
 581 90 581 90 605 137 c 0,33,34
 619 163 619 163 624 193.5 c 128,-1,35
 629 224 629 224 629 284 c 2,36,-1
 629 505 l 2,37,38
 629 608 629 608 607 640 c 128,-1,39
 585 672 585 672 514 675 c 1,40,-1
 514 722 l 1,41,-1
 799 722 l 1,42,-1
 799 675 l 1,43,44
 727 672 727 672 705 640 c 128,-1,45
 683 608 683 608 683 505 c 2,0,-1
EndSplineSet
EndChar

StartChar: V
Encoding: 86 86 57
Width: 722
GlyphClass: 2
Flags: W
LayerCount: 2
Fore
SplineSet
393 155 m 1,0,-1
 548 567 l 2,1,2
 560 600 560 600 560 623 c 0,3,4
 560 647 560 647 538.5 661 c 128,-1,5
 517 675 517 675 479 675 c 2,6,-1
 460 675 l 1,7,-1
 460 722 l 1,8,-1
 731 722 l 1,9,-1
 731 675 l 1,10,-1
 721 675 l 2,11,12
 678 675 678 675 656.5 655.5 c 128,-1,13
 635 636 635 636 612 577 c 2,14,-1
 382 -15 l 1,15,-1
 342 -15 l 1,16,-1
 89 619 l 2,17,18
 75 654 75 654 60.5 664.5 c 128,-1,19
 46 675 46 675 12 675 c 2,20,-1
 -8 675 l 1,21,-1
 -8 722 l 1,22,-1
 304 722 l 1,23,-1
 304 675 l 1,24,-1
 264 675 l 2,25,26
 202 675 202 675 202 650 c 0,27,28
 202 639 202 639 210 620 c 2,29,-1
 393 155 l 1,0,-1
EndSplineSet
EndChar

StartChar: W
Encoding: 87 87 58
Width: 981
GlyphClass: 2
Flags: W
LayerCount: 2
Fore
SplineSet
349 182 m 1,0,-1
 465 566 l 1,1,-1
 439 644 l 2,2,3
 433 662 433 662 420 668.5 c 128,-1,4
 407 675 407 675 376 675 c 2,5,-1
 353 675 l 1,6,-1
 353 722 l 1,7,-1
 642 722 l 1,8,-1
 642 675 l 1,9,-1
 626 675 l 2,10,11
 583 675 583 675 569 670 c 0,12,13
 554 663 554 663 554 648 c 0,14,15
 554 642 554 642 561 620 c 2,16,-1
 699 182 l 1,17,-1
 819 588 l 2,18,19
 825 604 825 604 825 623 c 0,20,21
 825 675 825 675 739 675 c 2,22,-1
 731 675 l 1,23,-1
 731 722 l 1,24,-1
 976 722 l 1,25,-1
 976 675 l 1,26,-1
 972 675 l 2,27,28
 922 675 922 675 898 639 c 0,29,30
 884 619 884 619 871 572 c 2,31,-1
 695 -15 l 1,32,-1
 654 -15 l 1,33,-1
 492 482 l 1,34,-1
 344 -15 l 1,35,-1
 301 -15 l 1,36,-1
 85 636 l 2,37,38
 76 662 76 662 66 668.5 c 128,-1,39
 56 675 56 675 25 675 c 2,40,-1
 6 675 l 1,41,-1
 6 722 l 1,42,-1
 288 722 l 1,43,-1
 288 675 l 1,44,-1
 243 675 l 2,45,46
 200 675 200 675 200 655 c 0,47,48
 200 645 200 645 205 630 c 2,49,-1
 349 182 l 1,0,-1
EndSplineSet
EndChar

StartChar: X
Encoding: 88 88 59
Width: 704
GlyphClass: 2
Flags: W
LayerCount: 2
Fore
SplineSet
389 400 m 1,0,-1
 599 99 l 2,1,2
 624 62 624 62 640 54.5 c 128,-1,3
 656 47 656 47 704 47 c 2,4,-1
 716 47 l 1,5,-1
 716 0 l 1,6,-1
 388 0 l 1,7,-1
 388 47 l 1,8,-1
 416 47 l 2,9,10
 463 48 463 48 473 50.5 c 128,-1,11
 483 53 483 53 483 65 c 0,12,13
 483 76 483 76 470 96 c 2,14,-1
 321 307 l 1,15,-1
 205 139 l 2,16,17
 189 115 189 115 189 95 c 0,18,19
 189 73 189 73 206.5 60 c 128,-1,20
 224 47 224 47 254 47 c 2,21,-1
 279 47 l 1,22,-1
 279 0 l 1,23,-1
 -5 0 l 1,24,-1
 -5 47 l 1,25,-1
 -1 47 l 2,26,27
 74 47 74 47 130 127 c 2,28,-1
 292 352 l 1,29,-1
 95 637 l 2,30,31
 78 662 78 662 63 668.5 c 128,-1,32
 48 675 48 675 11 675 c 2,33,-1
 -6 675 l 1,34,-1
 -6 722 l 1,35,-1
 303 722 l 1,36,-1
 303 675 l 1,37,-1
 265 675 l 2,38,39
 217 675 217 675 217 662 c 0,40,41
 217 653 217 653 228 637 c 2,42,-1
 361 445 l 1,43,-1
 469 602 l 2,44,45
 483 622 483 622 483 636 c 0,46,47
 483 675 483 675 414 675 c 2,48,-1
 400 675 l 1,49,-1
 400 722 l 1,50,-1
 675 722 l 1,51,-1
 675 675 l 1,52,-1
 659 675 l 2,53,54
 619 675 619 675 591.5 656 c 128,-1,55
 564 637 564 637 522 581 c 2,56,-1
 389 400 l 1,0,-1
EndSplineSet
EndChar

StartChar: Y
Encoding: 89 89 60
Width: 704
GlyphClass: 2
Flags: W
LayerCount: 2
Fore
SplineSet
389 357 m 1,0,-1
 513 578 l 2,1,2
 530 609 530 609 530 630 c 0,3,4
 530 654 530 654 511.5 664.5 c 128,-1,5
 493 675 493 675 452 675 c 2,6,-1
 429 675 l 1,7,-1
 429 722 l 1,8,-1
 713 722 l 1,9,-1
 713 675 l 1,10,-1
 705 675 l 2,11,12
 654 675 654 675 617 641 c 0,13,14
 597 621 597 621 567 568 c 2,15,-1
 418 299 l 1,16,-1
 418 123 l 1,17,-1
 418 94 l 2,18,19
 418 62 418 62 432 54.5 c 128,-1,20
 446 47 446 47 507 47 c 2,21,-1
 533 47 l 1,22,-1
 533 0 l 1,23,-1
 190 0 l 1,24,-1
 190 47 l 1,25,-1
 216 47 l 2,26,27
 277 47 277 47 291.5 54.5 c 128,-1,28
 306 62 306 62 306 94 c 2,29,-1
 306 123 l 1,30,-1
 306 287 l 1,31,-1
 90 629 l 2,32,33
 73 657 73 657 57 666 c 128,-1,34
 41 675 41 675 9 675 c 2,35,-1
 -13 675 l 1,36,-1
 -13 722 l 1,37,-1
 308 722 l 1,38,-1
 308 675 l 1,39,-1
 249 675 l 2,40,41
 210 675 210 675 210 656 c 0,42,43
 210 644 210 644 221 628 c 2,44,-1
 389 357 l 1,0,-1
EndSplineSet
EndChar

StartChar: Z
Encoding: 90 90 61
Width: 611
GlyphClass: 2
Flags: W
LayerCount: 2
Fore
SplineSet
569 722 m 1,0,-1
 569 686 l 1,1,-1
 158 47 l 1,2,-1
 324 47 l 2,3,4
 429 47 429 47 468 99 c 0,5,6
 509 149 509 149 528 278 c 1,7,-1
 575 278 l 1,8,-1
 557 0 l 1,9,-1
 24 0 l 1,10,-1
 24 36 l 1,11,-1
 433 675 l 1,12,-1
 303 675 l 2,13,14
 202 675 202 675 162 634.5 c 128,-1,15
 122 594 122 594 98 469 c 1,16,-1
 53 469 l 1,17,-1
 73 722 l 1,18,-1
 569 722 l 1,0,-1
EndSplineSet
EndChar

StartChar: bracketleft
Encoding: 91 91 62
Width: 333
GlyphClass: 2
Flags: W
LayerCount: 2
Fore
SplineSet
156 -72 m 1,0,-1
 297 -72 l 1,1,-1
 297 -108 l 1,2,-1
 66 -108 l 1,3,-1
 66 722 l 1,4,-1
 297 722 l 1,5,-1
 297 685 l 1,6,-1
 156 685 l 1,7,-1
 156 -72 l 1,0,-1
EndSplineSet
EndChar

StartChar: backslash
Encoding: 92 92 63
Width: 606
GlyphClass: 2
Flags: W
LayerCount: 2
Fore
SplineSet
132 737 m 1,0,-1
 532 0 l 1,1,-1
 474 0 l 1,2,-1
 74 737 l 1,3,-1
 132 737 l 1,0,-1
EndSplineSet
EndChar

StartChar: bracketright
Encoding: 93 93 64
Width: 333
GlyphClass: 2
Flags: W
LayerCount: 2
Fore
SplineSet
176 686 m 1,0,-1
 36 686 l 1,1,-1
 36 722 l 1,2,-1
 266 722 l 1,3,-1
 266 -108 l 1,4,-1
 36 -108 l 1,5,-1
 36 -71 l 1,6,-1
 176 -71 l 1,7,-1
 176 686 l 1,0,-1
EndSplineSet
EndChar

StartChar: asciicircum
Encoding: 94 94 65
Width: 606
GlyphClass: 2
Flags: W
LayerCount: 2
Fore
SplineSet
554 318 m 1,0,-1
 467 318 l 1,1,-1
 304 629 l 1,2,-1
 139 318 l 1,3,-1
 52 318 l 1,4,-1
 261 722 l 1,5,-1
 346 722 l 1,6,-1
 554 318 l 1,0,-1
EndSplineSet
EndChar

StartChar: underscore
Encoding: 95 95 66
Width: 500
GlyphClass: 2
Flags: W
LayerCount: 2
Fore
SplineSet
0 -73 m 1,0,-1
 500 -73 l 1,1,-1
 500 -134 l 1,2,-1
 0 -134 l 1,3,-1
 0 -73 l 1,0,-1
EndSplineSet
EndChar

StartChar: grave
Encoding: 96 96 67
Width: 333
GlyphClass: 2
Flags: W
LayerCount: 2
Fore
SplineSet
242 535 m 1,0,-1
 201 535 l 1,1,-1
 42 632 l 2,2,3
 17 649 17 649 17 671 c 0,4,5
 17 686 17 686 27 696 c 128,-1,6
 37 706 37 706 52 706 c 0,7,8
 71 706 71 706 102 675 c 2,9,-1
 242 535 l 1,0,-1
EndSplineSet
EndChar

StartChar: a
Encoding: 97 97 68
Width: 556
GlyphClass: 2
Flags: W
LayerCount: 2
Fore
SplineSet
452 322 m 2,0,-1
 452 121 l 2,1,2
 452 83 452 83 460.5 67.5 c 128,-1,3
 469 52 469 52 490 52 c 0,4,5
 499 52 499 52 518 59 c 0,6,7
 527 63 527 63 533 63 c 0,8,9
 543 63 543 63 543 51 c 0,10,11
 543 29 543 29 514 11 c 128,-1,12
 485 -7 485 -7 451 -7 c 0,13,14
 416 -7 416 -7 395.5 9.5 c 128,-1,15
 375 26 375 26 363 64 c 1,16,17
 296 -15 296 -15 189 -15 c 0,18,19
 123 -15 123 -15 83.5 17 c 128,-1,20
 44 49 44 49 44 102 c 0,21,22
 44 196 44 196 172 244 c 0,23,24
 233 268 233 268 358 289 c 1,25,-1
 358 328 l 2,26,27
 358 391 358 391 332 413 c 0,28,29
 305 438 305 438 250 438 c 0,30,31
 214 438 214 438 187.5 426.5 c 128,-1,32
 161 415 161 415 161 399 c 0,33,34
 161 394 161 394 168 386 c 0,35,36
 183 365 183 365 183 345 c 0,37,38
 183 323 183 323 167.5 308.5 c 128,-1,39
 152 294 152 294 129 294 c 0,40,41
 103 294 103 294 87 311 c 128,-1,42
 71 328 71 328 71 356 c 0,43,44
 71 410 71 410 126.5 445.5 c 128,-1,45
 182 481 182 481 266 481 c 0,46,47
 361 481 361 481 412 441 c 0,48,49
 452 408 452 408 452 322 c 2,0,-1
358 200 m 2,50,-1
 358 246 l 1,51,52
 253 229 253 229 210 209 c 0,53,54
 145 178 145 178 145 116 c 0,55,56
 145 82 145 82 167.5 60 c 128,-1,57
 190 38 190 38 224 38 c 0,58,59
 256 38 256 38 287.5 55 c 128,-1,60
 319 72 319 72 338 100 c 0,61,62
 351 120 351 120 354.5 137.5 c 128,-1,63
 358 155 358 155 358 200 c 2,50,-1
EndSplineSet
EndChar

StartChar: b
Encoding: 98 98 69
Width: 556
GlyphClass: 2
Flags: W
LayerCount: 2
Fore
SplineSet
180 737 m 1,0,-1
 180 403 l 1,1,2
 208 446 208 446 239 463.5 c 128,-1,3
 270 481 270 481 316 481 c 0,4,5
 406 481 406 481 463 412.5 c 128,-1,6
 520 344 520 344 520 236 c 128,-1,7
 520 128 520 128 458.5 56.5 c 128,-1,8
 397 -15 397 -15 305 -15 c 0,9,10
 215 -15 215 -15 155 64 c 1,11,-1
 106 -14 l 1,12,-1
 68 -14 l 1,13,14
 86 68 86 68 86 244 c 2,15,-1
 86 633 l 2,16,17
 86 665 86 665 78.5 674 c 128,-1,18
 71 683 71 683 43 683 c 2,19,-1
 8 683 l 1,20,-1
 8 726 l 1,21,-1
 180 737 l 1,0,-1
298 430 m 0,22,23
 238 430 238 430 206.5 377 c 128,-1,24
 175 324 175 324 175 224 c 0,25,26
 175 132 175 132 208.5 80 c 128,-1,27
 242 28 242 28 301 28 c 0,28,29
 356 28 356 28 385.5 79.5 c 128,-1,30
 415 131 415 131 415 226 c 0,31,32
 415 324 415 324 384.5 377 c 128,-1,33
 354 430 354 430 298 430 c 0,22,23
EndSplineSet
EndChar

StartChar: c
Encoding: 99 99 70
Width: 444
GlyphClass: 2
Flags: W
LayerCount: 2
Fore
SplineSet
387 147 m 1,0,-1
 426 132 l 1,1,2
 394 52 394 52 352 18.5 c 128,-1,3
 310 -15 310 -15 243 -15 c 0,4,5
 150 -15 150 -15 92 51.5 c 128,-1,6
 34 118 34 118 34 225 c 0,7,8
 34 337 34 337 97 409 c 128,-1,9
 160 481 160 481 257 481 c 0,10,11
 324 481 324 481 368.5 446.5 c 128,-1,12
 413 412 413 412 413 362 c 0,13,14
 413 332 413 332 395.5 313 c 128,-1,15
 378 294 378 294 352 294 c 128,-1,16
 326 294 326 294 309 309.5 c 128,-1,17
 292 325 292 325 292 350 c 0,18,19
 292 372 292 372 312 396 c 0,20,21
 318 405 318 405 318 408 c 0,22,23
 318 420 318 420 301 429 c 128,-1,24
 284 438 284 438 262 438 c 0,25,26
 207 438 207 438 173 382.5 c 128,-1,27
 139 327 139 327 139 236 c 0,28,29
 139 148 139 148 174 97 c 128,-1,30
 209 46 209 46 269 46 c 0,31,32
 308 46 308 46 335.5 69.5 c 128,-1,33
 363 93 363 93 387 147 c 1,0,-1
EndSplineSet
EndChar

StartChar: d
Encoding: 100 100 71
Width: 574
GlyphClass: 2
Flags: W
LayerCount: 2
Fore
SplineSet
380 -7 m 1,0,-1
 380 72 l 1,1,2
 334 -15 334 -15 242 -15 c 0,3,4
 155 -15 155 -15 99 53.5 c 128,-1,5
 43 122 43 122 43 228 c 0,6,7
 43 336 43 336 100 408.5 c 128,-1,8
 157 481 157 481 242 481 c 0,9,10
 326 481 326 481 380 407 c 1,11,-1
 380 633 l 2,12,13
 380 665 380 665 372 674 c 128,-1,14
 364 683 364 683 337 683 c 2,15,-1
 278 683 l 1,16,-1
 278 726 l 1,17,-1
 474 737 l 1,18,-1
 474 116 l 2,19,20
 474 69 474 69 485 56 c 128,-1,21
 496 43 496 43 536 43 c 2,22,-1
 554 43 l 1,23,-1
 554 0 l 1,24,-1
 380 -7 l 1,0,-1
262 427 m 128,-1,26
 231 427 231 427 205.5 407 c 128,-1,27
 180 387 180 387 167 354 c 0,28,29
 148 304 148 304 148 216 c 0,30,31
 148 133 148 133 178 86 c 128,-1,32
 208 39 208 39 261 39 c 0,33,34
 315 39 315 39 347 91.5 c 128,-1,35
 379 144 379 144 379 231 c 0,36,37
 379 304 379 304 360 351 c 0,38,39
 347 385 347 385 320 406 c 128,-1,25
 293 427 293 427 262 427 c 128,-1,26
EndSplineSet
EndChar

StartChar: e
Encoding: 101 101 72
Width: 500
GlyphClass: 2
Flags: W
LayerCount: 2
Fore
SplineSet
465 225 m 1,0,-1
 141 225 l 1,1,2
 140 149 140 149 166 105 c 0,3,4
 205 39 205 39 280 39 c 0,5,6
 330 39 330 39 364.5 63.5 c 128,-1,7
 399 88 399 88 430 146 c 1,8,-1
 465 127 l 1,9,10
 404 -15 404 -15 261 -15 c 0,11,12
 160 -15 160 -15 97.5 50 c 128,-1,13
 35 115 35 115 35 220 c 0,14,15
 35 332 35 332 99 406.5 c 128,-1,16
 163 481 163 481 259 481 c 0,17,18
 350 481 350 481 408 409.5 c 128,-1,19
 466 338 466 338 465 225 c 1,0,-1
142 268 m 1,20,-1
 317 268 l 2,21,22
 341 268 341 268 349.5 275.5 c 128,-1,23
 358 283 358 283 358 305 c 0,24,25
 358 365 358 365 330.5 401.5 c 128,-1,26
 303 438 303 438 257 438 c 0,27,28
 187 438 187 438 156 349 c 0,29,30
 142 310 142 310 142 268 c 1,20,-1
EndSplineSet
EndChar

StartChar: f
Encoding: 102 102 73
Width: 333
GlyphClass: 2
Flags: W
LayerCount: 2
Fore
SplineSet
201 466 m 1,0,-1
 311 466 l 1,1,-1
 311 423 l 1,2,-1
 201 423 l 1,3,-1
 201 123 l 1,4,-1
 201 83 l 2,5,6
 201 53 201 53 214.5 44.5 c 128,-1,7
 228 36 228 36 277 36 c 2,8,-1
 295 36 l 1,9,-1
 295 0 l 1,10,-1
 28 0 l 1,11,-1
 28 36 l 1,12,-1
 32 36 l 2,13,14
 80 36 80 36 93.5 44.5 c 128,-1,15
 107 53 107 53 107 83 c 2,16,-1
 107 123 l 1,17,-1
 107 423 l 1,18,-1
 19 423 l 1,19,-1
 19 466 l 1,20,-1
 107 466 l 1,21,-1
 107 497 l 2,22,23
 107 558 107 558 116 595 c 128,-1,24
 125 632 125 632 147 663 c 0,25,26
 200 737 200 737 302 737 c 0,27,28
 363 737 363 737 398 712 c 128,-1,29
 433 687 433 687 433 643 c 0,30,31
 433 616 433 616 417.5 599 c 128,-1,32
 402 582 402 582 377 582 c 0,33,34
 354 582 354 582 338 597.5 c 128,-1,35
 322 613 322 613 322 635 c 0,36,37
 322 652 322 652 331 667 c 0,38,39
 337 677 337 677 337 680 c 0,40,41
 337 697 337 697 303 697 c 0,42,43
 273 697 273 697 248.5 678 c 128,-1,44
 224 659 224 659 212 626 c 0,45,46
 201 598 201 598 201 523 c 2,47,-1
 201 466 l 1,0,-1
EndSplineSet
EndChar

StartChar: g
Encoding: 103 103 74
Width: 537
GlyphClass: 2
Flags: W
LayerCount: 2
Fore
SplineSet
196 74 m 2,0,-1
 298 74 l 2,1,2
 389 74 389 74 425 60 c 0,3,4
 453 49 453 49 469 20.5 c 128,-1,5
 485 -8 485 -8 485 -45 c 0,6,7
 485 -203 485 -203 234 -203 c 0,8,9
 133 -203 133 -203 78 -176 c 128,-1,10
 23 -149 23 -149 23 -100 c 0,11,12
 23 -38 23 -38 115 -5 c 1,13,14
 48 18 48 18 48 81 c 0,15,16
 48 122 48 122 70.5 146 c 128,-1,17
 93 170 93 170 143 181 c 1,18,19
 104 199 104 199 81.5 235 c 128,-1,20
 59 271 59 271 59 315 c 0,21,22
 59 390 59 390 113 435.5 c 128,-1,23
 167 481 167 481 256 481 c 0,24,25
 323 481 323 481 380 443 c 1,26,27
 415 475 415 475 433.5 485 c 128,-1,28
 452 495 452 495 476 495 c 0,29,30
 505 495 505 495 523.5 479 c 128,-1,31
 542 463 542 463 542 437 c 0,32,33
 542 417 542 417 529 403 c 128,-1,34
 516 389 516 389 497 389 c 0,35,36
 458 389 458 389 452 426 c 0,37,38
 449 440 449 440 442 440 c 0,39,40
 431 440 431 440 408 416 c 1,41,42
 445 372 445 372 445 318 c 0,43,44
 445 215 445 215 351 173 c 0,45,46
 326 162 326 162 302.5 158.5 c 128,-1,47
 279 155 279 155 208 154 c 0,48,49
 158 153 158 153 136 142.5 c 128,-1,50
 114 132 114 132 114 109 c 0,51,52
 114 90 114 90 126 83 c 0,53,54
 140 75 140 75 196 74 c 2,0,-1
255 438 m 0,55,56
 205 438 205 438 177.5 405.5 c 128,-1,57
 150 373 150 373 150 314 c 0,58,59
 150 258 150 258 177 225 c 128,-1,60
 204 192 204 192 251 192 c 0,61,62
 299 192 299 192 326 225 c 128,-1,63
 353 258 353 258 353 317 c 0,64,65
 353 375 353 375 327.5 406.5 c 128,-1,66
 302 438 302 438 255 438 c 0,55,56
246 -12 m 2,67,-1
 172 -12 l 1,68,69
 136 -31 136 -31 121 -49 c 128,-1,70
 106 -67 106 -67 106 -92 c 0,71,72
 106 -126 106 -126 140.5 -144 c 128,-1,73
 175 -162 175 -162 238 -162 c 0,74,75
 322 -162 322 -162 368.5 -138.5 c 128,-1,76
 415 -115 415 -115 415 -72 c 0,77,78
 415 -48 415 -48 397.5 -32.5 c 128,-1,79
 380 -17 380 -17 350 -14 c 0,80,81
 335 -12 335 -12 246 -12 c 2,67,-1
EndSplineSet
EndChar

StartChar: h
Encoding: 104 104 75
Width: 611
GlyphClass: 2
Flags: W
LayerCount: 2
Fore
SplineSet
200 737 m 1,0,-1
 200 384 l 1,1,2
 265 481 265 481 358 481 c 0,3,4
 403 481 403 481 438.5 460.5 c 128,-1,5
 474 440 474 440 493 404 c 0,6,7
 506 379 506 379 510 356.5 c 128,-1,8
 514 334 514 334 514 280 c 2,9,-1
 514 123 l 1,10,-1
 514 83 l 2,11,12
 514 53 514 53 527.5 44.5 c 128,-1,13
 541 36 541 36 589 36 c 2,14,-1
 593 36 l 1,15,-1
 593 0 l 1,16,-1
 340 0 l 1,17,-1
 340 36 l 1,18,-1
 344 36 l 2,19,20
 393 36 393 36 406.5 44.5 c 128,-1,21
 420 53 420 53 420 83 c 2,22,-1
 420 123 l 1,23,-1
 420 284 l 2,24,25
 420 353 420 353 398 385 c 0,26,27
 387 400 387 400 366.5 410 c 128,-1,28
 346 420 346 420 327 420 c 0,29,30
 295 420 295 420 264.5 399 c 128,-1,31
 234 378 234 378 218 344 c 0,32,33
 200 306 200 306 200 226 c 2,34,-1
 200 123 l 1,35,-1
 200 83 l 2,36,37
 200 53 200 53 213.5 44.5 c 128,-1,38
 227 36 227 36 276 36 c 2,39,-1
 280 36 l 1,40,-1
 280 0 l 1,41,-1
 27 0 l 1,42,-1
 27 36 l 1,43,-1
 31 36 l 2,44,45
 79 36 79 36 92.5 44.5 c 128,-1,46
 106 53 106 53 106 83 c 2,47,-1
 106 123 l 1,48,-1
 106 633 l 2,49,50
 106 665 106 665 98.5 674 c 128,-1,51
 91 683 91 683 63 683 c 2,52,-1
 15 683 l 1,53,-1
 15 726 l 1,54,-1
 200 737 l 1,0,-1
EndSplineSet
EndChar

StartChar: i
Encoding: 105 105 76
Width: 315
GlyphClass: 2
Flags: W
LayerCount: 2
Fore
SplineSet
206 466 m 1,0,-1
 206 123 l 1,1,-1
 206 83 l 2,2,3
 206 53 206 53 219.5 44.5 c 128,-1,4
 233 36 233 36 282 36 c 2,5,-1
 289 36 l 1,6,-1
 289 0 l 1,7,-1
 30 0 l 1,8,-1
 30 36 l 1,9,-1
 37 36 l 2,10,11
 85 36 85 36 98.5 44.5 c 128,-1,12
 112 53 112 53 112 83 c 2,13,-1
 112 123 l 1,14,-1
 112 362 l 2,15,16
 112 394 112 394 104.5 403 c 128,-1,17
 97 412 97 412 69 412 c 2,18,-1
 18 412 l 1,19,-1
 18 455 l 1,20,-1
 206 466 l 1,0,-1
159 715 m 128,-1,22
 183 715 183 715 200 698 c 128,-1,23
 217 681 217 681 217 657 c 128,-1,24
 217 633 217 633 200 616 c 128,-1,25
 183 599 183 599 158 599 c 0,26,27
 135 599 135 599 118 616.5 c 128,-1,28
 101 634 101 634 101 657 c 0,29,30
 101 681 101 681 118 698 c 128,-1,21
 135 715 135 715 159 715 c 128,-1,22
EndSplineSet
EndChar

StartChar: j
Encoding: 106 106 77
Width: 296
GlyphClass: 2
Flags: W
LayerCount: 2
Fore
SplineSet
207 466 m 1,0,-1
 207 71 l 2,1,2
 207 -14 207 -14 198 -59 c 128,-1,3
 189 -104 189 -104 166 -137 c 0,4,5
 119 -202 119 -202 30 -202 c 0,6,7
 -20 -202 -20 -202 -51 -179.5 c 128,-1,8
 -82 -157 -82 -157 -82 -120 c 0,9,10
 -82 -94 -82 -94 -66 -77 c 128,-1,11
 -50 -60 -50 -60 -26 -60 c 0,12,13
 -5 -60 -5 -60 10.5 -74 c 128,-1,14
 26 -88 26 -88 26 -107 c 0,15,16
 26 -116 26 -116 19 -131 c 0,17,18
 14 -144 14 -144 14 -147 c 0,19,20
 14 -160 14 -160 39 -160 c 0,21,22
 55 -160 55 -160 71 -150 c 128,-1,23
 87 -140 87 -140 94 -125 c 0,24,25
 113 -86 113 -86 113 23 c 2,26,-1
 113 362 l 2,27,28
 113 394 113 394 105.5 403 c 128,-1,29
 98 412 98 412 70 412 c 2,30,-1
 12 412 l 1,31,-1
 12 455 l 1,32,-1
 207 466 l 1,0,-1
160 715 m 128,-1,34
 184 715 184 715 201 698 c 128,-1,35
 218 681 218 681 218 657 c 128,-1,36
 218 633 218 633 201 616 c 128,-1,37
 184 599 184 599 159 599 c 0,38,39
 136 599 136 599 119 616.5 c 128,-1,40
 102 634 102 634 102 657 c 0,41,42
 102 681 102 681 119 698 c 128,-1,33
 136 715 136 715 160 715 c 128,-1,34
EndSplineSet
EndChar

StartChar: k
Encoding: 107 107 78
Width: 593
GlyphClass: 2
Flags: W
LayerCount: 2
Fore
SplineSet
199 242 m 1,0,-1
 334 372 l 2,1,2
 357 395 357 395 357 411 c 0,3,4
 357 430 357 430 310 430 c 2,5,-1
 279 430 l 1,6,-1
 279 466 l 1,7,-1
 542 466 l 1,8,-1
 542 430 l 1,9,10
 491 424 491 424 453.5 405 c 128,-1,11
 416 386 416 386 373 343 c 2,12,-1
 328 299 l 1,13,-1
 470 105 l 2,14,15
 501 66 501 66 523 53 c 128,-1,16
 545 40 545 40 587 36 c 1,17,-1
 587 0 l 1,18,-1
 323 0 l 1,19,-1
 323 36 l 1,20,-1
 342 36 l 2,21,22
 386 36 386 36 386 53 c 0,23,24
 386 59 386 59 379 71 c 2,25,-1
 260 238 l 1,26,-1
 199 180 l 1,27,-1
 199 123 l 1,28,-1
 199 83 l 2,29,30
 199 53 199 53 212.5 44.5 c 128,-1,31
 226 36 226 36 275 36 c 2,32,-1
 279 36 l 1,33,-1
 279 0 l 1,34,-1
 26 0 l 1,35,-1
 26 36 l 1,36,-1
 30 36 l 2,37,38
 78 36 78 36 91.5 44.5 c 128,-1,39
 105 53 105 53 105 83 c 2,40,-1
 105 123 l 1,41,-1
 105 633 l 2,42,43
 105 665 105 665 97.5 674 c 128,-1,44
 90 683 90 683 62 683 c 2,45,-1
 14 683 l 1,46,-1
 14 726 l 1,47,-1
 199 737 l 1,48,-1
 199 242 l 1,0,-1
EndSplineSet
EndChar

StartChar: l
Encoding: 108 108 79
Width: 315
GlyphClass: 2
Flags: W
LayerCount: 2
Fore
SplineSet
204 737 m 1,0,-1
 204 123 l 1,1,-1
 204 83 l 2,2,3
 204 53 204 53 217.5 44.5 c 128,-1,4
 231 36 231 36 280 36 c 2,5,-1
 287 36 l 1,6,-1
 287 0 l 1,7,-1
 28 0 l 1,8,-1
 28 36 l 1,9,-1
 35 36 l 2,10,11
 83 36 83 36 96.5 44.5 c 128,-1,12
 110 53 110 53 110 83 c 2,13,-1
 110 123 l 1,14,-1
 110 633 l 2,15,16
 110 665 110 665 102.5 674 c 128,-1,17
 95 683 95 683 68 683 c 2,18,-1
 19 683 l 1,19,-1
 19 726 l 1,20,-1
 204 737 l 1,0,-1
EndSplineSet
EndChar

StartChar: m
Encoding: 109 109 80
Width: 889
GlyphClass: 2
Flags: W
LayerCount: 2
Fore
SplineSet
201 466 m 1,0,-1
 201 389 l 1,1,2
 258 481 258 481 345 481 c 0,3,4
 395 481 395 481 432.5 453.5 c 128,-1,5
 470 426 470 426 483 381 c 1,6,7
 545 481 545 481 639 481 c 0,8,9
 712 481 712 481 757 424 c 0,10,11
 777 398 777 398 783 375.5 c 128,-1,12
 789 353 789 353 789 307 c 2,13,-1
 789 123 l 1,14,-1
 789 84 l 2,15,16
 789 53 789 53 802.5 44.5 c 128,-1,17
 816 36 816 36 864 36 c 2,18,-1
 868 36 l 1,19,-1
 868 0 l 1,20,-1
 615 0 l 1,21,-1
 615 36 l 1,22,-1
 619 36 l 2,23,24
 668 36 668 36 681.5 44.5 c 128,-1,25
 695 53 695 53 695 83 c 2,26,-1
 695 123 l 1,27,-1
 695 287 l 2,28,29
 695 341 695 341 683 370 c 0,30,31
 662 420 662 420 610 420 c 0,32,33
 557 420 557 420 526 375.5 c 128,-1,34
 495 331 495 331 495 256 c 2,35,-1
 495 123 l 1,36,-1
 495 83 l 2,37,38
 495 53 495 53 508.5 44.5 c 128,-1,39
 522 36 522 36 570 36 c 2,40,-1
 574 36 l 1,41,-1
 574 0 l 1,42,-1
 321 0 l 1,43,-1
 321 36 l 1,44,-1
 325 36 l 2,45,46
 374 36 374 36 387.5 44.5 c 128,-1,47
 401 53 401 53 401 83 c 2,48,-1
 401 123 l 1,49,-1
 401 298 l 2,50,51
 401 360 401 360 381 387 c 0,52,53
 372 401 372 401 353 410.5 c 128,-1,54
 334 420 334 420 315 420 c 0,55,56
 266 420 266 420 233.5 376 c 128,-1,57
 201 332 201 332 201 265 c 2,58,-1
 201 123 l 1,59,-1
 201 84 l 2,60,61
 201 53 201 53 214.5 44.5 c 128,-1,62
 228 36 228 36 276 36 c 2,63,-1
 280 36 l 1,64,-1
 280 0 l 1,65,-1
 28 0 l 1,66,-1
 28 36 l 1,67,-1
 32 36 l 2,68,69
 80 36 80 36 93.5 44.5 c 128,-1,70
 107 53 107 53 107 84 c 2,71,-1
 107 123 l 1,72,-1
 107 362 l 2,73,74
 107 394 107 394 99.5 403 c 128,-1,75
 92 412 92 412 64 412 c 2,76,-1
 23 412 l 1,77,-1
 23 455 l 1,78,-1
 201 466 l 1,0,-1
EndSplineSet
EndChar

StartChar: n
Encoding: 110 110 81
Width: 611
GlyphClass: 2
Flags: W
LayerCount: 2
Fore
SplineSet
200 466 m 1,0,-1
 200 385 l 1,1,2
 264 481 264 481 358 481 c 0,3,4
 402 481 402 481 438 460.5 c 128,-1,5
 474 440 474 440 493 404 c 0,6,7
 506 379 506 379 510 356.5 c 128,-1,8
 514 334 514 334 514 280 c 2,9,-1
 514 123 l 1,10,-1
 514 83 l 2,11,12
 514 53 514 53 527.5 44.5 c 128,-1,13
 541 36 541 36 589 36 c 2,14,-1
 593 36 l 1,15,-1
 593 0 l 1,16,-1
 340 0 l 1,17,-1
 340 36 l 1,18,-1
 344 36 l 2,19,20
 393 36 393 36 406.5 44.5 c 128,-1,21
 420 53 420 53 420 83 c 2,22,-1
 420 123 l 1,23,-1
 420 285 l 2,24,25
 420 354 420 354 398 385 c 0,26,27
 387 400 387 400 366.5 410 c 128,-1,28
 346 420 346 420 327 420 c 0,29,30
 295 420 295 420 264.5 399 c 128,-1,31
 234 378 234 378 218 344 c 0,32,33
 200 306 200 306 200 227 c 2,34,-1
 200 123 l 1,35,-1
 200 83 l 2,36,37
 200 53 200 53 213.5 44.5 c 128,-1,38
 227 36 227 36 276 36 c 2,39,-1
 280 36 l 1,40,-1
 280 0 l 1,41,-1
 27 0 l 1,42,-1
 27 36 l 1,43,-1
 31 36 l 2,44,45
 79 36 79 36 92.5 44.5 c 128,-1,46
 106 53 106 53 106 83 c 2,47,-1
 106 123 l 1,48,-1
 106 362 l 2,49,50
 106 394 106 394 98.5 403 c 128,-1,51
 91 412 91 412 63 412 c 2,52,-1
 27 412 l 1,53,-1
 27 455 l 1,54,-1
 200 466 l 1,0,-1
EndSplineSet
EndChar

StartChar: o
Encoding: 111 111 82
Width: 500
GlyphClass: 2
Flags: W
LayerCount: 2
Fore
SplineSet
252 481 m 0,0,1
 341 481 341 481 403.5 408.5 c 128,-1,2
 466 336 466 336 466 233 c 128,-1,3
 466 130 466 130 403 57.5 c 128,-1,4
 340 -15 340 -15 250 -15 c 128,-1,5
 160 -15 160 -15 97 57 c 128,-1,6
 34 129 34 129 34 232 c 0,7,8
 34 337 34 337 97 409 c 128,-1,9
 160 481 160 481 252 481 c 0,0,1
252 438 m 0,10,11
 139 438 139 438 139 232 c 0,12,13
 139 133 139 133 167.5 80.5 c 128,-1,14
 196 28 196 28 250 28 c 128,-1,15
 304 28 304 28 332.5 80.5 c 128,-1,16
 361 133 361 133 361 233 c 0,17,18
 361 332 361 332 333 385 c 128,-1,19
 305 438 305 438 252 438 c 0,10,11
EndSplineSet
EndChar

StartChar: p
Encoding: 112 112 83
Width: 574
GlyphClass: 2
Flags: W
LayerCount: 2
Fore
SplineSet
201 466 m 1,0,-1
 201 395 l 1,1,2
 251 481 251 481 339 481 c 0,3,4
 421 481 421 481 478 410 c 128,-1,5
 535 339 535 339 535 235 c 0,6,7
 535 128 535 128 477.5 56.5 c 128,-1,8
 420 -15 420 -15 333 -15 c 0,9,10
 287 -15 287 -15 256.5 4 c 128,-1,11
 226 23 226 23 201 66 c 1,12,-1
 201 -79 l 1,13,-1
 201 -119 l 2,14,15
 201 -149 201 -149 214.5 -157.5 c 128,-1,16
 228 -166 228 -166 277 -166 c 2,17,-1
 288 -166 l 1,18,-1
 288 -202 l 1,19,-1
 28 -202 l 1,20,-1
 28 -166 l 1,21,-1
 32 -166 l 2,22,23
 80 -166 80 -166 93.5 -157.5 c 128,-1,24
 107 -149 107 -149 107 -119 c 2,25,-1
 107 -79 l 1,26,-1
 107 362 l 2,27,28
 107 394 107 394 99.5 403 c 128,-1,29
 92 412 92 412 64 412 c 2,30,-1
 28 412 l 1,31,-1
 28 455 l 1,32,-1
 201 466 l 1,0,-1
321 427 m 0,33,34
 264 427 264 427 232 374 c 128,-1,35
 200 321 200 321 200 228 c 0,36,37
 200 142 200 142 232.5 90.5 c 128,-1,38
 265 39 265 39 318 39 c 128,-1,39
 371 39 371 39 400.5 91.5 c 128,-1,40
 430 144 430 144 430 241 c 0,41,42
 430 329 430 329 401.5 378 c 128,-1,43
 373 427 373 427 321 427 c 0,33,34
EndSplineSet
EndChar

StartChar: q
Encoding: 113 113 84
Width: 556
GlyphClass: 2
Flags: W
LayerCount: 2
Fore
SplineSet
449 466 m 1,0,-1
 486 466 l 1,1,2
 472 400 472 400 470 381 c 0,3,4
 470 366 470 366 469 309 c 2,5,-1
 469 -79 l 1,6,-1
 469 -119 l 2,7,8
 469 -149 469 -149 482.5 -157.5 c 128,-1,9
 496 -166 496 -166 544 -166 c 2,10,-1
 548 -166 l 1,11,-1
 548 -202 l 1,12,-1
 288 -202 l 1,13,-1
 288 -166 l 1,14,-1
 299 -166 l 2,15,16
 348 -166 348 -166 361.5 -157.5 c 128,-1,17
 375 -149 375 -149 375 -119 c 2,18,-1
 375 -79 l 1,19,-1
 375 58 l 1,20,21
 345 17 345 17 315.5 1 c 128,-1,22
 286 -15 286 -15 239 -15 c 0,23,24
 151 -15 151 -15 93.5 52 c 128,-1,25
 36 119 36 119 36 222 c 0,26,27
 36 333 36 333 97 407 c 128,-1,28
 158 481 158 481 250 481 c 0,29,30
 343 481 343 481 402 398 c 1,31,-1
 449 466 l 1,0,-1
259 438 m 0,32,33
 141 438 141 438 141 228 c 0,34,35
 141 138 141 138 171.5 88.5 c 128,-1,36
 202 39 202 39 258 39 c 0,37,38
 375 39 375 39 375 244 c 0,39,40
 375 324 375 324 354 370 c 0,41,42
 340 402 340 402 314.5 420 c 128,-1,43
 289 438 289 438 259 438 c 0,32,33
EndSplineSet
EndChar

StartChar: r
Encoding: 114 114 85
Width: 444
GlyphClass: 2
Flags: W
LayerCount: 2
Fore
SplineSet
198 466 m 1,0,-1
 198 342 l 1,1,2
 222 408 222 408 261.5 444.5 c 128,-1,3
 301 481 301 481 348 481 c 0,4,5
 388 481 388 481 411.5 459 c 128,-1,6
 435 437 435 437 435 401 c 0,7,8
 435 370 435 370 418 351.5 c 128,-1,9
 401 333 401 333 374 333 c 0,10,11
 350 333 350 333 334.5 348.5 c 128,-1,12
 319 364 319 364 319 388 c 128,-1,13
 319 412 319 412 337 433 c 1,14,15
 273 425 273 425 237 341 c 0,16,17
 198 252 198 252 198 133 c 2,18,-1
 198 123 l 1,19,-1
 198 83 l 2,20,21
 198 53 198 53 211.5 44.5 c 128,-1,22
 225 36 225 36 273 36 c 2,23,-1
 292 36 l 1,24,-1
 292 0 l 1,25,-1
 25 0 l 1,26,-1
 25 36 l 1,27,-1
 29 36 l 2,28,29
 78 36 78 36 91.5 44.5 c 128,-1,30
 105 53 105 53 105 83 c 2,31,-1
 105 123 l 1,32,-1
 105 362 l 2,33,34
 105 394 105 394 97.5 403 c 128,-1,35
 90 412 90 412 62 412 c 2,36,-1
 21 412 l 1,37,-1
 21 455 l 1,38,-1
 198 466 l 1,0,-1
EndSplineSet
EndChar

StartChar: s
Encoding: 115 115 86
Width: 463
GlyphClass: 2
Flags: W
LayerCount: 2
Fore
SplineSet
390 477 m 1,0,-1
 390 309 l 1,1,-1
 355 309 l 1,2,3
 334 369 334 369 306 397 c 0,4,5
 265 437 265 437 209 437 c 0,6,7
 168 437 168 437 142 417.5 c 128,-1,8
 116 398 116 398 116 368 c 0,9,10
 116 331 116 331 151 315 c 0,11,12
 169 305 169 305 224 293 c 2,13,-1
 274 282 l 2,14,15
 320 272 320 272 340.5 264 c 128,-1,16
 361 256 361 256 379 240 c 0,17,18
 421 205 421 205 421 139 c 0,19,20
 421 69 421 69 376.5 27 c 128,-1,21
 332 -15 332 -15 258 -15 c 0,22,23
 182 -15 182 -15 121 34 c 1,24,-1
 86 -7 l 1,25,-1
 51 -7 l 1,26,-1
 51 182 l 1,27,-1
 91 182 l 1,28,29
 109 107 109 107 152.5 67.5 c 128,-1,30
 196 28 196 28 259 28 c 0,31,32
 303 28 303 28 331 50.5 c 128,-1,33
 359 73 359 73 359 108 c 0,34,35
 359 138 359 138 335.5 155.5 c 128,-1,36
 312 173 312 173 252 187 c 2,37,-1
 199 199 l 2,38,39
 123 217 123 217 93 244 c 0,40,41
 58 276 58 276 58 336 c 0,42,43
 58 401 58 401 98 441 c 128,-1,44
 138 481 138 481 204 481 c 0,45,46
 275 481 275 481 326 441 c 1,47,-1
 355 477 l 1,48,-1
 390 477 l 1,0,-1
EndSplineSet
EndChar

StartChar: t
Encoding: 116 116 87
Width: 389
GlyphClass: 2
Flags: W
LayerCount: 2
Fore
SplineSet
194 466 m 1,0,-1
 341 466 l 1,1,-1
 341 423 l 1,2,-1
 194 423 l 1,3,-1
 194 150 l 2,4,5
 194 96 194 96 203 75 c 0,6,7
 215 46 215 46 253 46 c 0,8,9
 326 46 326 46 331 182 c 1,10,-1
 373 182 l 1,11,12
 374 172 374 172 374 159 c 0,13,14
 374 69 374 69 322 19 c 0,15,16
 286 -15 286 -15 226 -15 c 0,17,18
 137 -15 137 -15 112 50 c 0,19,20
 100 78 100 78 100 168 c 2,21,-1
 100 423 l 1,22,-1
 18 423 l 1,23,-1
 18 462 l 1,24,25
 138 471 138 471 153 664 c 1,26,-1
 194 664 l 1,27,-1
 194 466 l 1,0,-1
EndSplineSet
EndChar

StartChar: u
Encoding: 117 117 88
Width: 611
GlyphClass: 2
Flags: W
LayerCount: 2
Fore
SplineSet
412 -7 m 1,0,-1
 412 76 l 1,1,2
 379 28 379 28 342 6.5 c 128,-1,3
 305 -15 305 -15 256 -15 c 0,4,5
 163 -15 163 -15 121 49 c 0,6,7
 102 78 102 78 102 146 c 2,8,-1
 102 362 l 2,9,10
 102 394 102 394 94.5 403 c 128,-1,11
 87 412 87 412 59 412 c 2,12,-1
 21 412 l 1,13,-1
 21 455 l 1,14,-1
 196 466 l 1,15,-1
 196 161 l 2,16,17
 196 120 196 120 198.5 105.5 c 128,-1,18
 201 91 201 91 211 77 c 0,19,20
 231 46 231 46 281 46 c 0,21,22
 358 46 358 46 391 116 c 0,23,24
 412 162 412 162 412 239 c 2,25,-1
 412 362 l 2,26,27
 412 394 412 394 404.5 403 c 128,-1,28
 397 412 397 412 369 412 c 2,29,-1
 318 412 l 1,30,-1
 318 455 l 1,31,-1
 506 466 l 1,32,-1
 506 116 l 2,33,34
 506 68 506 68 517 55.5 c 128,-1,35
 528 43 528 43 569 43 c 2,36,-1
 594 43 l 1,37,-1
 594 0 l 1,38,-1
 412 -7 l 1,0,-1
EndSplineSet
EndChar

StartChar: v
Encoding: 118 118 89
Width: 537
GlyphClass: 2
Flags: W
LayerCount: 2
Fore
SplineSet
295 121 m 1,0,-1
 387 353 l 2,1,2
 396 380 396 380 396 395 c 0,3,4
 396 430 396 430 342 430 c 2,5,-1
 328 430 l 1,6,-1
 328 466 l 1,7,-1
 528 466 l 1,8,-1
 528 430 l 1,9,-1
 524 430 l 2,10,11
 469 430 469 430 431 336 c 2,12,-1
 289 -15 l 1,13,-1
 254 -15 l 1,14,-1
 82 387 l 2,15,16
 72 412 72 412 58.5 421 c 128,-1,17
 45 430 45 430 16 430 c 2,18,-1
 8 430 l 1,19,-1
 8 466 l 1,20,-1
 244 466 l 1,21,-1
 244 430 l 1,22,-1
 230 430 l 2,23,24
 199 430 199 430 187.5 425 c 128,-1,25
 176 420 176 420 176 407 c 0,26,27
 176 396 176 396 181 386 c 2,28,-1
 295 121 l 1,0,-1
EndSplineSet
EndChar

StartChar: w
Encoding: 119 119 90
Width: 778
GlyphClass: 2
Flags: W
LayerCount: 2
Fore
SplineSet
547 129 m 1,0,-1
 632 357 l 2,1,2
 640 376 640 376 640 394 c 0,3,4
 640 430 640 430 591 430 c 2,5,-1
 574 430 l 1,6,-1
 574 466 l 1,7,-1
 763 466 l 1,8,-1
 763 430 l 1,9,-1
 756 430 l 2,10,11
 730 430 730 430 714 414 c 128,-1,12
 698 398 698 398 682 354 c 2,13,-1
 542 -15 l 1,14,-1
 511 -15 l 1,15,-1
 389 301 l 1,16,-1
 270 -15 l 1,17,-1
 235 -15 l 1,18,-1
 85 381 l 2,19,20
 75 411 75 411 64.5 420.5 c 128,-1,21
 54 430 54 430 33 430 c 2,22,-1
 15 430 l 1,23,-1
 15 466 l 1,24,-1
 235 466 l 1,25,-1
 235 430 l 1,26,-1
 217 430 l 2,27,28
 176 430 176 430 176 407 c 0,29,30
 176 399 176 399 180 385 c 2,31,-1
 277 134 l 1,32,-1
 365 367 l 1,33,-1
 356 393 l 2,34,35
 349 415 349 415 338 422.5 c 128,-1,36
 327 430 327 430 304 430 c 2,37,-1
 287 430 l 1,38,-1
 287 466 l 1,39,-1
 511 466 l 1,40,-1
 511 430 l 1,41,-1
 487 430 l 2,42,43
 462 430 462 430 453.5 425.5 c 128,-1,44
 445 421 445 421 445 407 c 0,45,46
 445 395 445 395 449 386 c 2,47,-1
 547 129 l 1,0,-1
EndSplineSet
EndChar

StartChar: x
Encoding: 120 120 91
Width: 537
GlyphClass: 2
Flags: W
LayerCount: 2
Fore
SplineSet
309 255 m 1,0,-1
 435 85 l 2,1,2
 471 36 471 36 522 36 c 2,3,-1
 529 36 l 1,4,-1
 529 0 l 1,5,-1
 277 0 l 1,6,-1
 277 36 l 1,7,-1
 284 36 l 2,8,9
 337 36 337 36 337 54 c 0,10,11
 337 65 337 65 324 84 c 2,12,-1
 248 185 l 1,13,-1
 164 84 l 2,14,15
 156 76 156 76 156 63 c 0,16,17
 156 47 156 47 170 40 c 0,18,19
 179 36 179 36 205 36 c 2,20,-1
 220 36 l 1,21,-1
 220 0 l 1,22,-1
 9 0 l 1,23,-1
 9 36 l 1,24,-1
 15 36 l 2,25,26
 61 36 61 36 105 88 c 2,27,-1
 220 222 l 1,28,-1
 98 376 l 2,29,30
 73 408 73 408 58 418 c 128,-1,31
 43 428 43 428 15 430 c 1,32,-1
 15 466 l 1,33,-1
 252 466 l 1,34,-1
 252 430 l 1,35,-1
 238 430 l 2,36,37
 194 430 194 430 194 412 c 0,38,39
 194 402 194 402 204 390 c 2,40,-1
 281 292 l 1,41,-1
 344 367 l 2,42,43
 364 392 364 392 364 408 c 0,44,45
 364 430 364 430 319 430 c 2,46,-1
 300 430 l 1,47,-1
 300 466 l 1,48,-1
 507 466 l 1,49,-1
 507 430 l 1,50,-1
 498 430 l 2,51,52
 459 430 459 430 423 388 c 2,53,-1
 309 255 l 1,0,-1
EndSplineSet
EndChar

StartChar: y
Encoding: 121 121 92
Width: 537
GlyphClass: 2
Flags: W
LayerCount: 2
Fore
SplineSet
300 127 m 1,0,-1
 391 353 l 2,1,2
 401 377 401 377 401 393 c 0,3,4
 401 430 401 430 347 430 c 2,5,-1
 331 430 l 1,6,-1
 331 466 l 1,7,-1
 531 466 l 1,8,-1
 531 430 l 1,9,-1
 525 430 l 2,10,11
 496 430 496 430 478 412.5 c 128,-1,12
 460 395 460 395 441 349 c 2,13,-1
 327 67 l 2,14,15
 272 -72 272 -72 232 -126 c 0,16,17
 173 -206 173 -206 94 -206 c 0,18,19
 55 -206 55 -206 29 -184 c 128,-1,20
 3 -162 3 -162 3 -129 c 0,21,22
 3 -102 3 -102 20 -84.5 c 128,-1,23
 37 -67 37 -67 63 -67 c 0,24,25
 85 -67 85 -67 99.5 -80 c 128,-1,26
 114 -93 114 -93 114 -112 c 0,27,28
 114 -123 114 -123 109 -138 c 0,29,30
 107 -146 107 -146 107 -147 c 0,31,32
 107 -157 107 -157 123 -157 c 0,33,34
 147 -157 147 -157 179 -121 c 128,-1,35
 211 -85 211 -85 238 -28 c 2,36,-1
 255 7 l 1,37,-1
 92 376 l 2,38,39
 79 406 79 406 63.5 418 c 128,-1,40
 48 430 48 430 24 430 c 2,41,-1
 13 430 l 1,42,-1
 13 466 l 1,43,-1
 251 466 l 1,44,-1
 251 430 l 1,45,-1
 230 430 l 2,46,47
 184 430 184 430 184 405 c 0,48,49
 184 398 184 398 190 384 c 2,50,-1
 300 127 l 1,0,-1
EndSplineSet
EndChar

StartChar: z
Encoding: 122 122 93
Width: 481
GlyphClass: 2
Flags: W
LayerCount: 2
Fore
SplineSet
428 466 m 1,0,-1
 428 430 l 1,1,-1
 155 43 l 1,2,-1
 257 43 l 2,3,4
 325 43 325 43 356.5 74 c 128,-1,5
 388 105 388 105 395 179 c 1,6,-1
 435 179 l 1,7,-1
 428 0 l 1,8,-1
 39 0 l 1,9,-1
 39 36 l 1,10,-1
 312 423 l 1,11,-1
 225 423 l 2,12,13
 164 423 164 423 134.5 394 c 128,-1,14
 105 365 105 365 98 297 c 1,15,-1
 58 297 l 1,16,-1
 67 466 l 1,17,-1
 428 466 l 1,0,-1
EndSplineSet
EndChar

StartChar: braceleft
Encoding: 123 123 94
Width: 333
GlyphClass: 2
Flags: W
LayerCount: 2
Fore
SplineSet
66 291 m 1,0,-1
 66 323 l 1,1,2
 98 334 98 334 111.5 343 c 128,-1,3
 125 352 125 352 132 368 c 0,4,5
 142 388 142 388 142 456 c 2,6,-1
 142 572 l 2,7,8
 142 664 142 664 177 695 c 0,9,10
 207 722 207 722 271 722 c 2,11,-1
 297 722 l 1,12,-1
 297 688 l 1,13,14
 248 685 248 685 232 659.5 c 128,-1,15
 216 634 216 634 216 562 c 2,16,-1
 216 432 l 2,17,18
 216 381 216 381 203 356.5 c 128,-1,19
 190 332 190 332 149 307 c 1,20,21
 190 282 190 282 203 257.5 c 128,-1,22
 216 233 216 233 216 182 c 2,23,-1
 216 52 l 2,24,25
 216 -20 216 -20 232 -45.5 c 128,-1,26
 248 -71 248 -71 297 -74 c 1,27,-1
 297 -108 l 1,28,-1
 271 -108 l 2,29,30
 207 -108 207 -108 177 -81 c 0,31,32
 142 -50 142 -50 142 42 c 2,33,-1
 142 158 l 2,34,35
 142 207 142 207 139.5 223.5 c 128,-1,36
 137 240 137 240 128 254 c 0,37,38
 113 275 113 275 66 291 c 1,0,-1
EndSplineSet
EndChar

StartChar: bar
Encoding: 124 124 95
Width: 606
GlyphClass: 2
Flags: W
LayerCount: 2
Fore
SplineSet
342 722 m 1,0,-1
 342 0 l 1,1,-1
 264 0 l 1,2,-1
 264 722 l 1,3,-1
 342 722 l 1,0,-1
EndSplineSet
EndChar

StartChar: braceright
Encoding: 125 125 96
Width: 333
GlyphClass: 2
Flags: W
LayerCount: 2
Fore
SplineSet
267 323 m 1,0,-1
 267 291 l 1,1,2
 235 281 235 281 221.5 272 c 128,-1,3
 208 263 208 263 200 246 c 0,4,5
 190 226 190 226 190 158 c 2,6,-1
 190 42 l 2,7,8
 190 -52 190 -52 155 -81 c 0,9,10
 125 -108 125 -108 61 -108 c 2,11,-1
 36 -108 l 1,12,-1
 36 -74 l 1,13,14
 84 -71 84 -71 100 -45.5 c 128,-1,15
 116 -20 116 -20 116 52 c 2,16,-1
 116 182 l 2,17,18
 116 233 116 233 129 257.5 c 128,-1,19
 142 282 142 282 183 307 c 1,20,21
 142 332 142 332 129 356.5 c 128,-1,22
 116 381 116 381 116 432 c 2,23,-1
 116 562 l 2,24,25
 116 634 116 634 100 659.5 c 128,-1,26
 84 685 84 685 36 688 c 1,27,-1
 36 722 l 1,28,-1
 61 722 l 2,29,30
 125 722 125 722 155 695 c 0,31,32
 190 666 190 666 190 572 c 2,33,-1
 190 456 l 2,34,35
 190 407 190 407 192.5 390.5 c 128,-1,36
 195 374 195 374 205 360 c 0,37,38
 218 339 218 339 267 323 c 1,0,-1
EndSplineSet
EndChar

StartChar: asciitilde
Encoding: 126 126 97
Width: 606
GlyphClass: 2
Flags: W
LayerCount: 2
Fore
SplineSet
104 182 m 1,0,-1
 51 220 l 1,1,2
 79 269 79 269 117 298 c 128,-1,3
 155 327 155 327 191 327 c 0,4,5
 223 327 223 327 290 295 c 2,6,-1
 336 273 l 2,7,8
 393 245 393 245 416 245 c 0,9,10
 459 245 459 245 502 310 c 1,11,-1
 555 272 l 1,12,13
 527 223 527 223 489 194 c 128,-1,14
 451 165 451 165 415 165 c 0,15,16
 383 165 383 165 316 196 c 2,17,-1
 270 219 l 2,18,19
 226 240 226 240 215.5 243.5 c 128,-1,20
 205 247 205 247 190 247 c 0,21,22
 147 247 147 247 104 182 c 1,0,-1
EndSplineSet
EndChar

StartChar: sterling
Encoding: 163 163 99
Width: 570
GlyphClass: 2
Flags: W
LayerCount: 2
Fore
SplineSet
234 307 m 1,0,1
 239 234 239 234 220.5 179.5 c 128,-1,2
 202 125 202 125 151 81 c 1,3,4
 209 89 209 89 246 87 c 128,-1,5
 283 85 283 85 328 78.5 c 128,-1,6
 373 72 373 72 383 72 c 0,7,8
 432 72 432 72 460 92 c 128,-1,9
 488 112 488 112 509 162 c 1,10,-1
 552 142 l 1,11,12
 518 -15 518 -15 378 -15 c 0,13,14
 366 -15 366 -15 302 -8 c 128,-1,15
 238 -1 238 -1 185.5 0.5 c 128,-1,16
 133 2 133 2 49 -8 c 1,17,-1
 41 66 l 1,18,19
 132 133 132 133 109 307 c 1,20,-1
 43 307 l 1,21,-1
 43 372 l 1,22,-1
 97 372 l 1,23,24
 85 444 85 444 85 506 c 0,25,26
 85 595 85 595 149 649.5 c 128,-1,27
 213 704 213 704 317 704 c 0,28,29
 407 704 407 704 466 663.5 c 128,-1,30
 525 623 525 623 525 562 c 0,31,32
 525 526 525 526 499.5 502 c 128,-1,33
 474 478 474 478 441 478 c 0,34,35
 414 478 414 478 392.5 495 c 128,-1,36
 371 512 371 512 371 537 c 0,37,38
 371 560 371 560 379.5 574 c 128,-1,39
 388 588 388 588 414 600 c 0,40,41
 423 604 423 604 423 616 c 256,42,43
 423 628 423 628 398.5 639.5 c 128,-1,44
 374 651 374 651 341 651 c 0,45,46
 279 651 279 651 244.5 612 c 128,-1,47
 210 573 210 573 211 508 c 0,48,49
 212 469 212 469 227 372 c 1,50,-1
 439 372 l 1,51,-1
 439 307 l 1,52,-1
 234 307 l 1,0,1
EndSplineSet
EndChar

StartChar: uni0591
Encoding: 1425 1425 100
Width: 0
GlyphClass: 2
Flags: W
LayerCount: 2
Fore
SplineSet
-28 -141 m 1,0,-1
 -28 -60 l 1,1,-1
 28 -60 l 1,2,-1
 28 -141 l 1,3,4
 68 -151 68 -151 94 -183.5 c 128,-1,5
 120 -216 120 -216 120 -258 c 1,6,-1
 64 -258 l 1,7,8
 64 -231 64 -231 45 -212.5 c 128,-1,9
 26 -194 26 -194 0 -194 c 128,-1,10
 -26 -194 -26 -194 -45 -212.5 c 128,-1,11
 -64 -231 -64 -231 -64 -258 c 1,12,-1
 -120 -258 l 1,13,14
 -120 -216 -120 -216 -94 -183.5 c 128,-1,15
 -68 -151 -68 -151 -28 -141 c 1,0,-1
EndSplineSet
EndChar

StartChar: uni0592
Encoding: 1426 1426 101
Width: 0
GlyphClass: 2
Flags: W
LayerCount: 2
Fore
SplineSet
0 780 m 128,-1,1
 -17 780 -17 780 -28.5 791.5 c 128,-1,2
 -40 803 -40 803 -40 820 c 128,-1,3
 -40 837 -40 837 -28.5 848.5 c 128,-1,4
 -17 860 -17 860 0 860 c 128,-1,5
 17 860 17 860 28.5 848.5 c 128,-1,6
 40 837 40 837 40 820 c 128,-1,7
 40 803 40 803 28.5 791.5 c 128,-1,0
 17 780 17 780 0 780 c 128,-1,1
-60 660 m 128,-1,9
 -77 660 -77 660 -88.5 671.5 c 128,-1,10
 -100 683 -100 683 -100 700 c 128,-1,11
 -100 717 -100 717 -88.5 728.5 c 128,-1,12
 -77 740 -77 740 -60 740 c 128,-1,13
 -43 740 -43 740 -31.5 728.5 c 128,-1,14
 -20 717 -20 717 -20 700 c 128,-1,15
 -20 683 -20 683 -31.5 671.5 c 128,-1,8
 -43 660 -43 660 -60 660 c 128,-1,9
60 660 m 128,-1,17
 43 660 43 660 31.5 671.5 c 128,-1,18
 20 683 20 683 20 700 c 128,-1,19
 20 717 20 717 31.5 728.5 c 128,-1,20
 43 740 43 740 60 740 c 128,-1,21
 77 740 77 740 88.5 728.5 c 128,-1,22
 100 717 100 717 100 700 c 128,-1,23
 100 683 100 683 88.5 671.5 c 128,-1,16
 77 660 77 660 60 660 c 128,-1,17
EndSplineSet
EndChar

StartChar: uni0593
Encoding: 1427 1427 102
Width: 0
GlyphClass: 2
Flags: W
LayerCount: 2
Fore
SplineSet
7 914 m 1,0,-1
 92 872 l 1,1,-1
 7 829 l 1,2,-1
 92 787 l 1,3,-1
 7 745 l 1,4,-1
 92 702 l 1,5,-1
 7 660 l 1,6,-1
 -42 685 l 1,7,-1
 -7 702 l 1,8,-1
 -92 745 l 1,9,-1
 -7 787 l 1,10,-1
 -92 829 l 1,11,-1
 -7 872 l 1,12,-1
 -42 889 l 1,13,-1
 7 914 l 1,0,-1
EndSplineSet
EndChar

StartChar: uni0594
Encoding: 1428 1428 103
Width: 0
GlyphClass: 2
Flags: W
LayerCount: 2
Fore
SplineSet
0 740 m 128,-1,1
 17 740 17 740 28.5 728.5 c 128,-1,2
 40 717 40 717 40 700 c 128,-1,3
 40 683 40 683 28.5 671.5 c 128,-1,4
 17 660 17 660 0 660 c 128,-1,5
 -17 660 -17 660 -28.5 671.5 c 128,-1,6
 -40 683 -40 683 -40 700 c 128,-1,7
 -40 717 -40 717 -28.5 728.5 c 128,-1,0
 -17 740 -17 740 0 740 c 128,-1,1
0 860 m 128,-1,9
 17 860 17 860 28.5 848.5 c 128,-1,10
 40 837 40 837 40 820 c 128,-1,11
 40 803 40 803 28.5 791.5 c 128,-1,12
 17 780 17 780 0 780 c 128,-1,13
 -17 780 -17 780 -28.5 791.5 c 128,-1,14
 -40 803 -40 803 -40 820 c 128,-1,15
 -40 837 -40 837 -28.5 848.5 c 128,-1,8
 -17 860 -17 860 0 860 c 128,-1,9
EndSplineSet
EndChar

StartChar: uni0595
Encoding: 1429 1429 104
Width: 0
GlyphClass: 2
Flags: W
LayerCount: 2
Fore
SplineSet
-94 864 m 1,0,-1
 -34 864 l 1,1,-1
 -34 660 l 1,2,-1
 -94 660 l 1,3,-1
 -94 864 l 1,0,-1
54 740 m 128,-1,5
 71 740 71 740 82.5 728.5 c 128,-1,6
 94 717 94 717 94 700 c 128,-1,7
 94 683 94 683 82.5 671.5 c 128,-1,8
 71 660 71 660 54 660 c 128,-1,9
 37 660 37 660 25.5 671.5 c 128,-1,10
 14 683 14 683 14 700 c 128,-1,11
 14 717 14 717 25.5 728.5 c 128,-1,4
 37 740 37 740 54 740 c 128,-1,5
54 860 m 128,-1,13
 71 860 71 860 82.5 848.5 c 128,-1,14
 94 837 94 837 94 820 c 128,-1,15
 94 803 94 803 82.5 791.5 c 128,-1,16
 71 780 71 780 54 780 c 128,-1,17
 37 780 37 780 25.5 791.5 c 128,-1,18
 14 803 14 803 14 820 c 128,-1,19
 14 837 14 837 25.5 848.5 c 128,-1,12
 37 860 37 860 54 860 c 128,-1,13
EndSplineSet
EndChar

StartChar: uni0596
Encoding: 1430 1430 105
Width: 0
GlyphClass: 2
Flags: W
LayerCount: 2
Fore
SplineSet
64 -236 m 1,0,-1
 35 -272 l 1,1,2
 -64 -195 -64 -195 -64 -70 c 0,3,4
 -64 -65 -64 -65 -63 -60 c 1,5,-1
 -7 -60 l 1,6,7
 -3 -161 -3 -161 64 -236 c 1,0,-1
EndSplineSet
EndChar

StartChar: uni0597
Encoding: 1431 1431 106
Width: 0
GlyphClass: 2
Flags: W
LayerCount: 2
Fore
SplineSet
-71 754 m 1,0,-1
 0 848 l 1,1,-1
 71 754 l 1,2,-1
 0 660 l 1,3,-1
 -71 754 l 1,0,-1
EndSplineSet
EndChar

StartChar: uni0598
Encoding: 1432 1432 107
Width: 0
GlyphClass: 2
Flags: W
LayerCount: 2
Fore
SplineSet
99 800 m 1,0,-1
 149 800 l 1,1,2
 161 773 161 773 161 754 c 0,3,4
 161 715 161 715 133.5 687.5 c 128,-1,5
 106 660 106 660 67 660 c 0,6,7
 36 660 36 660 11.5 678.5 c 128,-1,8
 -13 697 -13 697 -22 726 c 0,9,10
 -27 741 -27 741 -39.5 750.5 c 128,-1,11
 -52 760 -52 760 -67 760 c 0,12,13
 -87 760 -87 760 -100.5 746 c 128,-1,14
 -114 732 -114 732 -114 713 c 0,15,16
 -114 690 -114 690 -95 664 c 1,17,-1
 -147 664 l 1,18,19
 -161 691 -161 691 -161 713 c 0,20,21
 -161 752 -161 752 -133.5 779 c 128,-1,22
 -106 806 -106 806 -67 806 c 0,23,24
 -35 806 -35 806 -10 787 c 128,-1,25
 15 768 15 768 23 738 c 0,26,27
 28 724 28 724 40 715.5 c 128,-1,28
 52 707 52 707 67 707 c 0,29,30
 87 707 87 707 100.5 720.5 c 128,-1,31
 114 734 114 734 114 754 c 0,32,33
 114 778 114 778 99 800 c 1,0,-1
EndSplineSet
EndChar

StartChar: uni0599
Encoding: 1433 1433 108
Width: 0
GlyphClass: 2
Flags: W
LayerCount: 2
Fore
SplineSet
-64 836 m 1,0,-1
 -35 872 l 1,1,2
 64 795 64 795 64 670 c 0,3,4
 64 665 64 665 63 660 c 1,5,-1
 7 660 l 1,6,7
 3 761 3 761 -64 836 c 1,0,-1
EndSplineSet
EndChar

StartChar: uni059A
Encoding: 1434 1434 109
Width: 0
GlyphClass: 2
Flags: W
LayerCount: 2
Fore
SplineSet
71 -60 m 1,0,-1
 127 -88 l 1,1,-1
 -14 -159 l 1,2,-1
 127 -229 l 1,3,-1
 71 -258 l 1,4,-1
 -127 -159 l 1,5,-1
 71 -60 l 1,0,-1
EndSplineSet
EndChar

StartChar: uni059B
Encoding: 1435 1435 110
Width: 0
GlyphClass: 2
Flags: W
LayerCount: 2
Fore
SplineSet
-58.5 -60 m 128,-1,1
 -42 -60 -42 -60 -30.5 -71.5 c 128,-1,2
 -19 -83 -19 -83 -19 -100 c 128,-1,3
 -19 -117 -19 -117 -30.5 -128.5 c 128,-1,4
 -42 -140 -42 -140 -58.5 -140 c 128,-1,5
 -75 -140 -75 -140 -87 -128.5 c 128,-1,6
 -99 -117 -99 -117 -99 -100 c 128,-1,7
 -99 -83 -99 -83 -87 -71.5 c 128,-1,0
 -75 -60 -75 -60 -58.5 -60 c 128,-1,1
-28 -236 m 1,8,9
 38 -161 38 -161 42 -60 c 1,10,-1
 99 -60 l 1,11,12
 99 -65 99 -65 99 -70 c 0,13,14
 99 -195 99 -195 0 -272 c 1,15,-1
 -28 -236 l 1,8,9
EndSplineSet
EndChar

StartChar: uni059C
Encoding: 1436 1436 111
Width: 0
GlyphClass: 2
Flags: W
LayerCount: 2
Fore
SplineSet
64 836 m 1,0,1
 -3 761 -3 761 -7 660 c 1,2,-1
 -63 660 l 1,3,4
 -64 665 -64 665 -64 670 c 0,5,6
 -64 795 -64 795 35 872 c 1,7,-1
 64 836 l 1,0,1
EndSplineSet
EndChar

StartChar: uni059D
Encoding: 1437 1437 112
Width: 0
GlyphClass: 2
Flags: W
LayerCount: 2
Fore
SplineSet
64 836 m 1,0,1
 -3 761 -3 761 -7 660 c 1,2,-1
 -63 660 l 1,3,4
 -64 665 -64 665 -64 670 c 0,5,6
 -64 795 -64 795 35 872 c 1,7,-1
 64 836 l 1,0,1
EndSplineSet
EndChar

StartChar: uni059E
Encoding: 1438 1438 113
Width: 0
GlyphClass: 2
Flags: W
LayerCount: 2
Fore
SplineSet
125 836 m 1,0,1
 58 761 58 761 55 660 c 1,2,-1
 -2 660 l 1,3,4
 -2 665 -2 665 -2 670 c 0,5,6
 -2 795 -2 795 97 872 c 1,7,-1
 125 836 l 1,0,1
2 836 m 1,8,9
 -65 761 -65 761 -69 660 c 1,10,-1
 -125 660 l 1,11,12
 -125 665 -125 665 -125 670 c 0,13,14
 -125 795 -125 795 -26 872 c 1,15,-1
 2 836 l 1,8,9
EndSplineSet
EndChar

StartChar: uni059F
Encoding: 1439 1439 114
Width: 0
GlyphClass: 2
Flags: W
LayerCount: 2
Fore
SplineSet
134.5 815 m 128,-1,1
 117 815 117 815 104.5 802.5 c 128,-1,2
 92 790 92 790 92 772.5 c 128,-1,3
 92 755 92 755 104.5 743 c 128,-1,4
 117 731 117 731 134.5 731 c 128,-1,5
 152 731 152 731 164.5 743 c 128,-1,6
 177 755 177 755 177 772.5 c 128,-1,7
 177 790 177 790 164.5 802.5 c 128,-1,0
 152 815 152 815 134.5 815 c 128,-1,1
95 706 m 1,8,-1
 50 660 l 1,9,-1
 21 688 l 1,10,-1
 67 734 l 1,11,12
 57 752 57 752 57 773 c 0,13,14
 57 805 57 805 79.5 828 c 128,-1,15
 102 851 102 851 134.5 851 c 128,-1,16
 167 851 167 851 189.5 828 c 128,-1,17
 212 805 212 805 212 773 c 128,-1,18
 212 741 212 741 189.5 718 c 128,-1,19
 167 695 167 695 134 695 c 0,20,21
 113 695 113 695 95 706 c 1,8,-1
-134.5 815 m 128,-1,23
 -152 815 -152 815 -164.5 802.5 c 128,-1,24
 -177 790 -177 790 -177 772.5 c 128,-1,25
 -177 755 -177 755 -164.5 743 c 128,-1,26
 -152 731 -152 731 -134.5 731 c 128,-1,27
 -117 731 -117 731 -104.5 743 c 128,-1,28
 -92 755 -92 755 -92 772.5 c 128,-1,29
 -92 790 -92 790 -104.5 802.5 c 128,-1,22
 -117 815 -117 815 -134.5 815 c 128,-1,23
-95 706 m 1,30,31
 -113 695 -113 695 -134 695 c 0,32,33
 -167 695 -167 695 -189.5 718 c 128,-1,34
 -212 741 -212 741 -212 773 c 128,-1,35
 -212 805 -212 805 -189.5 828 c 128,-1,36
 -167 851 -167 851 -134.5 851 c 128,-1,37
 -102 851 -102 851 -79.5 828 c 128,-1,38
 -57 805 -57 805 -57 773 c 0,39,40
 -57 752 -57 752 -67 734 c 1,41,-1
 -21 688 l 1,42,-1
 -50 660 l 1,43,-1
 -95 706 l 1,30,31
EndSplineSet
EndChar

StartChar: uni05A0
Encoding: 1440 1440 115
Width: 0
GlyphClass: 2
Flags: W
LayerCount: 2
Fore
SplineSet
17.5 815 m 128,-1,1
 0 815 0 815 -12.5 802.5 c 128,-1,2
 -25 790 -25 790 -25 772.5 c 128,-1,3
 -25 755 -25 755 -12.5 743 c 128,-1,4
 0 731 0 731 17.5 731 c 128,-1,5
 35 731 35 731 47.5 743 c 128,-1,6
 60 755 60 755 60 772.5 c 128,-1,7
 60 790 60 790 47.5 802.5 c 128,-1,0
 35 815 35 815 17.5 815 c 128,-1,1
-21 706 m 1,8,-1
 -67 660 l 1,9,-1
 -95 688 l 1,10,-1
 -50 734 l 1,11,12
 -60 752 -60 752 -60 773 c 0,13,14
 -60 805 -60 805 -37 828 c 128,-1,15
 -14 851 -14 851 18 851 c 128,-1,16
 50 851 50 851 72.5 828 c 128,-1,17
 95 805 95 805 95 773 c 128,-1,18
 95 741 95 741 72.5 718 c 128,-1,19
 50 695 50 695 18 695 c 0,20,21
 -3 695 -3 695 -21 706 c 1,8,-1
EndSplineSet
EndChar

StartChar: uni05A1
Encoding: 1441 1441 116
Width: 0
GlyphClass: 2
Flags: W
LayerCount: 2
Fore
SplineSet
-32 707 m 1,0,-1
 -32 660 l 1,1,-1
 -88 660 l 1,2,-1
 -88 827 l 1,3,-1
 -32 827 l 1,4,-1
 -32 764 l 1,5,6
 -5 764 -5 764 13.5 782.5 c 128,-1,7
 32 801 32 801 32 827 c 1,8,-1
 88 827 l 1,9,10
 88 777 88 777 53 742 c 128,-1,11
 18 707 18 707 -32 707 c 1,0,-1
EndSplineSet
EndChar

StartChar: uni05A2
Encoding: 1442 1442 117
Width: 0
GlyphClass: 2
Flags: W
LayerCount: 2
Fore
SplineSet
-28 -177 m 1,0,1
 -68 -167 -68 -167 -94 -134.5 c 128,-1,2
 -120 -102 -120 -102 -120 -60 c 1,3,-1
 -64 -60 l 1,4,5
 -64 -86 -64 -86 -45 -105 c 128,-1,6
 -26 -124 -26 -124 0 -124 c 128,-1,7
 26 -124 26 -124 45 -105 c 128,-1,8
 64 -86 64 -86 64 -60 c 1,9,-1
 120 -60 l 1,10,11
 120 -102 120 -102 94 -134.5 c 128,-1,12
 68 -167 68 -167 28 -177 c 1,13,-1
 28 -258 l 1,14,-1
 -28 -258 l 1,15,-1
 -28 -177 l 1,0,1
EndSplineSet
EndChar

StartChar: uni05A3
Encoding: 1443 1443 118
Width: 0
GlyphClass: 2
Flags: W
LayerCount: 2
Fore
SplineSet
-117 -260 m 1,0,-1
 -117 -200 l 1,1,-1
 57 -200 l 1,2,-1
 57 -60 l 1,3,-1
 117 -60 l 1,4,-1
 117 -260 l 1,5,-1
 -117 -260 l 1,0,-1
EndSplineSet
EndChar

StartChar: uni05A4
Encoding: 1444 1444 119
Width: 0
GlyphClass: 2
Flags: W
LayerCount: 2
Fore
SplineSet
71 -60 m 1,0,-1
 127 -88 l 1,1,-1
 -14 -159 l 1,2,-1
 127 -229 l 1,3,-1
 71 -258 l 1,4,-1
 -127 -159 l 1,5,-1
 71 -60 l 1,0,-1
EndSplineSet
EndChar

StartChar: uni05A5
Encoding: 1445 1445 120
Width: 0
GlyphClass: 2
Flags: W
LayerCount: 2
Fore
SplineSet
-64 -236 m 1,0,1
 3 -161 3 -161 7 -60 c 1,2,-1
 63 -60 l 1,3,4
 64 -65 64 -65 64 -70 c 0,5,6
 64 -195 64 -195 -35 -272 c 1,7,-1
 -64 -236 l 1,0,1
EndSplineSet
EndChar

StartChar: uni05A6
Encoding: 1446 1446 121
Width: 0
GlyphClass: 2
Flags: W
LayerCount: 2
Fore
SplineSet
-125 -236 m 1,0,1
 -58 -161 -58 -161 -55 -60 c 1,2,-1
 2 -60 l 1,3,4
 2 -65 2 -65 2 -70 c 0,5,6
 2 -195 2 -195 -97 -272 c 1,7,-1
 -125 -236 l 1,0,1
-2 -236 m 1,8,9
 65 -161 65 -161 69 -60 c 1,10,-1
 125 -60 l 1,11,12
 125 -65 125 -65 125 -70 c 0,13,14
 125 -195 125 -195 26 -272 c 1,15,-1
 -2 -236 l 1,8,9
EndSplineSet
EndChar

StartChar: uni05A7
Encoding: 1447 1447 122
Width: 0
GlyphClass: 2
Flags: W
LayerCount: 2
Fore
SplineSet
78 -60 m 1,0,-1
 106 -116 l 1,1,-1
 -7 -116 l 1,2,-1
 92 -201 l 1,3,-1
 64 -258 l 1,4,-1
 -78 -258 l 1,5,-1
 -106 -201 l 1,6,-1
 7 -201 l 1,7,-1
 -92 -116 l 1,8,-1
 -64 -60 l 1,9,-1
 78 -60 l 1,0,-1
EndSplineSet
EndChar

StartChar: uni05A8
Encoding: 1448 1448 123
Width: 0
GlyphClass: 2
Flags: W
LayerCount: 2
Fore
SplineSet
-64 836 m 1,0,-1
 -35 872 l 1,1,2
 64 795 64 795 64 670 c 0,3,4
 64 665 64 665 63 660 c 1,5,-1
 7 660 l 1,6,7
 3 761 3 761 -64 836 c 1,0,-1
EndSplineSet
EndChar

StartChar: uni05A9
Encoding: 1449 1449 124
Width: 0
GlyphClass: 2
Flags: W
LayerCount: 2
Fore
SplineSet
-17.5 815 m 128,-1,1
 -35 815 -35 815 -47.5 802.5 c 128,-1,2
 -60 790 -60 790 -60 772.5 c 128,-1,3
 -60 755 -60 755 -47.5 743 c 128,-1,4
 -35 731 -35 731 -17.5 731 c 128,-1,5
 0 731 0 731 12.5 743 c 128,-1,6
 25 755 25 755 25 772.5 c 128,-1,7
 25 790 25 790 12.5 802.5 c 128,-1,0
 0 815 0 815 -17.5 815 c 128,-1,1
21 706 m 1,8,9
 3 695 3 695 -18 695 c 0,10,11
 -50 695 -50 695 -72.5 718 c 128,-1,12
 -95 741 -95 741 -95 773 c 128,-1,13
 -95 805 -95 805 -72.5 828 c 128,-1,14
 -50 851 -50 851 -18 851 c 128,-1,15
 14 851 14 851 37 828 c 128,-1,16
 60 805 60 805 60 773 c 0,17,18
 60 752 60 752 50 734 c 1,19,-1
 95 688 l 1,20,-1
 67 660 l 1,21,-1
 21 706 l 1,8,9
EndSplineSet
EndChar

StartChar: uni05AA
Encoding: 1450 1450 125
Width: 0
GlyphClass: 2
Flags: W
LayerCount: 2
Fore
SplineSet
-120 -60 m 1,0,-1
 -64 -60 l 1,1,2
 -64 -86 -64 -86 -45 -105 c 128,-1,3
 -26 -124 -26 -124 0 -124 c 128,-1,4
 26 -124 26 -124 45 -105 c 128,-1,5
 64 -86 64 -86 64 -60 c 1,6,-1
 120 -60 l 1,7,8
 120 -110 120 -110 85 -145 c 128,-1,9
 50 -180 50 -180 0 -180 c 128,-1,10
 -50 -180 -50 -180 -85 -145 c 128,-1,11
 -120 -110 -120 -110 -120 -60 c 1,0,-1
EndSplineSet
EndChar

StartChar: uni05AB
Encoding: 1451 1451 126
Width: 0
GlyphClass: 2
Flags: W
LayerCount: 2
Fore
SplineSet
71 858 m 1,0,-1
 127 829 l 1,1,-1
 -14 759 l 1,2,-1
 127 688 l 1,3,-1
 71 660 l 1,4,-1
 -127 759 l 1,5,-1
 71 858 l 1,0,-1
EndSplineSet
EndChar

StartChar: uni05AC
Encoding: 1452 1452 127
Width: 0
GlyphClass: 2
Flags: W
LayerCount: 2
Fore
SplineSet
-117 660 m 1,0,-1
 -117 720 l 1,1,-1
 57 720 l 1,2,-1
 57 860 l 1,3,-1
 117 860 l 1,4,-1
 117 660 l 1,5,-1
 -117 660 l 1,0,-1
EndSplineSet
EndChar

StartChar: uni05AD
Encoding: 1453 1453 128
Width: 0
GlyphClass: 2
Flags: W
LayerCount: 2
Fore
SplineSet
64 -236 m 1,0,-1
 35 -272 l 1,1,2
 -64 -195 -64 -195 -64 -70 c 0,3,4
 -64 -65 -64 -65 -63 -60 c 1,5,-1
 -7 -60 l 1,6,7
 -3 -161 -3 -161 64 -236 c 1,0,-1
EndSplineSet
EndChar

StartChar: uni05AE
Encoding: 1454 1454 129
Width: 0
GlyphClass: 2
Flags: W
LayerCount: 2
Fore
SplineSet
99 800 m 1,0,-1
 149 800 l 1,1,2
 161 773 161 773 161 754 c 0,3,4
 161 715 161 715 133.5 687.5 c 128,-1,5
 106 660 106 660 67 660 c 0,6,7
 36 660 36 660 11.5 678.5 c 128,-1,8
 -13 697 -13 697 -22 726 c 0,9,10
 -27 741 -27 741 -39.5 750.5 c 128,-1,11
 -52 760 -52 760 -67 760 c 0,12,13
 -87 760 -87 760 -100.5 746 c 128,-1,14
 -114 732 -114 732 -114 713 c 0,15,16
 -114 690 -114 690 -95 664 c 1,17,-1
 -147 664 l 1,18,19
 -161 691 -161 691 -161 713 c 0,20,21
 -161 752 -161 752 -133.5 779 c 128,-1,22
 -106 806 -106 806 -67 806 c 0,23,24
 -35 806 -35 806 -10 787 c 128,-1,25
 15 768 15 768 23 738 c 0,26,27
 28 724 28 724 40 715.5 c 128,-1,28
 52 707 52 707 67 707 c 0,29,30
 87 707 87 707 100.5 720.5 c 128,-1,31
 114 734 114 734 114 754 c 0,32,33
 114 778 114 778 99 800 c 1,0,-1
EndSplineSet
EndChar

StartChar: uni05AF
Encoding: 1455 1455 130
Width: 0
GlyphClass: 2
Flags: W
LayerCount: 2
Fore
SplineSet
0 808 m 128,-1,1
 -20 808 -20 808 -34.5 793.5 c 128,-1,2
 -49 779 -49 779 -49 758.5 c 128,-1,3
 -49 738 -49 738 -34.5 723.5 c 128,-1,4
 -20 709 -20 709 0 709 c 128,-1,5
 20 709 20 709 34.5 723.5 c 128,-1,6
 49 738 49 738 49 758.5 c 128,-1,7
 49 779 49 779 34.5 793.5 c 128,-1,0
 20 808 20 808 0 808 c 128,-1,1
0 858 m 128,-1,9
 41 858 41 858 70 829 c 128,-1,10
 99 800 99 800 99 759 c 128,-1,11
 99 718 99 718 70 689 c 128,-1,12
 41 660 41 660 0 660 c 128,-1,13
 -41 660 -41 660 -70 689 c 128,-1,14
 -99 718 -99 718 -99 759 c 128,-1,15
 -99 800 -99 800 -70 829 c 128,-1,8
 -41 858 -41 858 0 858 c 128,-1,9
EndSplineSet
EndChar

StartChar: afii57799
Encoding: 1456 1456 131
Width: 0
GlyphClass: 4
Flags: W
AnchorPoint: "Anchor-5" 0 0 mark 0
LayerCount: 2
Fore
SplineSet
0 -180 m 128,-1,1
 17 -180 17 -180 28.5 -191.5 c 128,-1,2
 40 -203 40 -203 40 -220 c 128,-1,3
 40 -237 40 -237 28.5 -248.5 c 128,-1,4
 17 -260 17 -260 0 -260 c 128,-1,5
 -17 -260 -17 -260 -28.5 -248.5 c 128,-1,6
 -40 -237 -40 -237 -40 -220 c 128,-1,7
 -40 -203 -40 -203 -28.5 -191.5 c 128,-1,0
 -17 -180 -17 -180 0 -180 c 128,-1,1
0 -60 m 128,-1,9
 17 -60 17 -60 28.5 -71.5 c 128,-1,10
 40 -83 40 -83 40 -100 c 128,-1,11
 40 -117 40 -117 28.5 -128.5 c 128,-1,12
 17 -140 17 -140 0 -140 c 128,-1,13
 -17 -140 -17 -140 -28.5 -128.5 c 128,-1,14
 -40 -117 -40 -117 -40 -100 c 128,-1,15
 -40 -83 -40 -83 -28.5 -71.5 c 128,-1,8
 -17 -60 -17 -60 0 -60 c 128,-1,9
EndSplineSet
EndChar

StartChar: afii57801
Encoding: 1457 1457 132
Width: 0
GlyphClass: 4
Flags: W
AnchorPoint: "Anchor-3" 0 0 mark 0
LayerCount: 2
Fore
SplineSet
-65 -180 m 128,-1,1
 -48 -180 -48 -180 -36.5 -191.5 c 128,-1,2
 -25 -203 -25 -203 -25 -220 c 128,-1,3
 -25 -237 -25 -237 -36.5 -248.5 c 128,-1,4
 -48 -260 -48 -260 -65 -260 c 128,-1,5
 -82 -260 -82 -260 -93.5 -248.5 c 128,-1,6
 -105 -237 -105 -237 -105 -220 c 128,-1,7
 -105 -203 -105 -203 -93.5 -191.5 c 128,-1,0
 -82 -180 -82 -180 -65 -180 c 128,-1,1
-125 -60 m 128,-1,9
 -108 -60 -108 -60 -96.5 -71.5 c 128,-1,10
 -85 -83 -85 -83 -85 -100 c 128,-1,11
 -85 -117 -85 -117 -96.5 -128.5 c 128,-1,12
 -108 -140 -108 -140 -125 -140 c 128,-1,13
 -142 -140 -142 -140 -153.5 -128.5 c 128,-1,14
 -165 -117 -165 -117 -165 -100 c 128,-1,15
 -165 -83 -165 -83 -153.5 -71.5 c 128,-1,8
 -142 -60 -142 -60 -125 -60 c 128,-1,9
-5 -60 m 128,-1,17
 12 -60 12 -60 23.5 -71.5 c 128,-1,18
 35 -83 35 -83 35 -100 c 128,-1,19
 35 -117 35 -117 23.5 -128.5 c 128,-1,20
 12 -140 12 -140 -5 -140 c 128,-1,21
 -22 -140 -22 -140 -33.5 -128.5 c 128,-1,22
 -45 -117 -45 -117 -45 -100 c 128,-1,23
 -45 -83 -45 -83 -33.5 -71.5 c 128,-1,16
 -22 -60 -22 -60 -5 -60 c 128,-1,17
125 -180 m 128,-1,25
 142 -180 142 -180 153.5 -191.5 c 128,-1,26
 165 -203 165 -203 165 -220 c 128,-1,27
 165 -237 165 -237 153.5 -248.5 c 128,-1,28
 142 -260 142 -260 125 -260 c 128,-1,29
 108 -260 108 -260 96.5 -248.5 c 128,-1,30
 85 -237 85 -237 85 -220 c 128,-1,31
 85 -203 85 -203 96.5 -191.5 c 128,-1,24
 108 -180 108 -180 125 -180 c 128,-1,25
125 -60 m 128,-1,33
 142 -60 142 -60 153.5 -71.5 c 128,-1,34
 165 -83 165 -83 165 -100 c 128,-1,35
 165 -117 165 -117 153.5 -128.5 c 128,-1,36
 142 -140 142 -140 125 -140 c 128,-1,37
 108 -140 108 -140 96.5 -128.5 c 128,-1,38
 85 -117 85 -117 85 -100 c 128,-1,39
 85 -83 85 -83 96.5 -71.5 c 128,-1,32
 108 -60 108 -60 125 -60 c 128,-1,33
EndSplineSet
EndChar

StartChar: afii57800
Encoding: 1458 1458 133
Width: 0
GlyphClass: 4
Flags: W
AnchorPoint: "Anchor-3" 0 0 mark 0
LayerCount: 2
Fore
SplineSet
-165 -70 m 1,0,-1
 35 -70 l 1,1,-1
 35 -130 l 1,2,-1
 -165 -130 l 1,3,-1
 -165 -70 l 1,0,-1
125 -60 m 128,-1,5
 142 -60 142 -60 153.5 -71.5 c 128,-1,6
 165 -83 165 -83 165 -100 c 128,-1,7
 165 -117 165 -117 153.5 -128.5 c 128,-1,8
 142 -140 142 -140 125 -140 c 128,-1,9
 108 -140 108 -140 96.5 -128.5 c 128,-1,10
 85 -117 85 -117 85 -100 c 128,-1,11
 85 -83 85 -83 96.5 -71.5 c 128,-1,4
 108 -60 108 -60 125 -60 c 128,-1,5
125 -180 m 128,-1,13
 142 -180 142 -180 153.5 -191.5 c 128,-1,14
 165 -203 165 -203 165 -220 c 128,-1,15
 165 -237 165 -237 153.5 -248.5 c 128,-1,16
 142 -260 142 -260 125 -260 c 128,-1,17
 108 -260 108 -260 96.5 -248.5 c 128,-1,18
 85 -237 85 -237 85 -220 c 128,-1,19
 85 -203 85 -203 96.5 -191.5 c 128,-1,12
 108 -180 108 -180 125 -180 c 128,-1,13
EndSplineSet
EndChar

StartChar: afii57802
Encoding: 1459 1459 134
Width: 0
GlyphClass: 4
Flags: W
AnchorPoint: "Anchor-3" 0 0 mark 0
LayerCount: 2
Fore
SplineSet
-165 -70 m 1,0,-1
 35 -70 l 1,1,-1
 35 -130 l 1,2,-1
 -35 -130 l 1,3,-1
 -35 -249 l 1,4,-1
 -95 -249 l 1,5,-1
 -95 -130 l 1,6,-1
 -165 -130 l 1,7,-1
 -165 -70 l 1,0,-1
125 -60 m 128,-1,9
 142 -60 142 -60 153.5 -71.5 c 128,-1,10
 165 -83 165 -83 165 -100 c 128,-1,11
 165 -117 165 -117 153.5 -128.5 c 128,-1,12
 142 -140 142 -140 125 -140 c 128,-1,13
 108 -140 108 -140 96.5 -128.5 c 128,-1,14
 85 -117 85 -117 85 -100 c 128,-1,15
 85 -83 85 -83 96.5 -71.5 c 128,-1,8
 108 -60 108 -60 125 -60 c 128,-1,9
125 -180 m 128,-1,17
 142 -180 142 -180 153.5 -191.5 c 128,-1,18
 165 -203 165 -203 165 -220 c 128,-1,19
 165 -237 165 -237 153.5 -248.5 c 128,-1,20
 142 -260 142 -260 125 -260 c 128,-1,21
 108 -260 108 -260 96.5 -248.5 c 128,-1,22
 85 -237 85 -237 85 -220 c 128,-1,23
 85 -203 85 -203 96.5 -191.5 c 128,-1,16
 108 -180 108 -180 125 -180 c 128,-1,17
EndSplineSet
EndChar

StartChar: afii57793
Encoding: 1460 1460 135
Width: 0
GlyphClass: 4
Flags: W
AnchorPoint: "Anchor-5" 0 0 mark 0
LayerCount: 2
Fore
SplineSet
0 -60 m 128,-1,1
 17 -60 17 -60 28.5 -71.5 c 128,-1,2
 40 -83 40 -83 40 -100 c 128,-1,3
 40 -117 40 -117 28.5 -128.5 c 128,-1,4
 17 -140 17 -140 0 -140 c 128,-1,5
 -17 -140 -17 -140 -28.5 -128.5 c 128,-1,6
 -40 -117 -40 -117 -40 -100 c 128,-1,7
 -40 -83 -40 -83 -28.5 -71.5 c 128,-1,0
 -17 -60 -17 -60 0 -60 c 128,-1,1
EndSplineSet
EndChar

StartChar: afii57794
Encoding: 1461 1461 136
Width: 0
GlyphClass: 4
Flags: W
AnchorPoint: "Anchor-4" 0 0 mark 0
LayerCount: 2
Fore
SplineSet
-60 -60 m 128,-1,1
 -43 -60 -43 -60 -31.5 -71.5 c 128,-1,2
 -20 -83 -20 -83 -20 -100 c 128,-1,3
 -20 -117 -20 -117 -31.5 -128.5 c 128,-1,4
 -43 -140 -43 -140 -60 -140 c 128,-1,5
 -77 -140 -77 -140 -88.5 -128.5 c 128,-1,6
 -100 -117 -100 -117 -100 -100 c 128,-1,7
 -100 -83 -100 -83 -88.5 -71.5 c 128,-1,0
 -77 -60 -77 -60 -60 -60 c 128,-1,1
60 -60 m 128,-1,9
 77 -60 77 -60 88.5 -71.5 c 128,-1,10
 100 -83 100 -83 100 -100 c 128,-1,11
 100 -117 100 -117 88.5 -128.5 c 128,-1,12
 77 -140 77 -140 60 -140 c 128,-1,13
 43 -140 43 -140 31.5 -128.5 c 128,-1,14
 20 -117 20 -117 20 -100 c 128,-1,15
 20 -83 20 -83 31.5 -71.5 c 128,-1,8
 43 -60 43 -60 60 -60 c 128,-1,9
EndSplineSet
EndChar

StartChar: afii57795
Encoding: 1462 1462 137
Width: 0
GlyphClass: 4
Flags: W
AnchorPoint: "Anchor-4" 0 0 mark 0
LayerCount: 2
Fore
SplineSet
0 -180 m 128,-1,1
 17 -180 17 -180 28.5 -191.5 c 128,-1,2
 40 -203 40 -203 40 -220 c 128,-1,3
 40 -237 40 -237 28.5 -248.5 c 128,-1,4
 17 -260 17 -260 0 -260 c 128,-1,5
 -17 -260 -17 -260 -28.5 -248.5 c 128,-1,6
 -40 -237 -40 -237 -40 -220 c 128,-1,7
 -40 -203 -40 -203 -28.5 -191.5 c 128,-1,0
 -17 -180 -17 -180 0 -180 c 128,-1,1
-60 -60 m 128,-1,9
 -43 -60 -43 -60 -31.5 -71.5 c 128,-1,10
 -20 -83 -20 -83 -20 -100 c 128,-1,11
 -20 -117 -20 -117 -31.5 -128.5 c 128,-1,12
 -43 -140 -43 -140 -60 -140 c 128,-1,13
 -77 -140 -77 -140 -88.5 -128.5 c 128,-1,14
 -100 -117 -100 -117 -100 -100 c 128,-1,15
 -100 -83 -100 -83 -88.5 -71.5 c 128,-1,8
 -77 -60 -77 -60 -60 -60 c 128,-1,9
60 -60 m 128,-1,17
 77 -60 77 -60 88.5 -71.5 c 128,-1,18
 100 -83 100 -83 100 -100 c 128,-1,19
 100 -117 100 -117 88.5 -128.5 c 128,-1,20
 77 -140 77 -140 60 -140 c 128,-1,21
 43 -140 43 -140 31.5 -128.5 c 128,-1,22
 20 -117 20 -117 20 -100 c 128,-1,23
 20 -83 20 -83 31.5 -71.5 c 128,-1,16
 43 -60 43 -60 60 -60 c 128,-1,17
EndSplineSet
EndChar

StartChar: afii57798
Encoding: 1463 1463 138
Width: 0
GlyphClass: 4
Flags: W
AnchorPoint: "Anchor-4" 0 0 mark 0
LayerCount: 2
Fore
SplineSet
-100 -70 m 1,0,-1
 100 -70 l 1,1,-1
 100 -130 l 1,2,-1
 -100 -130 l 1,3,-1
 -100 -70 l 1,0,-1
EndSplineSet
EndChar

StartChar: afii57797
Encoding: 1464 1464 139
Width: 0
GlyphClass: 4
Flags: W
AnchorPoint: "Anchor-4" 0 0 mark 0
LayerCount: 2
Fore
SplineSet
-100 -70 m 1,0,-1
 100 -70 l 1,1,-1
 100 -130 l 1,2,-1
 30 -130 l 1,3,-1
 30 -235 l 1,4,-1
 -30 -235 l 1,5,-1
 -30 -130 l 1,6,-1
 -100 -130 l 1,7,-1
 -100 -70 l 1,0,-1
EndSplineSet
EndChar

StartChar: afii57806
Encoding: 1465 1465 140
Width: 0
GlyphClass: 4
Flags: W
AnchorPoint: "Anchor-1" 0 0 mark 0
LayerCount: 2
Fore
SplineSet
0 740 m 128,-1,1
 17 740 17 740 28.5 728.5 c 128,-1,2
 40 717 40 717 40 700 c 128,-1,3
 40 683 40 683 28.5 671.5 c 128,-1,4
 17 660 17 660 0 660 c 128,-1,5
 -17 660 -17 660 -28.5 671.5 c 128,-1,6
 -40 683 -40 683 -40 700 c 128,-1,7
 -40 717 -40 717 -28.5 728.5 c 128,-1,0
 -17 740 -17 740 0 740 c 128,-1,1
EndSplineSet
EndChar

StartChar: uni05BA
Encoding: 1466 1466 141
Width: 0
GlyphClass: 2
Flags: W
LayerCount: 2
Fore
SplineSet
0 740 m 128,-1,1
 17 740 17 740 28.5 728.5 c 128,-1,2
 40 717 40 717 40 700 c 128,-1,3
 40 683 40 683 28.5 671.5 c 128,-1,4
 17 660 17 660 0 660 c 128,-1,5
 -17 660 -17 660 -28.5 671.5 c 128,-1,6
 -40 683 -40 683 -40 700 c 128,-1,7
 -40 717 -40 717 -28.5 728.5 c 128,-1,0
 -17 740 -17 740 0 740 c 128,-1,1
EndSplineSet
EndChar

StartChar: afii57796
Encoding: 1467 1467 142
Width: 0
GlyphClass: 4
Flags: W
AnchorPoint: "Anchor-2" 0 0 mark 0
LayerCount: 2
Fore
SplineSet
110 -180 m 128,-1,1
 127 -180 127 -180 138.5 -191.5 c 128,-1,2
 150 -203 150 -203 150 -220 c 128,-1,3
 150 -237 150 -237 138.5 -248.5 c 128,-1,4
 127 -260 127 -260 110 -260 c 128,-1,5
 93 -260 93 -260 81.5 -248.5 c 128,-1,6
 70 -237 70 -237 70 -220 c 128,-1,7
 70 -203 70 -203 81.5 -191.5 c 128,-1,0
 93 -180 93 -180 110 -180 c 128,-1,1
0 -120 m 128,-1,9
 17 -120 17 -120 28.5 -131.5 c 128,-1,10
 40 -143 40 -143 40 -160 c 128,-1,11
 40 -177 40 -177 28.5 -188.5 c 128,-1,12
 17 -200 17 -200 0 -200 c 128,-1,13
 -17 -200 -17 -200 -28.5 -188.5 c 128,-1,14
 -40 -177 -40 -177 -40 -160 c 128,-1,15
 -40 -143 -40 -143 -28.5 -131.5 c 128,-1,8
 -17 -120 -17 -120 0 -120 c 128,-1,9
-110 -60 m 128,-1,17
 -93 -60 -93 -60 -81.5 -71.5 c 128,-1,18
 -70 -83 -70 -83 -70 -100 c 128,-1,19
 -70 -117 -70 -117 -81.5 -128.5 c 128,-1,20
 -93 -140 -93 -140 -110 -140 c 128,-1,21
 -127 -140 -127 -140 -138.5 -128.5 c 128,-1,22
 -150 -117 -150 -117 -150 -100 c 128,-1,23
 -150 -83 -150 -83 -138.5 -71.5 c 128,-1,16
 -127 -60 -127 -60 -110 -60 c 128,-1,17
EndSplineSet
EndChar

StartChar: afii57807
Encoding: 1468 1468 143
Width: 0
GlyphClass: 4
Flags: W
AnchorPoint: "Anchor-0" 0 0 mark 0
LayerCount: 2
Fore
SplineSet
0 339 m 128,-1,1
 17 339 17 339 28.5 327.5 c 128,-1,2
 40 316 40 316 40 299.5 c 128,-1,3
 40 283 40 283 28.5 271 c 128,-1,4
 17 259 17 259 0 259 c 128,-1,5
 -17 259 -17 259 -28.5 271 c 128,-1,6
 -40 283 -40 283 -40 299.5 c 128,-1,7
 -40 316 -40 316 -28.5 327.5 c 128,-1,0
 -17 339 -17 339 0 339 c 128,-1,1
EndSplineSet
EndChar

StartChar: afii57839
Encoding: 1469 1469 144
Width: 0
GlyphClass: 2
Flags: W
LayerCount: 2
Fore
SplineSet
-30 -60 m 1,0,-1
 30 -60 l 1,1,-1
 30 -264 l 1,2,-1
 -30 -264 l 1,3,-1
 -30 -60 l 1,0,-1
EndSplineSet
EndChar

StartChar: afii57645
Encoding: 1470 1470 145
Width: 432
GlyphClass: 2
Flags: W
LayerCount: 2
Fore
SplineSet
375 493 m 2,0,1
 375 453 375 453 343 453 c 2,2,-1
 95 453 l 2,3,4
 63 453 63 453 63 493 c 2,5,-1
 63 560 l 2,6,7
 63 600 63 600 95 600 c 2,8,-1
 343 600 l 2,9,10
 375 600 375 600 375 560 c 2,11,-1
 375 493 l 2,0,1
EndSplineSet
PairPos2: "'kern' Horizontal Kerning in Hebrew lookup 6 subtable" uniFB4C dx=-15 dy=0 dh=-15 dv=0 dx=0 dy=0 dh=0 dv=0
PairPos2: "'kern' Horizontal Kerning in Hebrew lookup 6 subtable" uniFB49 dx=15 dy=0 dh=15 dv=0 dx=0 dy=0 dh=0 dv=0
PairPos2: "'kern' Horizontal Kerning in Hebrew lookup 6 subtable" uniFB48 dx=25 dy=0 dh=25 dv=0 dx=0 dy=0 dh=0 dv=0
PairPos2: "'kern' Horizontal Kerning in Hebrew lookup 6 subtable" uniFB47 dx=20 dy=0 dh=20 dv=0 dx=0 dy=0 dh=0 dv=0
PairPos2: "'kern' Horizontal Kerning in Hebrew lookup 6 subtable" uniFB45 dx=15 dy=0 dh=15 dv=0 dx=0 dy=0 dh=0 dv=0
PairPos2: "'kern' Horizontal Kerning in Hebrew lookup 6 subtable" uniFB43 dx=-10 dy=0 dh=-10 dv=0 dx=0 dy=0 dh=0 dv=0
PairPos2: "'kern' Horizontal Kerning in Hebrew lookup 6 subtable" uniFB42 dx=20 dy=0 dh=20 dv=0 dx=0 dy=0 dh=0 dv=0
PairPos2: "'kern' Horizontal Kerning in Hebrew lookup 6 subtable" uniFB41 dx=-10 dy=0 dh=-10 dv=0 dx=0 dy=0 dh=0 dv=0
PairPos2: "'kern' Horizontal Kerning in Hebrew lookup 6 subtable" uniFB40 dx=-20 dy=0 dh=-20 dv=0 dx=0 dy=0 dh=0 dv=0
PairPos2: "'kern' Horizontal Kerning in Hebrew lookup 6 subtable" uniFB3F dx=15 dy=0 dh=15 dv=0 dx=0 dy=0 dh=0 dv=0
PairPos2: "'kern' Horizontal Kerning in Hebrew lookup 6 subtable" uniFB3E dx=-10 dy=0 dh=-10 dv=0 dx=0 dy=0 dh=0 dv=0
PairPos2: "'kern' Horizontal Kerning in Hebrew lookup 6 subtable" uniFB3C dx=15 dy=0 dh=15 dv=0 dx=0 dy=0 dh=0 dv=0
PairPos2: "'kern' Horizontal Kerning in Hebrew lookup 6 subtable" uniFB3A dx=15 dy=0 dh=15 dv=0 dx=0 dy=0 dh=0 dv=0
PairPos2: "'kern' Horizontal Kerning in Hebrew lookup 6 subtable" uniFB39 dx=10 dy=0 dh=10 dv=0 dx=0 dy=0 dh=0 dv=0
PairPos2: "'kern' Horizontal Kerning in Hebrew lookup 6 subtable" uniFB38 dx=10 dy=0 dh=10 dv=0 dx=0 dy=0 dh=0 dv=0
PairPos2: "'kern' Horizontal Kerning in Hebrew lookup 6 subtable" uniFB36 dx=15 dy=0 dh=15 dv=0 dx=0 dy=0 dh=0 dv=0
PairPos2: "'kern' Horizontal Kerning in Hebrew lookup 6 subtable" uniFB33 dx=25 dy=0 dh=25 dv=0 dx=0 dy=0 dh=0 dv=0
PairPos2: "'kern' Horizontal Kerning in Hebrew lookup 6 subtable" uniFB32 dx=-30 dy=0 dh=-30 dv=0 dx=0 dy=0 dh=0 dv=0
PairPos2: "'kern' Horizontal Kerning in Hebrew lookup 6 subtable" uniFB31 dx=-15 dy=0 dh=-15 dv=0 dx=0 dy=0 dh=0 dv=0
PairPos2: "'kern' Horizontal Kerning in Hebrew lookup 6 subtable" uniFB30 dx=-10 dy=0 dh=-10 dv=0 dx=0 dy=0 dh=0 dv=0
PairPos2: "'kern' Horizontal Kerning in Hebrew lookup 6 subtable" uniFB2F dx=-10 dy=0 dh=-10 dv=0 dx=0 dy=0 dh=0 dv=0
PairPos2: "'kern' Horizontal Kerning in Hebrew lookup 6 subtable" uniFB2E dx=-10 dy=0 dh=-10 dv=0 dx=0 dy=0 dh=0 dv=0
PairPos2: "'kern' Horizontal Kerning in Hebrew lookup 6 subtable" uniFB2D dx=15 dy=0 dh=15 dv=0 dx=0 dy=0 dh=0 dv=0
PairPos2: "'kern' Horizontal Kerning in Hebrew lookup 6 subtable" uniFB2C dx=15 dy=0 dh=15 dv=0 dx=0 dy=0 dh=0 dv=0
PairPos2: "'kern' Horizontal Kerning in Hebrew lookup 6 subtable" afii57695 dx=15 dy=0 dh=15 dv=0 dx=0 dy=0 dh=0 dv=0
PairPos2: "'kern' Horizontal Kerning in Hebrew lookup 6 subtable" afii57694 dx=15 dy=0 dh=15 dv=0 dx=0 dy=0 dh=0 dv=0
PairPos2: "'kern' Horizontal Kerning in Hebrew lookup 6 subtable" uniFB25 dx=15 dy=0 dh=15 dv=0 dx=0 dy=0 dh=0 dv=0
PairPos2: "'kern' Horizontal Kerning in Hebrew lookup 6 subtable" uniFB22 dx=25 dy=0 dh=25 dv=0 dx=0 dy=0 dh=0 dv=0
PairPos2: "'kern' Horizontal Kerning in Hebrew lookup 6 subtable" uniFB21 dx=-10 dy=0 dh=-10 dv=0 dx=0 dy=0 dh=0 dv=0
PairPos2: "'kern' Horizontal Kerning in Hebrew lookup 6 subtable" afii57705 dx=10 dy=0 dh=10 dv=0 dx=0 dy=0 dh=0 dv=0
PairPos2: "'kern' Horizontal Kerning in Hebrew lookup 6 subtable" uniFB1D dx=10 dy=0 dh=10 dv=0 dx=0 dy=0 dh=0 dv=0
PairPos2: "'kern' Horizontal Kerning in Hebrew lookup 6 subtable" uniE804 dx=10 dy=0 dh=10 dv=0 dx=0 dy=0 dh=0 dv=0
PairPos2: "'kern' Horizontal Kerning in Hebrew lookup 6 subtable" uniE803 dx=15 dy=0 dh=15 dv=0 dx=0 dy=0 dh=0 dv=0
PairPos2: "'kern' Horizontal Kerning in Hebrew lookup 6 subtable" uniE802 dx=15 dy=0 dh=15 dv=0 dx=0 dy=0 dh=0 dv=0
PairPos2: "'kern' Horizontal Kerning in Hebrew lookup 6 subtable" afii57718 dx=10 dy=0 dh=10 dv=0 dx=0 dy=0 dh=0 dv=0
PairPos2: "'kern' Horizontal Kerning in Hebrew lookup 6 subtable" afii57717 dx=10 dy=0 dh=10 dv=0 dx=0 dy=0 dh=0 dv=0
PairPos2: "'kern' Horizontal Kerning in Hebrew lookup 6 subtable" afii57689 dx=15 dy=0 dh=15 dv=0 dx=0 dy=0 dh=0 dv=0
PairPos2: "'kern' Horizontal Kerning in Hebrew lookup 6 subtable" afii57688 dx=25 dy=0 dh=25 dv=0 dx=0 dy=0 dh=0 dv=0
PairPos2: "'kern' Horizontal Kerning in Hebrew lookup 6 subtable" afii57687 dx=20 dy=0 dh=20 dv=0 dx=0 dy=0 dh=0 dv=0
PairPos2: "'kern' Horizontal Kerning in Hebrew lookup 6 subtable" afii57685 dx=15 dy=0 dh=15 dv=0 dx=0 dy=0 dh=0 dv=0
PairPos2: "'kern' Horizontal Kerning in Hebrew lookup 6 subtable" afii57683 dx=-10 dy=0 dh=-10 dv=0 dx=0 dy=0 dh=0 dv=0
PairPos2: "'kern' Horizontal Kerning in Hebrew lookup 6 subtable" afii57682 dx=20 dy=0 dh=20 dv=0 dx=0 dy=0 dh=0 dv=0
PairPos2: "'kern' Horizontal Kerning in Hebrew lookup 6 subtable" afii57681 dx=-10 dy=0 dh=-10 dv=0 dx=0 dy=0 dh=0 dv=0
PairPos2: "'kern' Horizontal Kerning in Hebrew lookup 6 subtable" afii57680 dx=-20 dy=0 dh=-20 dv=0 dx=0 dy=0 dh=0 dv=0
PairPos2: "'kern' Horizontal Kerning in Hebrew lookup 6 subtable" afii57679 dx=15 dy=0 dh=15 dv=0 dx=0 dy=0 dh=0 dv=0
PairPos2: "'kern' Horizontal Kerning in Hebrew lookup 6 subtable" afii57678 dx=-10 dy=0 dh=-10 dv=0 dx=0 dy=0 dh=0 dv=0
PairPos2: "'kern' Horizontal Kerning in Hebrew lookup 6 subtable" afii57676 dx=15 dy=0 dh=15 dv=0 dx=0 dy=0 dh=0 dv=0
PairPos2: "'kern' Horizontal Kerning in Hebrew lookup 6 subtable" afii57674 dx=15 dy=0 dh=15 dv=0 dx=0 dy=0 dh=0 dv=0
PairPos2: "'kern' Horizontal Kerning in Hebrew lookup 6 subtable" afii57673 dx=10 dy=0 dh=10 dv=0 dx=0 dy=0 dh=0 dv=0
PairPos2: "'kern' Horizontal Kerning in Hebrew lookup 6 subtable" afii57672 dx=10 dy=0 dh=10 dv=0 dx=0 dy=0 dh=0 dv=0
PairPos2: "'kern' Horizontal Kerning in Hebrew lookup 6 subtable" afii57670 dx=15 dy=0 dh=15 dv=0 dx=0 dy=0 dh=0 dv=0
PairPos2: "'kern' Horizontal Kerning in Hebrew lookup 6 subtable" afii57667 dx=25 dy=0 dh=25 dv=0 dx=0 dy=0 dh=0 dv=0
PairPos2: "'kern' Horizontal Kerning in Hebrew lookup 6 subtable" afii57666 dx=-30 dy=0 dh=-30 dv=0 dx=0 dy=0 dh=0 dv=0
PairPos2: "'kern' Horizontal Kerning in Hebrew lookup 6 subtable" afii57665 dx=-15 dy=0 dh=-15 dv=0 dx=0 dy=0 dh=0 dv=0
PairPos2: "'kern' Horizontal Kerning in Hebrew lookup 6 subtable" afii57664 dx=-10 dy=0 dh=-10 dv=0 dx=0 dy=0 dh=0 dv=0
EndChar

StartChar: afii57841
Encoding: 1471 1471 146
Width: 0
GlyphClass: 2
Flags: W
LayerCount: 2
Fore
SplineSet
-100 740 m 1,0,-1
 100 740 l 1,1,-1
 100 680 l 1,2,-1
 -100 680 l 1,3,-1
 -100 740 l 1,0,-1
EndSplineSet
EndChar

StartChar: afii57842
Encoding: 1472 1472 147
Width: 179
GlyphClass: 2
Flags: W
LayerCount: 2
Fore
SplineSet
47 636 m 1,0,-1
 132 663 l 1,1,-1
 132 -57 l 1,2,-1
 47 -84 l 1,3,-1
 47 636 l 1,0,-1
EndSplineSet
EndChar

StartChar: afii57804
Encoding: 1473 1473 148
Width: 0
GlyphClass: 2
Flags: W
LayerCount: 2
Fore
SplineSet
594 706 m 256,0,1
 611 706 611 706 622.5 694.5 c 128,-1,2
 634 683 634 683 634 666 c 128,-1,3
 634 649 634 649 622.5 637.5 c 128,-1,4
 611 626 611 626 594 626 c 256,5,6
 577 626 577 626 565.5 637.5 c 128,-1,7
 554 649 554 649 554 666 c 128,-1,8
 554 683 554 683 565.5 694.5 c 128,-1,9
 577 706 577 706 594 706 c 256,0,1
EndSplineSet
EndChar

StartChar: afii57803
Encoding: 1474 1474 149
Width: 0
GlyphClass: 2
Flags: W
LayerCount: 2
Fore
SplineSet
156 706 m 256,0,1
 173 706 173 706 184.5 694.5 c 128,-1,2
 196 683 196 683 196 666 c 128,-1,3
 196 649 196 649 184.5 637.5 c 128,-1,4
 173 626 173 626 156 626 c 256,5,6
 139 626 139 626 127.5 637.5 c 128,-1,7
 116 649 116 649 116 666 c 128,-1,8
 116 683 116 683 127.5 694.5 c 128,-1,9
 139 706 139 706 156 706 c 256,0,1
EndSplineSet
EndChar

StartChar: uni05C4
Encoding: 1476 1476 151
Width: 0
GlyphClass: 2
Flags: W
LayerCount: 2
Fore
SplineSet
0 780 m 128,-1,1
 25 780 25 780 42.5 762.5 c 128,-1,2
 60 745 60 745 60 720 c 128,-1,3
 60 695 60 695 42.5 677.5 c 128,-1,4
 25 660 25 660 0 660 c 128,-1,5
 -25 660 -25 660 -42.5 677.5 c 128,-1,6
 -60 695 -60 695 -60 720 c 128,-1,7
 -60 745 -60 745 -42.5 762.5 c 128,-1,0
 -25 780 -25 780 0 780 c 128,-1,1
EndSplineSet
EndChar

StartChar: uni05C5
Encoding: 1477 1477 152
Width: 0
GlyphClass: 2
Flags: W
LayerCount: 2
Fore
SplineSet
0 -60 m 128,-1,1
 25 -60 25 -60 42.5 -77.5 c 128,-1,2
 60 -95 60 -95 60 -120 c 128,-1,3
 60 -145 60 -145 42.5 -162.5 c 128,-1,4
 25 -180 25 -180 0 -180 c 128,-1,5
 -25 -180 -25 -180 -42.5 -162.5 c 128,-1,6
 -60 -145 -60 -145 -60 -120 c 128,-1,7
 -60 -95 -60 -95 -42.5 -77.5 c 128,-1,0
 -25 -60 -25 -60 0 -60 c 128,-1,1
EndSplineSet
EndChar

StartChar: uni05C6
Encoding: 1478 1478 153
Width: 368
GlyphClass: 2
Flags: W
LayerCount: 2
Fore
SplineSet
172 142 m 2,0,-1
 338 142 l 1,1,-1
 300 0 l 1,2,-1
 53 0 l 1,3,-1
 70 69 l 2,4,5
 75 88 75 88 73 114 c 0,6,7
 72 126 72 126 68.5 161 c 128,-1,8
 65 196 65 196 64.5 210 c 128,-1,9
 64 224 64 224 64.5 250.5 c 128,-1,10
 65 277 65 277 68 303 c 0,11,12
 72 331 72 331 83.5 369.5 c 128,-1,13
 95 408 95 408 105 433 c 2,14,-1
 114 458 l 1,15,16
 102 468 102 468 97.5 472 c 128,-1,17
 93 476 93 476 87.5 485.5 c 128,-1,18
 82 495 82 495 78 510 c 0,19,20
 68 551 68 551 82 597 c 0,21,22
 93 634 93 634 110 643 c 0,23,24
 125 651 125 651 130 641 c 0,25,26
 131 640 131 640 130 632 c 128,-1,27
 129 624 129 624 130 619 c 0,28,29
 131 611 131 611 137 605.5 c 128,-1,30
 143 600 143 600 150 600 c 2,31,-1
 208 600 l 2,32,33
 210 600 210 600 214 600 c 0,34,35
 233 600 233 600 243 599.5 c 128,-1,36
 253 599 253 599 268 593 c 128,-1,37
 283 587 283 587 293 576 c 0,38,39
 314 553 314 553 314.5 509.5 c 128,-1,40
 315 466 315 466 299 454 c 0,41,42
 291 449 291 449 286.5 450 c 128,-1,43
 282 451 282 451 271.5 454.5 c 128,-1,44
 261 458 261 458 253 458 c 0,45,46
 160 459 160 459 160 458 c 0,47,48
 151 448 151 448 140 399.5 c 128,-1,49
 129 351 129 351 127 307 c 0,50,51
 123 224 123 224 142 168 c 0,52,53
 151 142 151 142 172 142 c 2,0,-1
EndSplineSet
EndChar

StartChar: uni05C7
Encoding: 1479 1479 154
Width: 0
GlyphClass: 4
Flags: W
AnchorPoint: "Anchor-4" 0 0 mark 0
LayerCount: 2
Fore
SplineSet
-80 -70 m 1,0,-1
 80 -70 l 1,1,-1
 80 -130 l 1,2,-1
 30 -130 l 1,3,-1
 30 -245 l 1,4,-1
 -30 -245 l 1,5,-1
 -30 -130 l 1,6,-1
 -80 -130 l 1,7,-1
 -80 -70 l 1,0,-1
EndSplineSet
EndChar

StartChar: afii57664
Encoding: 1488 1488 155
Width: 620
GlyphClass: 2
Flags: W
AnchorPoint: "Anchor-5" 317 0 basechar 0
AnchorPoint: "Anchor-4" 317 0 basechar 0
AnchorPoint: "Anchor-3" 317 0 basechar 0
AnchorPoint: "Anchor-2" 307 0 basechar 0
AnchorPoint: "Anchor-1" 27 0 basechar 0
AnchorPoint: "Anchor-0" 305 -149 basechar 0
LayerCount: 2
Fore
SplineSet
562 512 m 0,0,1
 562 478 562 478 557 458.5 c 128,-1,2
 552 439 552 439 543 434.5 c 128,-1,3
 534 430 534 430 522 435 c 0,4,5
 487 450 487 450 454 376 c 0,6,7
 439 342 439 342 437.5 306 c 128,-1,8
 436 270 436 270 454 243 c 2,9,-1
 534 147 l 2,10,11
 552 126 552 126 558 98 c 128,-1,12
 564 70 564 70 559 48 c 0,13,14
 555 24 555 24 535 4.5 c 128,-1,15
 515 -15 515 -15 496 -10 c 0,16,17
 488 -8 488 -8 486 -3 c 128,-1,18
 484 2 484 2 484.5 8 c 128,-1,19
 485 14 485 14 483 23 c 128,-1,20
 481 32 481 32 474 41 c 2,21,-1
 231 334 l 1,22,23
 187 304 187 304 185 267 c 0,24,25
 184 243 184 243 196.5 215.5 c 128,-1,26
 209 188 209 188 224.5 166.5 c 128,-1,27
 240 145 240 145 253.5 114 c 128,-1,28
 267 83 267 83 267 54 c 0,29,30
 267 0 267 0 234 0 c 2,31,-1
 73 0 l 2,32,33
 55 0 55 0 53 21 c 128,-1,34
 51 42 51 42 61 54 c 0,35,36
 66 62 66 62 82.5 64 c 128,-1,37
 99 66 99 66 101 70 c 0,38,39
 106 81 106 81 103.5 97.5 c 128,-1,40
 101 114 101 114 94.5 132.5 c 128,-1,41
 88 151 88 151 85 177.5 c 128,-1,42
 82 204 82 204 86 236 c 0,43,44
 93 280 93 280 119 315 c 128,-1,45
 145 350 145 350 189 385 c 1,46,-1
 112 476 l 2,47,48
 94 498 94 498 86.5 522.5 c 128,-1,49
 79 547 79 547 81 567.5 c 128,-1,50
 83 588 83 588 90.5 605 c 128,-1,51
 98 622 98 622 109.5 632 c 128,-1,52
 121 642 121 642 132 642 c 0,53,54
 145 642 145 642 148.5 635.5 c 128,-1,55
 152 629 152 629 156 613 c 128,-1,56
 160 597 160 597 171 584 c 2,57,-1
 382 330 l 1,58,59
 392 400 392 400 437 451 c 1,60,61
 415 457 415 457 403.5 461.5 c 128,-1,62
 392 466 392 466 379 476 c 128,-1,63
 366 486 366 486 360.5 503 c 128,-1,64
 355 520 355 520 355 546 c 0,65,66
 355 582 355 582 369 614 c 128,-1,67
 383 646 383 646 403 646 c 0,68,69
 410 646 410 646 411.5 643 c 128,-1,70
 413 640 413 640 412 631.5 c 128,-1,71
 411 623 411 623 412 619 c 0,72,73
 414 604 414 604 437 600 c 2,74,-1
 470 594 l 2,75,76
 521 586 521 586 541.5 569.5 c 128,-1,77
 562 553 562 553 562 512 c 0,0,1
EndSplineSet
Substitution2: "'jalt' Justification Alternatives in Hebrew lookup 7 subtable" uniFB21
PairPos2: "'kern' Horizontal Kerning in Hebrew lookup 6 subtable" uniFB4A dx=-10 dy=0 dh=-10 dv=0 dx=0 dy=0 dh=0 dv=0
PairPos2: "'kern' Horizontal Kerning in Hebrew lookup 6 subtable" uniFB49 dx=-40 dy=0 dh=-40 dv=0 dx=0 dy=0 dh=0 dv=0
PairPos2: "'kern' Horizontal Kerning in Hebrew lookup 6 subtable" uniFB48 dx=20 dy=0 dh=20 dv=0 dx=0 dy=0 dh=0 dv=0
PairPos2: "'kern' Horizontal Kerning in Hebrew lookup 6 subtable" uniFB47 dx=-15 dy=0 dh=-15 dv=0 dx=0 dy=0 dh=0 dv=0
PairPos2: "'kern' Horizontal Kerning in Hebrew lookup 6 subtable" uniFB46 dx=-10 dy=0 dh=-10 dv=0 dx=0 dy=0 dh=0 dv=0
PairPos2: "'kern' Horizontal Kerning in Hebrew lookup 6 subtable" uniFB45 dx=-30 dy=0 dh=-30 dv=0 dx=0 dy=0 dh=0 dv=0
PairPos2: "'kern' Horizontal Kerning in Hebrew lookup 6 subtable" uniFB42 dx=-35 dy=0 dh=-35 dv=0 dx=0 dy=0 dh=0 dv=0
PairPos2: "'kern' Horizontal Kerning in Hebrew lookup 6 subtable" uniFB40 dx=-10 dy=0 dh=-10 dv=0 dx=0 dy=0 dh=0 dv=0
PairPos2: "'kern' Horizontal Kerning in Hebrew lookup 6 subtable" uniFB3F dx=-10 dy=0 dh=-10 dv=0 dx=0 dy=0 dh=0 dv=0
PairPos2: "'kern' Horizontal Kerning in Hebrew lookup 6 subtable" uniFB3C dx=-30 dy=0 dh=-30 dv=0 dx=0 dy=0 dh=0 dv=0
PairPos2: "'kern' Horizontal Kerning in Hebrew lookup 6 subtable" uniFB3A dx=-10 dy=0 dh=-10 dv=0 dx=0 dy=0 dh=0 dv=0
PairPos2: "'kern' Horizontal Kerning in Hebrew lookup 6 subtable" uniFB39 dx=-25 dy=0 dh=-25 dv=0 dx=0 dy=0 dh=0 dv=0
PairPos2: "'kern' Horizontal Kerning in Hebrew lookup 6 subtable" uniFB38 dx=-10 dy=0 dh=-10 dv=0 dx=0 dy=0 dh=0 dv=0
PairPos2: "'kern' Horizontal Kerning in Hebrew lookup 6 subtable" uniFB37 dx=-20 dy=0 dh=-20 dv=0 dx=0 dy=0 dh=0 dv=0
PairPos2: "'kern' Horizontal Kerning in Hebrew lookup 6 subtable" uniFB36 dx=-25 dy=0 dh=-25 dv=0 dx=0 dy=0 dh=0 dv=0
PairPos2: "'kern' Horizontal Kerning in Hebrew lookup 6 subtable" uniFB34 dx=-10 dy=0 dh=-10 dv=0 dx=0 dy=0 dh=0 dv=0
PairPos2: "'kern' Horizontal Kerning in Hebrew lookup 6 subtable" uniFB33 dx=-10 dy=0 dh=-10 dv=0 dx=0 dy=0 dh=0 dv=0
PairPos2: "'kern' Horizontal Kerning in Hebrew lookup 6 subtable" uniFB32 dx=-10 dy=0 dh=-10 dv=0 dx=0 dy=0 dh=0 dv=0
PairPos2: "'kern' Horizontal Kerning in Hebrew lookup 6 subtable" uniFB30 dx=-20 dy=0 dh=-20 dv=0 dx=0 dy=0 dh=0 dv=0
PairPos2: "'kern' Horizontal Kerning in Hebrew lookup 6 subtable" uniFB2F dx=-20 dy=0 dh=-20 dv=0 dx=0 dy=0 dh=0 dv=0
PairPos2: "'kern' Horizontal Kerning in Hebrew lookup 6 subtable" uniFB2E dx=-20 dy=0 dh=-20 dv=0 dx=0 dy=0 dh=0 dv=0
PairPos2: "'kern' Horizontal Kerning in Hebrew lookup 6 subtable" uniFB2D dx=-40 dy=0 dh=-40 dv=0 dx=0 dy=0 dh=0 dv=0
PairPos2: "'kern' Horizontal Kerning in Hebrew lookup 6 subtable" uniFB2C dx=-40 dy=0 dh=-40 dv=0 dx=0 dy=0 dh=0 dv=0
PairPos2: "'kern' Horizontal Kerning in Hebrew lookup 6 subtable" afii57695 dx=-40 dy=0 dh=-40 dv=0 dx=0 dy=0 dh=0 dv=0
PairPos2: "'kern' Horizontal Kerning in Hebrew lookup 6 subtable" afii57694 dx=-40 dy=0 dh=-40 dv=0 dx=0 dy=0 dh=0 dv=0
PairPos2: "'kern' Horizontal Kerning in Hebrew lookup 6 subtable" uniFB28 dx=-10 dy=0 dh=-10 dv=0 dx=0 dy=0 dh=0 dv=0
PairPos2: "'kern' Horizontal Kerning in Hebrew lookup 6 subtable" uniFB25 dx=-30 dy=0 dh=-30 dv=0 dx=0 dy=0 dh=0 dv=0
PairPos2: "'kern' Horizontal Kerning in Hebrew lookup 6 subtable" uniFB23 dx=-10 dy=0 dh=-10 dv=0 dx=0 dy=0 dh=0 dv=0
PairPos2: "'kern' Horizontal Kerning in Hebrew lookup 6 subtable" uniFB22 dx=-10 dy=0 dh=-10 dv=0 dx=0 dy=0 dh=0 dv=0
PairPos2: "'kern' Horizontal Kerning in Hebrew lookup 6 subtable" uniFB21 dx=-20 dy=0 dh=-20 dv=0 dx=0 dy=0 dh=0 dv=0
PairPos2: "'kern' Horizontal Kerning in Hebrew lookup 6 subtable" afii57705 dx=-25 dy=0 dh=-25 dv=0 dx=0 dy=0 dh=0 dv=0
PairPos2: "'kern' Horizontal Kerning in Hebrew lookup 6 subtable" uniFB1D dx=-25 dy=0 dh=-25 dv=0 dx=0 dy=0 dh=0 dv=0
PairPos2: "'kern' Horizontal Kerning in Hebrew lookup 6 subtable" uniE804 dx=-25 dy=0 dh=-25 dv=0 dx=0 dy=0 dh=0 dv=0
PairPos2: "'kern' Horizontal Kerning in Hebrew lookup 6 subtable" uniE803 dx=-10 dy=0 dh=-10 dv=0 dx=0 dy=0 dh=0 dv=0
PairPos2: "'kern' Horizontal Kerning in Hebrew lookup 6 subtable" uniE802 dx=-10 dy=0 dh=-10 dv=0 dx=0 dy=0 dh=0 dv=0
PairPos2: "'kern' Horizontal Kerning in Hebrew lookup 6 subtable" quotedblright dx=-30 dy=0 dh=-30 dv=0 dx=0 dy=0 dh=0 dv=0
PairPos2: "'kern' Horizontal Kerning in Hebrew lookup 6 subtable" quoteright dx=-30 dy=0 dh=-30 dv=0 dx=0 dy=0 dh=0 dv=0
PairPos2: "'kern' Horizontal Kerning in Hebrew lookup 6 subtable" uni05F4 dx=-30 dy=0 dh=-30 dv=0 dx=0 dy=0 dh=0 dv=0
PairPos2: "'kern' Horizontal Kerning in Hebrew lookup 6 subtable" uni05F3 dx=-30 dy=0 dh=-30 dv=0 dx=0 dy=0 dh=0 dv=0
PairPos2: "'kern' Horizontal Kerning in Hebrew lookup 6 subtable" afii57718 dx=-25 dy=0 dh=-25 dv=0 dx=0 dy=0 dh=0 dv=0
PairPos2: "'kern' Horizontal Kerning in Hebrew lookup 6 subtable" afii57717 dx=-25 dy=0 dh=-25 dv=0 dx=0 dy=0 dh=0 dv=0
PairPos2: "'kern' Horizontal Kerning in Hebrew lookup 6 subtable" afii57690 dx=-10 dy=0 dh=-10 dv=0 dx=0 dy=0 dh=0 dv=0
PairPos2: "'kern' Horizontal Kerning in Hebrew lookup 6 subtable" afii57689 dx=-40 dy=0 dh=-40 dv=0 dx=0 dy=0 dh=0 dv=0
PairPos2: "'kern' Horizontal Kerning in Hebrew lookup 6 subtable" afii57688 dx=20 dy=0 dh=20 dv=0 dx=0 dy=0 dh=0 dv=0
PairPos2: "'kern' Horizontal Kerning in Hebrew lookup 6 subtable" afii57687 dx=-15 dy=0 dh=-15 dv=0 dx=0 dy=0 dh=0 dv=0
PairPos2: "'kern' Horizontal Kerning in Hebrew lookup 6 subtable" afii57686 dx=-10 dy=0 dh=-10 dv=0 dx=0 dy=0 dh=0 dv=0
PairPos2: "'kern' Horizontal Kerning in Hebrew lookup 6 subtable" afii57685 dx=-30 dy=0 dh=-30 dv=0 dx=0 dy=0 dh=0 dv=0
PairPos2: "'kern' Horizontal Kerning in Hebrew lookup 6 subtable" afii57682 dx=-35 dy=0 dh=-35 dv=0 dx=0 dy=0 dh=0 dv=0
PairPos2: "'kern' Horizontal Kerning in Hebrew lookup 6 subtable" afii57680 dx=-10 dy=0 dh=-10 dv=0 dx=0 dy=0 dh=0 dv=0
PairPos2: "'kern' Horizontal Kerning in Hebrew lookup 6 subtable" afii57679 dx=-10 dy=0 dh=-10 dv=0 dx=0 dy=0 dh=0 dv=0
PairPos2: "'kern' Horizontal Kerning in Hebrew lookup 6 subtable" afii57676 dx=-30 dy=0 dh=-30 dv=0 dx=0 dy=0 dh=0 dv=0
PairPos2: "'kern' Horizontal Kerning in Hebrew lookup 6 subtable" afii57674 dx=-10 dy=0 dh=-10 dv=0 dx=0 dy=0 dh=0 dv=0
PairPos2: "'kern' Horizontal Kerning in Hebrew lookup 6 subtable" afii57673 dx=-25 dy=0 dh=-25 dv=0 dx=0 dy=0 dh=0 dv=0
PairPos2: "'kern' Horizontal Kerning in Hebrew lookup 6 subtable" afii57672 dx=-10 dy=0 dh=-10 dv=0 dx=0 dy=0 dh=0 dv=0
PairPos2: "'kern' Horizontal Kerning in Hebrew lookup 6 subtable" afii57671 dx=-20 dy=0 dh=-20 dv=0 dx=0 dy=0 dh=0 dv=0
PairPos2: "'kern' Horizontal Kerning in Hebrew lookup 6 subtable" afii57670 dx=-25 dy=0 dh=-25 dv=0 dx=0 dy=0 dh=0 dv=0
PairPos2: "'kern' Horizontal Kerning in Hebrew lookup 6 subtable" afii57668 dx=-10 dy=0 dh=-10 dv=0 dx=0 dy=0 dh=0 dv=0
PairPos2: "'kern' Horizontal Kerning in Hebrew lookup 6 subtable" afii57667 dx=-10 dy=0 dh=-10 dv=0 dx=0 dy=0 dh=0 dv=0
PairPos2: "'kern' Horizontal Kerning in Hebrew lookup 6 subtable" afii57666 dx=-10 dy=0 dh=-10 dv=0 dx=0 dy=0 dh=0 dv=0
PairPos2: "'kern' Horizontal Kerning in Hebrew lookup 6 subtable" afii57664 dx=-20 dy=0 dh=-20 dv=0 dx=0 dy=0 dh=0 dv=0
PairPos2: "'kern' Horizontal Kerning in Hebrew lookup 6 subtable" afii57645 dx=-30 dy=0 dh=-30 dv=0 dx=0 dy=0 dh=0 dv=0
PairPos2: "'kern' Horizontal Kerning in Hebrew lookup 6 subtable" question dx=-20 dy=0 dh=-20 dv=0 dx=0 dy=0 dh=0 dv=0
PairPos2: "'kern' Horizontal Kerning in Hebrew lookup 6 subtable" hyphen dx=-10 dy=0 dh=-10 dv=0 dx=0 dy=0 dh=0 dv=0
PairPos2: "'kern' Horizontal Kerning in Hebrew lookup 6 subtable" quotesingle dx=-30 dy=0 dh=-30 dv=0 dx=0 dy=0 dh=0 dv=0
PairPos2: "'kern' Horizontal Kerning in Hebrew lookup 6 subtable" quotedbl dx=-30 dy=0 dh=-30 dv=0 dx=0 dy=0 dh=0 dv=0
EndChar

StartChar: afii57665
Encoding: 1489 1489 156
Width: 509
GlyphClass: 2
Flags: W
AnchorPoint: "Anchor-5" 252 0 basechar 0
AnchorPoint: "Anchor-4" 262 0 basechar 0
AnchorPoint: "Anchor-3" 252 0 basechar 0
AnchorPoint: "Anchor-2" 262 0 basechar 0
AnchorPoint: "Anchor-1" -8 0 basechar 0
AnchorPoint: "Anchor-0" 243 0 basechar 0
LayerCount: 2
Fore
SplineSet
124 600 m 2,0,-1
 344 600 l 2,1,2
 361 600 361 600 383 590.5 c 128,-1,3
 405 581 405 581 418 560 c 0,4,5
 450 502 450 502 450 378 c 0,6,7
 450 262 450 262 399 153 c 0,8,9
 398 150 398 150 399 146 c 128,-1,10
 400 142 400 142 404 142 c 2,11,-1
 476 142 l 2,12,13
 491 142 491 142 494.5 136 c 128,-1,14
 498 130 498 130 494 118 c 2,15,-1
 467 20 l 2,16,17
 464 8 464 8 459 4 c 128,-1,18
 454 0 454 0 439 0 c 2,19,-1
 55 0 l 2,20,21
 40 0 40 0 36.5 6.5 c 128,-1,22
 33 13 33 13 37 25 c 2,23,-1
 64 129 l 2,24,25
 66 137 66 137 70 139.5 c 128,-1,26
 74 142 74 142 85 142 c 2,27,-1
 308 142 l 2,28,29
 340 142 340 142 348 150 c 0,30,31
 362 164 362 164 371 206 c 128,-1,32
 380 248 380 248 380 298 c 0,33,34
 380 380 380 380 358 418 c 0,35,36
 333 458 333 458 273 458 c 2,37,-1
 132 458 l 2,38,39
 89 458 89 458 68.5 479 c 128,-1,40
 48 500 48 500 48 545 c 0,41,42
 48 580 48 580 61.5 613 c 128,-1,43
 75 646 75 646 95 646 c 0,44,45
 102 646 102 646 103.5 643 c 128,-1,46
 105 640 105 640 104 632.5 c 128,-1,47
 103 625 103 625 104 620 c 0,48,49
 105 612 105 612 111 606 c 128,-1,50
 117 600 117 600 124 600 c 2,0,-1
EndSplineSet
PairPos2: "'kern' Horizontal Kerning in Hebrew lookup 6 subtable" uniFB4D dx=-15 dy=0 dh=-15 dv=0 dx=0 dy=0 dh=0 dv=0
PairPos2: "'kern' Horizontal Kerning in Hebrew lookup 6 subtable" uniFB4C dx=10 dy=0 dh=10 dv=0 dx=0 dy=0 dh=0 dv=0
PairPos2: "'kern' Horizontal Kerning in Hebrew lookup 6 subtable" uniFB49 dx=-10 dy=0 dh=-10 dv=0 dx=0 dy=0 dh=0 dv=0
PairPos2: "'kern' Horizontal Kerning in Hebrew lookup 6 subtable" uniFB48 dx=20 dy=0 dh=20 dv=0 dx=0 dy=0 dh=0 dv=0
PairPos2: "'kern' Horizontal Kerning in Hebrew lookup 6 subtable" uniFB42 dx=-10 dy=0 dh=-10 dv=0 dx=0 dy=0 dh=0 dv=0
PairPos2: "'kern' Horizontal Kerning in Hebrew lookup 6 subtable" uniFB40 dx=10 dy=0 dh=10 dv=0 dx=0 dy=0 dh=0 dv=0
PairPos2: "'kern' Horizontal Kerning in Hebrew lookup 6 subtable" uniFB3E dx=10 dy=0 dh=10 dv=0 dx=0 dy=0 dh=0 dv=0
PairPos2: "'kern' Horizontal Kerning in Hebrew lookup 6 subtable" uniFB3D dx=10 dy=0 dh=10 dv=0 dx=0 dy=0 dh=0 dv=0
PairPos2: "'kern' Horizontal Kerning in Hebrew lookup 6 subtable" uniFB3B dx=-15 dy=0 dh=-15 dv=0 dx=0 dy=0 dh=0 dv=0
PairPos2: "'kern' Horizontal Kerning in Hebrew lookup 6 subtable" uniFB39 dx=-10 dy=0 dh=-10 dv=0 dx=0 dy=0 dh=0 dv=0
PairPos2: "'kern' Horizontal Kerning in Hebrew lookup 6 subtable" uniFB37 dx=10 dy=0 dh=10 dv=0 dx=0 dy=0 dh=0 dv=0
PairPos2: "'kern' Horizontal Kerning in Hebrew lookup 6 subtable" uniFB36 dx=-10 dy=0 dh=-10 dv=0 dx=0 dy=0 dh=0 dv=0
PairPos2: "'kern' Horizontal Kerning in Hebrew lookup 6 subtable" uniFB31 dx=10 dy=0 dh=10 dv=0 dx=0 dy=0 dh=0 dv=0
PairPos2: "'kern' Horizontal Kerning in Hebrew lookup 6 subtable" uniFB2D dx=-10 dy=0 dh=-10 dv=0 dx=0 dy=0 dh=0 dv=0
PairPos2: "'kern' Horizontal Kerning in Hebrew lookup 6 subtable" uniFB2C dx=-10 dy=0 dh=-10 dv=0 dx=0 dy=0 dh=0 dv=0
PairPos2: "'kern' Horizontal Kerning in Hebrew lookup 6 subtable" afii57695 dx=-10 dy=0 dh=-10 dv=0 dx=0 dy=0 dh=0 dv=0
PairPos2: "'kern' Horizontal Kerning in Hebrew lookup 6 subtable" afii57694 dx=-10 dy=0 dh=-10 dv=0 dx=0 dy=0 dh=0 dv=0
PairPos2: "'kern' Horizontal Kerning in Hebrew lookup 6 subtable" uniFB26 dx=10 dy=0 dh=10 dv=0 dx=0 dy=0 dh=0 dv=0
PairPos2: "'kern' Horizontal Kerning in Hebrew lookup 6 subtable" uniFB24 dx=-15 dy=0 dh=-15 dv=0 dx=0 dy=0 dh=0 dv=0
PairPos2: "'kern' Horizontal Kerning in Hebrew lookup 6 subtable" afii57705 dx=-10 dy=0 dh=-10 dv=0 dx=0 dy=0 dh=0 dv=0
PairPos2: "'kern' Horizontal Kerning in Hebrew lookup 6 subtable" uniFB1D dx=-10 dy=0 dh=-10 dv=0 dx=0 dy=0 dh=0 dv=0
PairPos2: "'kern' Horizontal Kerning in Hebrew lookup 6 subtable" uniE804 dx=-10 dy=0 dh=-10 dv=0 dx=0 dy=0 dh=0 dv=0
PairPos2: "'kern' Horizontal Kerning in Hebrew lookup 6 subtable" ellipsis dx=10 dy=0 dh=10 dv=0 dx=0 dy=0 dh=0 dv=0
PairPos2: "'kern' Horizontal Kerning in Hebrew lookup 6 subtable" afii57718 dx=-10 dy=0 dh=-10 dv=0 dx=0 dy=0 dh=0 dv=0
PairPos2: "'kern' Horizontal Kerning in Hebrew lookup 6 subtable" afii57717 dx=-10 dy=0 dh=-10 dv=0 dx=0 dy=0 dh=0 dv=0
PairPos2: "'kern' Horizontal Kerning in Hebrew lookup 6 subtable" afii57689 dx=-10 dy=0 dh=-10 dv=0 dx=0 dy=0 dh=0 dv=0
PairPos2: "'kern' Horizontal Kerning in Hebrew lookup 6 subtable" afii57688 dx=20 dy=0 dh=20 dv=0 dx=0 dy=0 dh=0 dv=0
PairPos2: "'kern' Horizontal Kerning in Hebrew lookup 6 subtable" afii57682 dx=-10 dy=0 dh=-10 dv=0 dx=0 dy=0 dh=0 dv=0
PairPos2: "'kern' Horizontal Kerning in Hebrew lookup 6 subtable" afii57680 dx=10 dy=0 dh=10 dv=0 dx=0 dy=0 dh=0 dv=0
PairPos2: "'kern' Horizontal Kerning in Hebrew lookup 6 subtable" afii57678 dx=10 dy=0 dh=10 dv=0 dx=0 dy=0 dh=0 dv=0
PairPos2: "'kern' Horizontal Kerning in Hebrew lookup 6 subtable" afii57677 dx=10 dy=0 dh=10 dv=0 dx=0 dy=0 dh=0 dv=0
PairPos2: "'kern' Horizontal Kerning in Hebrew lookup 6 subtable" afii57675 dx=-15 dy=0 dh=-15 dv=0 dx=0 dy=0 dh=0 dv=0
PairPos2: "'kern' Horizontal Kerning in Hebrew lookup 6 subtable" afii57673 dx=-10 dy=0 dh=-10 dv=0 dx=0 dy=0 dh=0 dv=0
PairPos2: "'kern' Horizontal Kerning in Hebrew lookup 6 subtable" afii57671 dx=10 dy=0 dh=10 dv=0 dx=0 dy=0 dh=0 dv=0
PairPos2: "'kern' Horizontal Kerning in Hebrew lookup 6 subtable" afii57670 dx=-10 dy=0 dh=-10 dv=0 dx=0 dy=0 dh=0 dv=0
PairPos2: "'kern' Horizontal Kerning in Hebrew lookup 6 subtable" afii57665 dx=10 dy=0 dh=10 dv=0 dx=0 dy=0 dh=0 dv=0
PairPos2: "'kern' Horizontal Kerning in Hebrew lookup 6 subtable" question dx=10 dy=0 dh=10 dv=0 dx=0 dy=0 dh=0 dv=0
PairPos2: "'kern' Horizontal Kerning in Hebrew lookup 6 subtable" period dx=10 dy=0 dh=10 dv=0 dx=0 dy=0 dh=0 dv=0
PairPos2: "'kern' Horizontal Kerning in Hebrew lookup 6 subtable" hyphen dx=10 dy=0 dh=10 dv=0 dx=0 dy=0 dh=0 dv=0
PairPos2: "'kern' Horizontal Kerning in Hebrew lookup 6 subtable" comma dx=10 dy=0 dh=10 dv=0 dx=0 dy=0 dh=0 dv=0
EndChar

StartChar: afii57666
Encoding: 1490 1490 157
Width: 423
GlyphClass: 2
Flags: W
AnchorPoint: "Anchor-5" 211 0 basechar 0
AnchorPoint: "Anchor-4" 221 0 basechar 0
AnchorPoint: "Anchor-3" 226 0 basechar 0
AnchorPoint: "Anchor-2" 216 0 basechar 0
AnchorPoint: "Anchor-1" 46 0 basechar 0
AnchorPoint: "Anchor-0" 185 0 basechar 0
LayerCount: 2
Fore
SplineSet
62 0 m 2,0,1
 46 0 46 0 43 6.5 c 128,-1,2
 40 13 40 13 44 25 c 2,3,-1
 71 129 l 2,4,5
 73 137 73 137 77 139.5 c 128,-1,6
 81 142 81 142 92 142 c 2,7,-1
 144 142 l 2,8,9
 163 142 163 142 179.5 145.5 c 128,-1,10
 196 149 196 149 207 157.5 c 128,-1,11
 218 166 218 166 227 173.5 c 128,-1,12
 236 181 236 181 242 194.5 c 128,-1,13
 248 208 248 208 251.5 216.5 c 128,-1,14
 255 225 255 225 257 241 c 128,-1,15
 259 257 259 257 260 262.5 c 128,-1,16
 261 268 261 268 261.5 282.5 c 128,-1,17
 262 297 262 297 262 298 c 0,18,19
 272 458 272 458 215 458 c 2,20,-1
 183 458 l 2,21,22
 140 458 140 458 119.5 479 c 128,-1,23
 99 500 99 500 99 546 c 0,24,25
 99 582 99 582 113 614 c 128,-1,26
 127 646 127 646 146 646 c 0,27,28
 153 646 153 646 155 643 c 128,-1,29
 157 640 157 640 155.5 631.5 c 128,-1,30
 154 623 154 623 155 619 c 0,31,32
 156 611 156 611 162 605.5 c 128,-1,33
 168 600 168 600 175 600 c 2,34,-1
 252 600 l 2,35,36
 262 600 262 600 273.5 597 c 128,-1,37
 285 594 285 594 303 585 c 128,-1,38
 321 576 321 576 330 552.5 c 128,-1,39
 339 529 339 529 334 495 c 0,40,41
 317 381 317 381 317 339 c 0,42,43
 317 288 317 288 353.5 205 c 128,-1,44
 390 122 390 122 390 57 c 0,45,46
 390 45 390 45 389.5 36.5 c 128,-1,47
 389 28 389 28 387 17.5 c 128,-1,48
 385 7 385 7 380 1.5 c 128,-1,49
 375 -4 375 -4 368 -4 c 0,50,51
 354 -4 354 -4 342 23 c 128,-1,52
 330 50 330 50 314 90.5 c 128,-1,53
 298 131 298 131 280 152 c 0,54,55
 265 170 265 170 243 116 c 0,56,57
 240 108 240 108 228 74 c 2,58,-1
 209 20 l 2,59,60
 205 9 205 9 200 4.5 c 128,-1,61
 195 0 195 0 182 0 c 2,62,-1
 62 0 l 2,0,1
EndSplineSet
PairPos2: "'kern' Horizontal Kerning in Hebrew lookup 6 subtable" uniFB4E dx=-10 dy=0 dh=-10 dv=0 dx=0 dy=0 dh=0 dv=0
PairPos2: "'kern' Horizontal Kerning in Hebrew lookup 6 subtable" uniFB4D dx=-15 dy=0 dh=-15 dv=0 dx=0 dy=0 dh=0 dv=0
PairPos2: "'kern' Horizontal Kerning in Hebrew lookup 6 subtable" uniFB4C dx=10 dy=0 dh=10 dv=0 dx=0 dy=0 dh=0 dv=0
PairPos2: "'kern' Horizontal Kerning in Hebrew lookup 6 subtable" afii57700 dx=-10 dy=0 dh=-10 dv=0 dx=0 dy=0 dh=0 dv=0
PairPos2: "'kern' Horizontal Kerning in Hebrew lookup 6 subtable" uniFB4A dx=-20 dy=0 dh=-20 dv=0 dx=0 dy=0 dh=0 dv=0
PairPos2: "'kern' Horizontal Kerning in Hebrew lookup 6 subtable" uniFB49 dx=-55 dy=0 dh=-55 dv=0 dx=0 dy=0 dh=0 dv=0
PairPos2: "'kern' Horizontal Kerning in Hebrew lookup 6 subtable" uniFB47 dx=-50 dy=0 dh=-50 dv=0 dx=0 dy=0 dh=0 dv=0
PairPos2: "'kern' Horizontal Kerning in Hebrew lookup 6 subtable" uniFB46 dx=-10 dy=0 dh=-10 dv=0 dx=0 dy=0 dh=0 dv=0
PairPos2: "'kern' Horizontal Kerning in Hebrew lookup 6 subtable" uniFB45 dx=-45 dy=0 dh=-45 dv=0 dx=0 dy=0 dh=0 dv=0
PairPos2: "'kern' Horizontal Kerning in Hebrew lookup 6 subtable" uniFB44 dx=-10 dy=0 dh=-10 dv=0 dx=0 dy=0 dh=0 dv=0
PairPos2: "'kern' Horizontal Kerning in Hebrew lookup 6 subtable" uniFB42 dx=-50 dy=0 dh=-50 dv=0 dx=0 dy=0 dh=0 dv=0
PairPos2: "'kern' Horizontal Kerning in Hebrew lookup 6 subtable" uniFB41 dx=-10 dy=0 dh=-10 dv=0 dx=0 dy=0 dh=0 dv=0
PairPos2: "'kern' Horizontal Kerning in Hebrew lookup 6 subtable" uniFB3F dx=-20 dy=0 dh=-20 dv=0 dx=0 dy=0 dh=0 dv=0
PairPos2: "'kern' Horizontal Kerning in Hebrew lookup 6 subtable" uniFB3C dx=-40 dy=0 dh=-40 dv=0 dx=0 dy=0 dh=0 dv=0
PairPos2: "'kern' Horizontal Kerning in Hebrew lookup 6 subtable" uniFB3B dx=-15 dy=0 dh=-15 dv=0 dx=0 dy=0 dh=0 dv=0
PairPos2: "'kern' Horizontal Kerning in Hebrew lookup 6 subtable" uniFB3A dx=-15 dy=0 dh=-15 dv=0 dx=0 dy=0 dh=0 dv=0
PairPos2: "'kern' Horizontal Kerning in Hebrew lookup 6 subtable" uniFB39 dx=-30 dy=0 dh=-30 dv=0 dx=0 dy=0 dh=0 dv=0
PairPos2: "'kern' Horizontal Kerning in Hebrew lookup 6 subtable" uniFB38 dx=-10 dy=0 dh=-10 dv=0 dx=0 dy=0 dh=0 dv=0
PairPos2: "'kern' Horizontal Kerning in Hebrew lookup 6 subtable" uniFB37 dx=-10 dy=0 dh=-10 dv=0 dx=0 dy=0 dh=0 dv=0
PairPos2: "'kern' Horizontal Kerning in Hebrew lookup 6 subtable" uniFB36 dx=-40 dy=0 dh=-40 dv=0 dx=0 dy=0 dh=0 dv=0
PairPos2: "'kern' Horizontal Kerning in Hebrew lookup 6 subtable" afii57723 dx=-10 dy=0 dh=-10 dv=0 dx=0 dy=0 dh=0 dv=0
PairPos2: "'kern' Horizontal Kerning in Hebrew lookup 6 subtable" uniFB34 dx=-10 dy=0 dh=-10 dv=0 dx=0 dy=0 dh=0 dv=0
PairPos2: "'kern' Horizontal Kerning in Hebrew lookup 6 subtable" uniFB33 dx=-15 dy=0 dh=-15 dv=0 dx=0 dy=0 dh=0 dv=0
PairPos2: "'kern' Horizontal Kerning in Hebrew lookup 6 subtable" uniFB31 dx=10 dy=0 dh=10 dv=0 dx=0 dy=0 dh=0 dv=0
PairPos2: "'kern' Horizontal Kerning in Hebrew lookup 6 subtable" uniFB30 dx=-20 dy=0 dh=-20 dv=0 dx=0 dy=0 dh=0 dv=0
PairPos2: "'kern' Horizontal Kerning in Hebrew lookup 6 subtable" uniFB2F dx=-20 dy=0 dh=-20 dv=0 dx=0 dy=0 dh=0 dv=0
PairPos2: "'kern' Horizontal Kerning in Hebrew lookup 6 subtable" uniFB2E dx=-20 dy=0 dh=-20 dv=0 dx=0 dy=0 dh=0 dv=0
PairPos2: "'kern' Horizontal Kerning in Hebrew lookup 6 subtable" uniFB2D dx=-55 dy=0 dh=-55 dv=0 dx=0 dy=0 dh=0 dv=0
PairPos2: "'kern' Horizontal Kerning in Hebrew lookup 6 subtable" uniFB2C dx=-55 dy=0 dh=-55 dv=0 dx=0 dy=0 dh=0 dv=0
PairPos2: "'kern' Horizontal Kerning in Hebrew lookup 6 subtable" afii57695 dx=-55 dy=0 dh=-55 dv=0 dx=0 dy=0 dh=0 dv=0
PairPos2: "'kern' Horizontal Kerning in Hebrew lookup 6 subtable" afii57694 dx=-55 dy=0 dh=-55 dv=0 dx=0 dy=0 dh=0 dv=0
PairPos2: "'kern' Horizontal Kerning in Hebrew lookup 6 subtable" uniFB28 dx=-20 dy=0 dh=-20 dv=0 dx=0 dy=0 dh=0 dv=0
PairPos2: "'kern' Horizontal Kerning in Hebrew lookup 6 subtable" uniFB25 dx=-40 dy=0 dh=-40 dv=0 dx=0 dy=0 dh=0 dv=0
PairPos2: "'kern' Horizontal Kerning in Hebrew lookup 6 subtable" uniFB24 dx=-15 dy=0 dh=-15 dv=0 dx=0 dy=0 dh=0 dv=0
PairPos2: "'kern' Horizontal Kerning in Hebrew lookup 6 subtable" uniFB23 dx=-10 dy=0 dh=-10 dv=0 dx=0 dy=0 dh=0 dv=0
PairPos2: "'kern' Horizontal Kerning in Hebrew lookup 6 subtable" uniFB22 dx=-15 dy=0 dh=-15 dv=0 dx=0 dy=0 dh=0 dv=0
PairPos2: "'kern' Horizontal Kerning in Hebrew lookup 6 subtable" uniFB21 dx=-20 dy=0 dh=-20 dv=0 dx=0 dy=0 dh=0 dv=0
PairPos2: "'kern' Horizontal Kerning in Hebrew lookup 6 subtable" afii57705 dx=-30 dy=0 dh=-30 dv=0 dx=0 dy=0 dh=0 dv=0
PairPos2: "'kern' Horizontal Kerning in Hebrew lookup 6 subtable" uniFB1D dx=-30 dy=0 dh=-30 dv=0 dx=0 dy=0 dh=0 dv=0
PairPos2: "'kern' Horizontal Kerning in Hebrew lookup 6 subtable" uniE804 dx=-30 dy=0 dh=-30 dv=0 dx=0 dy=0 dh=0 dv=0
PairPos2: "'kern' Horizontal Kerning in Hebrew lookup 6 subtable" uniE803 dx=-15 dy=0 dh=-15 dv=0 dx=0 dy=0 dh=0 dv=0
PairPos2: "'kern' Horizontal Kerning in Hebrew lookup 6 subtable" uniE802 dx=-15 dy=0 dh=-15 dv=0 dx=0 dy=0 dh=0 dv=0
PairPos2: "'kern' Horizontal Kerning in Hebrew lookup 6 subtable" uniE801 dx=-10 dy=0 dh=-10 dv=0 dx=0 dy=0 dh=0 dv=0
PairPos2: "'kern' Horizontal Kerning in Hebrew lookup 6 subtable" quotedblright dx=-45 dy=0 dh=-45 dv=0 dx=0 dy=0 dh=0 dv=0
PairPos2: "'kern' Horizontal Kerning in Hebrew lookup 6 subtable" quoteright dx=-45 dy=0 dh=-45 dv=0 dx=0 dy=0 dh=0 dv=0
PairPos2: "'kern' Horizontal Kerning in Hebrew lookup 6 subtable" uni05F4 dx=-45 dy=0 dh=-45 dv=0 dx=0 dy=0 dh=0 dv=0
PairPos2: "'kern' Horizontal Kerning in Hebrew lookup 6 subtable" uni05F3 dx=-45 dy=0 dh=-45 dv=0 dx=0 dy=0 dh=0 dv=0
PairPos2: "'kern' Horizontal Kerning in Hebrew lookup 6 subtable" afii57718 dx=-30 dy=0 dh=-30 dv=0 dx=0 dy=0 dh=0 dv=0
PairPos2: "'kern' Horizontal Kerning in Hebrew lookup 6 subtable" afii57717 dx=-30 dy=0 dh=-30 dv=0 dx=0 dy=0 dh=0 dv=0
PairPos2: "'kern' Horizontal Kerning in Hebrew lookup 6 subtable" afii57716 dx=-10 dy=0 dh=-10 dv=0 dx=0 dy=0 dh=0 dv=0
PairPos2: "'kern' Horizontal Kerning in Hebrew lookup 6 subtable" afii57690 dx=-20 dy=0 dh=-20 dv=0 dx=0 dy=0 dh=0 dv=0
PairPos2: "'kern' Horizontal Kerning in Hebrew lookup 6 subtable" afii57689 dx=-55 dy=0 dh=-55 dv=0 dx=0 dy=0 dh=0 dv=0
PairPos2: "'kern' Horizontal Kerning in Hebrew lookup 6 subtable" afii57687 dx=-50 dy=0 dh=-50 dv=0 dx=0 dy=0 dh=0 dv=0
PairPos2: "'kern' Horizontal Kerning in Hebrew lookup 6 subtable" afii57686 dx=-10 dy=0 dh=-10 dv=0 dx=0 dy=0 dh=0 dv=0
PairPos2: "'kern' Horizontal Kerning in Hebrew lookup 6 subtable" afii57685 dx=-45 dy=0 dh=-45 dv=0 dx=0 dy=0 dh=0 dv=0
PairPos2: "'kern' Horizontal Kerning in Hebrew lookup 6 subtable" afii57684 dx=-10 dy=0 dh=-10 dv=0 dx=0 dy=0 dh=0 dv=0
PairPos2: "'kern' Horizontal Kerning in Hebrew lookup 6 subtable" afii57682 dx=-50 dy=0 dh=-50 dv=0 dx=0 dy=0 dh=0 dv=0
PairPos2: "'kern' Horizontal Kerning in Hebrew lookup 6 subtable" afii57681 dx=-10 dy=0 dh=-10 dv=0 dx=0 dy=0 dh=0 dv=0
PairPos2: "'kern' Horizontal Kerning in Hebrew lookup 6 subtable" afii57679 dx=-20 dy=0 dh=-20 dv=0 dx=0 dy=0 dh=0 dv=0
PairPos2: "'kern' Horizontal Kerning in Hebrew lookup 6 subtable" afii57676 dx=-40 dy=0 dh=-40 dv=0 dx=0 dy=0 dh=0 dv=0
PairPos2: "'kern' Horizontal Kerning in Hebrew lookup 6 subtable" afii57675 dx=-15 dy=0 dh=-15 dv=0 dx=0 dy=0 dh=0 dv=0
PairPos2: "'kern' Horizontal Kerning in Hebrew lookup 6 subtable" afii57674 dx=-15 dy=0 dh=-15 dv=0 dx=0 dy=0 dh=0 dv=0
PairPos2: "'kern' Horizontal Kerning in Hebrew lookup 6 subtable" afii57673 dx=-30 dy=0 dh=-30 dv=0 dx=0 dy=0 dh=0 dv=0
PairPos2: "'kern' Horizontal Kerning in Hebrew lookup 6 subtable" afii57672 dx=-10 dy=0 dh=-10 dv=0 dx=0 dy=0 dh=0 dv=0
PairPos2: "'kern' Horizontal Kerning in Hebrew lookup 6 subtable" afii57671 dx=-10 dy=0 dh=-10 dv=0 dx=0 dy=0 dh=0 dv=0
PairPos2: "'kern' Horizontal Kerning in Hebrew lookup 6 subtable" afii57670 dx=-40 dy=0 dh=-40 dv=0 dx=0 dy=0 dh=0 dv=0
PairPos2: "'kern' Horizontal Kerning in Hebrew lookup 6 subtable" afii57669 dx=-10 dy=0 dh=-10 dv=0 dx=0 dy=0 dh=0 dv=0
PairPos2: "'kern' Horizontal Kerning in Hebrew lookup 6 subtable" afii57668 dx=-10 dy=0 dh=-10 dv=0 dx=0 dy=0 dh=0 dv=0
PairPos2: "'kern' Horizontal Kerning in Hebrew lookup 6 subtable" afii57667 dx=-15 dy=0 dh=-15 dv=0 dx=0 dy=0 dh=0 dv=0
PairPos2: "'kern' Horizontal Kerning in Hebrew lookup 6 subtable" afii57665 dx=10 dy=0 dh=10 dv=0 dx=0 dy=0 dh=0 dv=0
PairPos2: "'kern' Horizontal Kerning in Hebrew lookup 6 subtable" afii57664 dx=-20 dy=0 dh=-20 dv=0 dx=0 dy=0 dh=0 dv=0
PairPos2: "'kern' Horizontal Kerning in Hebrew lookup 6 subtable" afii57645 dx=-45 dy=0 dh=-45 dv=0 dx=0 dy=0 dh=0 dv=0
PairPos2: "'kern' Horizontal Kerning in Hebrew lookup 6 subtable" question dx=-30 dy=0 dh=-30 dv=0 dx=0 dy=0 dh=0 dv=0
PairPos2: "'kern' Horizontal Kerning in Hebrew lookup 6 subtable" hyphen dx=-30 dy=0 dh=-30 dv=0 dx=0 dy=0 dh=0 dv=0
PairPos2: "'kern' Horizontal Kerning in Hebrew lookup 6 subtable" quotesingle dx=-45 dy=0 dh=-45 dv=0 dx=0 dy=0 dh=0 dv=0
PairPos2: "'kern' Horizontal Kerning in Hebrew lookup 6 subtable" quotedbl dx=-45 dy=0 dh=-45 dv=0 dx=0 dy=0 dh=0 dv=0
EndChar

StartChar: afii57667
Encoding: 1491 1491 158
Width: 528
GlyphClass: 2
Flags: W
AnchorPoint: "Anchor-5" 372 0 basechar 0
AnchorPoint: "Anchor-4" 362 0 basechar 0
AnchorPoint: "Anchor-3" 312 0 basechar 0
AnchorPoint: "Anchor-2" 317 0 basechar 0
AnchorPoint: "Anchor-1" -18 0 basechar 0
AnchorPoint: "Anchor-0" 249 0 basechar 0
LayerCount: 2
Fore
SplineSet
33 546 m 0,0,1
 33 582 33 582 47 614 c 128,-1,2
 61 646 61 646 80 646 c 0,3,4
 88 646 88 646 89.5 643 c 128,-1,5
 91 640 91 640 90 631.5 c 128,-1,6
 89 623 89 623 90 619 c 0,7,8
 91 611 91 611 97 605.5 c 128,-1,9
 103 600 103 600 109 600 c 2,10,-1
 469 600 l 2,11,12
 500 600 500 600 501 560 c 2,13,-1
 501 476 l 2,14,15
 501 464 501 464 495 461 c 128,-1,16
 489 458 489 458 480.5 459.5 c 128,-1,17
 472 461 472 461 460 453.5 c 128,-1,18
 448 446 448 446 440 428 c 0,19,20
 423 394 423 394 420 346 c 128,-1,21
 417 298 417 298 422 259 c 128,-1,22
 427 220 427 220 433 175 c 128,-1,23
 439 130 439 130 438 107 c 0,24,25
 435 50 435 50 407 22 c 0,26,27
 391 6 391 6 369 -0.5 c 128,-1,28
 347 -7 347 -7 341 4 c 0,29,30
 339 8 339 8 338.5 10 c 128,-1,31
 338 12 338 12 339 14.5 c 128,-1,32
 340 17 340 17 342 25.5 c 128,-1,33
 344 34 344 34 345.5 47 c 128,-1,34
 347 60 347 60 348 88 c 128,-1,35
 349 116 349 116 350 152 c 0,36,37
 350 155 350 155 348.5 190 c 128,-1,38
 347 225 347 225 347 253.5 c 128,-1,39
 347 282 347 282 351.5 321.5 c 128,-1,40
 356 361 356 361 366 388 c 0,41,42
 373 409 373 409 382 422.5 c 128,-1,43
 391 436 391 436 396.5 441.5 c 128,-1,44
 402 447 402 447 402 450 c 0,45,46
 402 459 402 459 384 458 c 0,47,48
 382 458 382 458 381 458 c 2,49,-1
 118 458 l 2,50,51
 74 458 74 458 53.5 479.5 c 128,-1,52
 33 501 33 501 33 546 c 0,0,1
EndSplineSet
Substitution2: "'jalt' Justification Alternatives in Hebrew lookup 7 subtable" uniFB22
PairPos2: "'kern' Horizontal Kerning in Hebrew lookup 6 subtable" uniFB4C dx=-15 dy=0 dh=-15 dv=0 dx=0 dy=0 dh=0 dv=0
PairPos2: "'kern' Horizontal Kerning in Hebrew lookup 6 subtable" uniFB48 dx=10 dy=0 dh=10 dv=0 dx=0 dy=0 dh=0 dv=0
PairPos2: "'kern' Horizontal Kerning in Hebrew lookup 6 subtable" uniFB47 dx=10 dy=0 dh=10 dv=0 dx=0 dy=0 dh=0 dv=0
PairPos2: "'kern' Horizontal Kerning in Hebrew lookup 6 subtable" uniFB43 dx=-25 dy=0 dh=-25 dv=0 dx=0 dy=0 dh=0 dv=0
PairPos2: "'kern' Horizontal Kerning in Hebrew lookup 6 subtable" uniFB41 dx=-15 dy=0 dh=-15 dv=0 dx=0 dy=0 dh=0 dv=0
PairPos2: "'kern' Horizontal Kerning in Hebrew lookup 6 subtable" uniFB3E dx=-10 dy=0 dh=-10 dv=0 dx=0 dy=0 dh=0 dv=0
PairPos2: "'kern' Horizontal Kerning in Hebrew lookup 6 subtable" uniFB38 dx=-10 dy=0 dh=-10 dv=0 dx=0 dy=0 dh=0 dv=0
PairPos2: "'kern' Horizontal Kerning in Hebrew lookup 6 subtable" uniFB32 dx=-30 dy=0 dh=-30 dv=0 dx=0 dy=0 dh=0 dv=0
PairPos2: "'kern' Horizontal Kerning in Hebrew lookup 6 subtable" uniFB31 dx=-15 dy=0 dh=-15 dv=0 dx=0 dy=0 dh=0 dv=0
PairPos2: "'kern' Horizontal Kerning in Hebrew lookup 6 subtable" ellipsis dx=-100 dy=0 dh=-100 dv=0 dx=0 dy=0 dh=0 dv=0
PairPos2: "'kern' Horizontal Kerning in Hebrew lookup 6 subtable" quotedblright dx=17 dy=0 dh=17 dv=0 dx=0 dy=0 dh=0 dv=0
PairPos2: "'kern' Horizontal Kerning in Hebrew lookup 6 subtable" quoteright dx=17 dy=0 dh=17 dv=0 dx=0 dy=0 dh=0 dv=0
PairPos2: "'kern' Horizontal Kerning in Hebrew lookup 6 subtable" uni05F4 dx=17 dy=0 dh=17 dv=0 dx=0 dy=0 dh=0 dv=0
PairPos2: "'kern' Horizontal Kerning in Hebrew lookup 6 subtable" uni05F3 dx=17 dy=0 dh=17 dv=0 dx=0 dy=0 dh=0 dv=0
PairPos2: "'kern' Horizontal Kerning in Hebrew lookup 6 subtable" afii57688 dx=10 dy=0 dh=10 dv=0 dx=0 dy=0 dh=0 dv=0
PairPos2: "'kern' Horizontal Kerning in Hebrew lookup 6 subtable" afii57687 dx=10 dy=0 dh=10 dv=0 dx=0 dy=0 dh=0 dv=0
PairPos2: "'kern' Horizontal Kerning in Hebrew lookup 6 subtable" afii57683 dx=-25 dy=0 dh=-25 dv=0 dx=0 dy=0 dh=0 dv=0
PairPos2: "'kern' Horizontal Kerning in Hebrew lookup 6 subtable" afii57681 dx=-15 dy=0 dh=-15 dv=0 dx=0 dy=0 dh=0 dv=0
PairPos2: "'kern' Horizontal Kerning in Hebrew lookup 6 subtable" afii57678 dx=-10 dy=0 dh=-10 dv=0 dx=0 dy=0 dh=0 dv=0
PairPos2: "'kern' Horizontal Kerning in Hebrew lookup 6 subtable" afii57672 dx=-10 dy=0 dh=-10 dv=0 dx=0 dy=0 dh=0 dv=0
PairPos2: "'kern' Horizontal Kerning in Hebrew lookup 6 subtable" afii57666 dx=-30 dy=0 dh=-30 dv=0 dx=0 dy=0 dh=0 dv=0
PairPos2: "'kern' Horizontal Kerning in Hebrew lookup 6 subtable" afii57665 dx=-15 dy=0 dh=-15 dv=0 dx=0 dy=0 dh=0 dv=0
PairPos2: "'kern' Horizontal Kerning in Hebrew lookup 6 subtable" afii57645 dx=20 dy=0 dh=20 dv=0 dx=0 dy=0 dh=0 dv=0
PairPos2: "'kern' Horizontal Kerning in Hebrew lookup 6 subtable" question dx=25 dy=0 dh=25 dv=0 dx=0 dy=0 dh=0 dv=0
PairPos2: "'kern' Horizontal Kerning in Hebrew lookup 6 subtable" period dx=-100 dy=0 dh=-100 dv=0 dx=0 dy=0 dh=0 dv=0
PairPos2: "'kern' Horizontal Kerning in Hebrew lookup 6 subtable" comma dx=-100 dy=0 dh=-100 dv=0 dx=0 dy=0 dh=0 dv=0
PairPos2: "'kern' Horizontal Kerning in Hebrew lookup 6 subtable" quotesingle dx=17 dy=0 dh=17 dv=0 dx=0 dy=0 dh=0 dv=0
PairPos2: "'kern' Horizontal Kerning in Hebrew lookup 6 subtable" quotedbl dx=17 dy=0 dh=17 dv=0 dx=0 dy=0 dh=0 dv=0
EndChar

StartChar: afii57668
Encoding: 1492 1492 159
Width: 577
GlyphClass: 2
Flags: W
AnchorPoint: "Anchor-5" 272 0 basechar 0
AnchorPoint: "Anchor-4" 272 0 basechar 0
AnchorPoint: "Anchor-3" 282 0 basechar 0
AnchorPoint: "Anchor-2" 272 0 basechar 0
AnchorPoint: "Anchor-0" 293 0 basechar 0
LayerCount: 2
Fore
SplineSet
134 600 m 2,0,-1
 494 600 l 2,1,2
 525 600 525 600 526 560 c 2,3,-1
 526 476 l 2,4,5
 526 462 526 462 523.5 457 c 128,-1,6
 521 452 521 452 517.5 452.5 c 128,-1,7
 514 453 514 453 507.5 447.5 c 128,-1,8
 501 442 501 442 495 428 c 0,9,10
 485 410 485 410 486 363 c 128,-1,11
 487 316 487 316 493 273.5 c 128,-1,12
 499 231 499 231 505 181 c 128,-1,13
 511 131 511 131 510 107 c 0,14,15
 507 50 507 50 479 22 c 0,16,17
 463 6 463 6 441 -0.5 c 128,-1,18
 419 -7 419 -7 413 4 c 0,19,20
 411 8 411 8 410.5 10 c 128,-1,21
 410 12 410 12 411 14.5 c 128,-1,22
 412 17 412 17 414 25.5 c 128,-1,23
 416 34 416 34 417.5 47 c 128,-1,24
 419 60 419 60 420 88 c 128,-1,25
 421 116 421 116 422 152 c 0,26,27
 422 159 422 159 419.5 193.5 c 128,-1,28
 417 228 417 228 416.5 265 c 128,-1,29
 416 302 416 302 421 382 c 0,30,31
 422 400 422 400 428 413 c 128,-1,32
 434 426 434 426 440.5 432 c 128,-1,33
 447 438 447 438 452 442.5 c 128,-1,34
 457 447 457 447 457 450 c 0,35,36
 456 454 456 454 453.5 456 c 128,-1,37
 451 458 451 458 449 458.5 c 128,-1,38
 447 459 447 459 442 458.5 c 128,-1,39
 437 458 437 458 436 458 c 2,40,-1
 143 458 l 2,41,42
 99 458 99 458 78.5 479.5 c 128,-1,43
 58 501 58 501 58 546 c 0,44,45
 58 582 58 582 72 614 c 128,-1,46
 86 646 86 646 105 646 c 0,47,48
 113 646 113 646 114.5 643 c 128,-1,49
 116 640 116 640 115 631.5 c 128,-1,50
 114 623 114 623 115 619 c 0,51,52
 116 611 116 611 122 605.5 c 128,-1,53
 128 600 128 600 134 600 c 2,0,-1
157 326 m 0,54,55
 168 326 168 326 166 316 c 0,56,57
 157 287 157 287 160.5 171.5 c 128,-1,58
 164 56 164 56 147 38 c 1,59,60
 135 19 135 19 109.5 8 c 128,-1,61
 84 -3 84 -3 72 -2 c 0,62,63
 61 -1 61 -1 64 10 c 0,64,65
 72 40 72 40 71 132 c 0,66,67
 71 137 71 137 71 148 c 0,68,69
 71 180 71 180 71 208 c 128,-1,70
 71 236 71 236 75 260 c 128,-1,71
 79 284 79 284 88 295 c 0,72,73
 111 326 111 326 157 326 c 0,54,55
EndSplineSet
Substitution2: "'jalt' Justification Alternatives in Hebrew lookup 7 subtable" uniFB23
PairPos2: "'kern' Horizontal Kerning in Hebrew lookup 6 subtable" uniFB4E dx=20 dy=0 dh=20 dv=0 dx=0 dy=0 dh=0 dv=0
PairPos2: "'kern' Horizontal Kerning in Hebrew lookup 6 subtable" uniFB4D dx=10 dy=0 dh=10 dv=0 dx=0 dy=0 dh=0 dv=0
PairPos2: "'kern' Horizontal Kerning in Hebrew lookup 6 subtable" uniFB4C dx=10 dy=0 dh=10 dv=0 dx=0 dy=0 dh=0 dv=0
PairPos2: "'kern' Horizontal Kerning in Hebrew lookup 6 subtable" uniFB4A dx=10 dy=0 dh=10 dv=0 dx=0 dy=0 dh=0 dv=0
PairPos2: "'kern' Horizontal Kerning in Hebrew lookup 6 subtable" uniFB49 dx=-10 dy=0 dh=-10 dv=0 dx=0 dy=0 dh=0 dv=0
PairPos2: "'kern' Horizontal Kerning in Hebrew lookup 6 subtable" uniFB48 dx=30 dy=0 dh=30 dv=0 dx=0 dy=0 dh=0 dv=0
PairPos2: "'kern' Horizontal Kerning in Hebrew lookup 6 subtable" uniFB46 dx=-10 dy=0 dh=-10 dv=0 dx=0 dy=0 dh=0 dv=0
PairPos2: "'kern' Horizontal Kerning in Hebrew lookup 6 subtable" uniFB44 dx=20 dy=0 dh=20 dv=0 dx=0 dy=0 dh=0 dv=0
PairPos2: "'kern' Horizontal Kerning in Hebrew lookup 6 subtable" uniFB43 dx=10 dy=0 dh=10 dv=0 dx=0 dy=0 dh=0 dv=0
PairPos2: "'kern' Horizontal Kerning in Hebrew lookup 6 subtable" uniFB42 dx=-10 dy=0 dh=-10 dv=0 dx=0 dy=0 dh=0 dv=0
PairPos2: "'kern' Horizontal Kerning in Hebrew lookup 6 subtable" uniFB41 dx=10 dy=0 dh=10 dv=0 dx=0 dy=0 dh=0 dv=0
PairPos2: "'kern' Horizontal Kerning in Hebrew lookup 6 subtable" uniFB40 dx=10 dy=0 dh=10 dv=0 dx=0 dy=0 dh=0 dv=0
PairPos2: "'kern' Horizontal Kerning in Hebrew lookup 6 subtable" uniFB3E dx=10 dy=0 dh=10 dv=0 dx=0 dy=0 dh=0 dv=0
PairPos2: "'kern' Horizontal Kerning in Hebrew lookup 6 subtable" uniFB3D dx=10 dy=0 dh=10 dv=0 dx=0 dy=0 dh=0 dv=0
PairPos2: "'kern' Horizontal Kerning in Hebrew lookup 6 subtable" uniFB3B dx=10 dy=0 dh=10 dv=0 dx=0 dy=0 dh=0 dv=0
PairPos2: "'kern' Horizontal Kerning in Hebrew lookup 6 subtable" uniFB38 dx=10 dy=0 dh=10 dv=0 dx=0 dy=0 dh=0 dv=0
PairPos2: "'kern' Horizontal Kerning in Hebrew lookup 6 subtable" uniFB37 dx=10 dy=0 dh=10 dv=0 dx=0 dy=0 dh=0 dv=0
PairPos2: "'kern' Horizontal Kerning in Hebrew lookup 6 subtable" uniFB31 dx=10 dy=0 dh=10 dv=0 dx=0 dy=0 dh=0 dv=0
PairPos2: "'kern' Horizontal Kerning in Hebrew lookup 6 subtable" uniFB2D dx=-10 dy=0 dh=-10 dv=0 dx=0 dy=0 dh=0 dv=0
PairPos2: "'kern' Horizontal Kerning in Hebrew lookup 6 subtable" uniFB2C dx=-10 dy=0 dh=-10 dv=0 dx=0 dy=0 dh=0 dv=0
PairPos2: "'kern' Horizontal Kerning in Hebrew lookup 6 subtable" afii57695 dx=-10 dy=0 dh=-10 dv=0 dx=0 dy=0 dh=0 dv=0
PairPos2: "'kern' Horizontal Kerning in Hebrew lookup 6 subtable" afii57694 dx=-10 dy=0 dh=-10 dv=0 dx=0 dy=0 dh=0 dv=0
PairPos2: "'kern' Horizontal Kerning in Hebrew lookup 6 subtable" uniFB28 dx=10 dy=0 dh=10 dv=0 dx=0 dy=0 dh=0 dv=0
PairPos2: "'kern' Horizontal Kerning in Hebrew lookup 6 subtable" uniFB26 dx=10 dy=0 dh=10 dv=0 dx=0 dy=0 dh=0 dv=0
PairPos2: "'kern' Horizontal Kerning in Hebrew lookup 6 subtable" uniFB24 dx=10 dy=0 dh=10 dv=0 dx=0 dy=0 dh=0 dv=0
PairPos2: "'kern' Horizontal Kerning in Hebrew lookup 6 subtable" quotedblright dx=-10 dy=0 dh=-10 dv=0 dx=0 dy=0 dh=0 dv=0
PairPos2: "'kern' Horizontal Kerning in Hebrew lookup 6 subtable" quoteright dx=-10 dy=0 dh=-10 dv=0 dx=0 dy=0 dh=0 dv=0
PairPos2: "'kern' Horizontal Kerning in Hebrew lookup 6 subtable" uni05F4 dx=-10 dy=0 dh=-10 dv=0 dx=0 dy=0 dh=0 dv=0
PairPos2: "'kern' Horizontal Kerning in Hebrew lookup 6 subtable" uni05F3 dx=-10 dy=0 dh=-10 dv=0 dx=0 dy=0 dh=0 dv=0
PairPos2: "'kern' Horizontal Kerning in Hebrew lookup 6 subtable" afii57690 dx=10 dy=0 dh=10 dv=0 dx=0 dy=0 dh=0 dv=0
PairPos2: "'kern' Horizontal Kerning in Hebrew lookup 6 subtable" afii57689 dx=-10 dy=0 dh=-10 dv=0 dx=0 dy=0 dh=0 dv=0
PairPos2: "'kern' Horizontal Kerning in Hebrew lookup 6 subtable" afii57688 dx=30 dy=0 dh=30 dv=0 dx=0 dy=0 dh=0 dv=0
PairPos2: "'kern' Horizontal Kerning in Hebrew lookup 6 subtable" afii57686 dx=-10 dy=0 dh=-10 dv=0 dx=0 dy=0 dh=0 dv=0
PairPos2: "'kern' Horizontal Kerning in Hebrew lookup 6 subtable" afii57684 dx=20 dy=0 dh=20 dv=0 dx=0 dy=0 dh=0 dv=0
PairPos2: "'kern' Horizontal Kerning in Hebrew lookup 6 subtable" afii57683 dx=10 dy=0 dh=10 dv=0 dx=0 dy=0 dh=0 dv=0
PairPos2: "'kern' Horizontal Kerning in Hebrew lookup 6 subtable" afii57682 dx=-10 dy=0 dh=-10 dv=0 dx=0 dy=0 dh=0 dv=0
PairPos2: "'kern' Horizontal Kerning in Hebrew lookup 6 subtable" afii57681 dx=10 dy=0 dh=10 dv=0 dx=0 dy=0 dh=0 dv=0
PairPos2: "'kern' Horizontal Kerning in Hebrew lookup 6 subtable" afii57680 dx=10 dy=0 dh=10 dv=0 dx=0 dy=0 dh=0 dv=0
PairPos2: "'kern' Horizontal Kerning in Hebrew lookup 6 subtable" afii57678 dx=10 dy=0 dh=10 dv=0 dx=0 dy=0 dh=0 dv=0
PairPos2: "'kern' Horizontal Kerning in Hebrew lookup 6 subtable" afii57677 dx=10 dy=0 dh=10 dv=0 dx=0 dy=0 dh=0 dv=0
PairPos2: "'kern' Horizontal Kerning in Hebrew lookup 6 subtable" afii57675 dx=10 dy=0 dh=10 dv=0 dx=0 dy=0 dh=0 dv=0
PairPos2: "'kern' Horizontal Kerning in Hebrew lookup 6 subtable" afii57672 dx=10 dy=0 dh=10 dv=0 dx=0 dy=0 dh=0 dv=0
PairPos2: "'kern' Horizontal Kerning in Hebrew lookup 6 subtable" afii57671 dx=10 dy=0 dh=10 dv=0 dx=0 dy=0 dh=0 dv=0
PairPos2: "'kern' Horizontal Kerning in Hebrew lookup 6 subtable" afii57665 dx=10 dy=0 dh=10 dv=0 dx=0 dy=0 dh=0 dv=0
PairPos2: "'kern' Horizontal Kerning in Hebrew lookup 6 subtable" quotesingle dx=-10 dy=0 dh=-10 dv=0 dx=0 dy=0 dh=0 dv=0
PairPos2: "'kern' Horizontal Kerning in Hebrew lookup 6 subtable" quotedbl dx=-10 dy=0 dh=-10 dv=0 dx=0 dy=0 dh=0 dv=0
EndChar

StartChar: afii57669
Encoding: 1493 1493 160
Width: 340
GlyphClass: 2
Flags: W
AnchorPoint: "Anchor-5" 242 0 basechar 0
AnchorPoint: "Anchor-4" 202 0 basechar 0
AnchorPoint: "Anchor-3" 202 0 basechar 0
AnchorPoint: "Anchor-2" 202 0 basechar 0
AnchorPoint: "Anchor-0" 142 0 basechar 0
LayerCount: 2
Fore
SplineSet
125 600 m 2,0,-1
 178 600 l 2,1,2
 244 600 244 600 266.5 566.5 c 128,-1,3
 289 533 289 533 289 468 c 0,4,5
 289 426 289 426 290 340 c 128,-1,6
 291 254 291 254 290.5 192 c 128,-1,7
 290 130 290 130 288 71 c 0,8,9
 287 35 287 35 269 14.5 c 128,-1,10
 251 -6 251 -6 233 -6 c 0,11,12
 228 -6 228 -6 224.5 -2.5 c 128,-1,13
 221 1 221 1 221 6 c 0,14,15
 221 75 221 75 221 199.5 c 128,-1,16
 221 324 221 324 221 363 c 0,17,18
 221 386 221 386 220.5 397 c 128,-1,19
 220 408 220 408 215.5 422 c 128,-1,20
 211 436 211 436 202.5 442.5 c 128,-1,21
 194 449 194 449 178 453.5 c 128,-1,22
 162 458 162 458 138 458 c 2,23,-1
 133 458 l 2,24,25
 90 458 90 458 69.5 479.5 c 128,-1,26
 49 501 49 501 49 546 c 0,27,28
 49 582 49 582 63 614 c 128,-1,29
 77 646 77 646 96 646 c 0,30,31
 104 646 104 646 105.5 643 c 128,-1,32
 107 640 107 640 106 631.5 c 128,-1,33
 105 623 105 623 105 619 c 0,34,35
 107 611 107 611 113 605.5 c 128,-1,36
 119 600 119 600 125 600 c 2,0,-1
EndSplineSet
PairPos2: "'kern' Horizontal Kerning in Hebrew lookup 6 subtable" uniFB4D dx=-20 dy=0 dh=-20 dv=0 dx=0 dy=0 dh=0 dv=0
PairPos2: "'kern' Horizontal Kerning in Hebrew lookup 6 subtable" uniFB4C dx=-35 dy=0 dh=-35 dv=0 dx=0 dy=0 dh=0 dv=0
PairPos2: "'kern' Horizontal Kerning in Hebrew lookup 6 subtable" uniFB4A dx=-15 dy=0 dh=-15 dv=0 dx=0 dy=0 dh=0 dv=0
PairPos2: "'kern' Horizontal Kerning in Hebrew lookup 6 subtable" uniFB46 dx=-10 dy=0 dh=-10 dv=0 dx=0 dy=0 dh=0 dv=0
PairPos2: "'kern' Horizontal Kerning in Hebrew lookup 6 subtable" uniFB43 dx=-20 dy=0 dh=-20 dv=0 dx=0 dy=0 dh=0 dv=0
PairPos2: "'kern' Horizontal Kerning in Hebrew lookup 6 subtable" uniFB41 dx=-15 dy=0 dh=-15 dv=0 dx=0 dy=0 dh=0 dv=0
PairPos2: "'kern' Horizontal Kerning in Hebrew lookup 6 subtable" uniFB40 dx=-15 dy=0 dh=-15 dv=0 dx=0 dy=0 dh=0 dv=0
PairPos2: "'kern' Horizontal Kerning in Hebrew lookup 6 subtable" uniFB3E dx=-15 dy=0 dh=-15 dv=0 dx=0 dy=0 dh=0 dv=0
PairPos2: "'kern' Horizontal Kerning in Hebrew lookup 6 subtable" uniFB3D dx=-10 dy=0 dh=-10 dv=0 dx=0 dy=0 dh=0 dv=0
PairPos2: "'kern' Horizontal Kerning in Hebrew lookup 6 subtable" uniFB3B dx=-20 dy=0 dh=-20 dv=0 dx=0 dy=0 dh=0 dv=0
PairPos2: "'kern' Horizontal Kerning in Hebrew lookup 6 subtable" uniFB38 dx=-10 dy=0 dh=-10 dv=0 dx=0 dy=0 dh=0 dv=0
PairPos2: "'kern' Horizontal Kerning in Hebrew lookup 6 subtable" uniFB32 dx=-40 dy=0 dh=-40 dv=0 dx=0 dy=0 dh=0 dv=0
PairPos2: "'kern' Horizontal Kerning in Hebrew lookup 6 subtable" uniFB31 dx=-35 dy=0 dh=-35 dv=0 dx=0 dy=0 dh=0 dv=0
PairPos2: "'kern' Horizontal Kerning in Hebrew lookup 6 subtable" uniFB30 dx=-10 dy=0 dh=-10 dv=0 dx=0 dy=0 dh=0 dv=0
PairPos2: "'kern' Horizontal Kerning in Hebrew lookup 6 subtable" uniFB2F dx=-10 dy=0 dh=-10 dv=0 dx=0 dy=0 dh=0 dv=0
PairPos2: "'kern' Horizontal Kerning in Hebrew lookup 6 subtable" uniFB2E dx=-10 dy=0 dh=-10 dv=0 dx=0 dy=0 dh=0 dv=0
PairPos2: "'kern' Horizontal Kerning in Hebrew lookup 6 subtable" uniFB28 dx=-15 dy=0 dh=-15 dv=0 dx=0 dy=0 dh=0 dv=0
PairPos2: "'kern' Horizontal Kerning in Hebrew lookup 6 subtable" uniFB26 dx=-10 dy=0 dh=-10 dv=0 dx=0 dy=0 dh=0 dv=0
PairPos2: "'kern' Horizontal Kerning in Hebrew lookup 6 subtable" uniFB24 dx=-20 dy=0 dh=-20 dv=0 dx=0 dy=0 dh=0 dv=0
PairPos2: "'kern' Horizontal Kerning in Hebrew lookup 6 subtable" uniFB21 dx=-10 dy=0 dh=-10 dv=0 dx=0 dy=0 dh=0 dv=0
PairPos2: "'kern' Horizontal Kerning in Hebrew lookup 6 subtable" ellipsis dx=-100 dy=0 dh=-100 dv=0 dx=0 dy=0 dh=0 dv=0
PairPos2: "'kern' Horizontal Kerning in Hebrew lookup 6 subtable" afii57690 dx=-15 dy=0 dh=-15 dv=0 dx=0 dy=0 dh=0 dv=0
PairPos2: "'kern' Horizontal Kerning in Hebrew lookup 6 subtable" afii57686 dx=-10 dy=0 dh=-10 dv=0 dx=0 dy=0 dh=0 dv=0
PairPos2: "'kern' Horizontal Kerning in Hebrew lookup 6 subtable" afii57683 dx=-20 dy=0 dh=-20 dv=0 dx=0 dy=0 dh=0 dv=0
PairPos2: "'kern' Horizontal Kerning in Hebrew lookup 6 subtable" afii57681 dx=-15 dy=0 dh=-15 dv=0 dx=0 dy=0 dh=0 dv=0
PairPos2: "'kern' Horizontal Kerning in Hebrew lookup 6 subtable" afii57680 dx=-15 dy=0 dh=-15 dv=0 dx=0 dy=0 dh=0 dv=0
PairPos2: "'kern' Horizontal Kerning in Hebrew lookup 6 subtable" afii57678 dx=-15 dy=0 dh=-15 dv=0 dx=0 dy=0 dh=0 dv=0
PairPos2: "'kern' Horizontal Kerning in Hebrew lookup 6 subtable" afii57677 dx=-10 dy=0 dh=-10 dv=0 dx=0 dy=0 dh=0 dv=0
PairPos2: "'kern' Horizontal Kerning in Hebrew lookup 6 subtable" afii57675 dx=-20 dy=0 dh=-20 dv=0 dx=0 dy=0 dh=0 dv=0
PairPos2: "'kern' Horizontal Kerning in Hebrew lookup 6 subtable" afii57672 dx=-10 dy=0 dh=-10 dv=0 dx=0 dy=0 dh=0 dv=0
PairPos2: "'kern' Horizontal Kerning in Hebrew lookup 6 subtable" afii57666 dx=-40 dy=0 dh=-40 dv=0 dx=0 dy=0 dh=0 dv=0
PairPos2: "'kern' Horizontal Kerning in Hebrew lookup 6 subtable" afii57665 dx=-35 dy=0 dh=-35 dv=0 dx=0 dy=0 dh=0 dv=0
PairPos2: "'kern' Horizontal Kerning in Hebrew lookup 6 subtable" afii57664 dx=-10 dy=0 dh=-10 dv=0 dx=0 dy=0 dh=0 dv=0
PairPos2: "'kern' Horizontal Kerning in Hebrew lookup 6 subtable" question dx=10 dy=0 dh=10 dv=0 dx=0 dy=0 dh=0 dv=0
PairPos2: "'kern' Horizontal Kerning in Hebrew lookup 6 subtable" period dx=-100 dy=0 dh=-100 dv=0 dx=0 dy=0 dh=0 dv=0
PairPos2: "'kern' Horizontal Kerning in Hebrew lookup 6 subtable" hyphen dx=-20 dy=0 dh=-20 dv=0 dx=0 dy=0 dh=0 dv=0
PairPos2: "'kern' Horizontal Kerning in Hebrew lookup 6 subtable" comma dx=-100 dy=0 dh=-100 dv=0 dx=0 dy=0 dh=0 dv=0
EndChar

StartChar: afii57670
Encoding: 1494 1494 161
Width: 339
GlyphClass: 2
Flags: W
AnchorPoint: "Anchor-5" 167 0 basechar 0
AnchorPoint: "Anchor-4" 172 0 basechar 0
AnchorPoint: "Anchor-3" 172 0 basechar 0
AnchorPoint: "Anchor-2" 162 0 basechar 0
AnchorPoint: "Anchor-1" 7 0 basechar 0
AnchorPoint: "Anchor-0" 62 0 basechar 0
LayerCount: 2
Fore
SplineSet
129 600 m 2,0,-1
 200 600 l 2,1,2
 262 600 262 600 287 560 c 0,3,4
 305 528 305 528 302.5 490 c 128,-1,5
 300 452 300 452 287 438 c 0,6,7
 283 433 283 433 269 440.5 c 128,-1,8
 255 448 255 448 242 454 c 128,-1,9
 229 460 229 460 215 448 c 0,10,11
 203 434 203 434 202 388 c 128,-1,12
 201 342 201 342 206.5 292 c 128,-1,13
 212 242 212 242 217.5 186.5 c 128,-1,14
 223 131 223 131 221 107 c 0,15,16
 219 50 219 50 190 22 c 0,17,18
 175 6 175 6 155.5 -0.5 c 128,-1,19
 136 -7 136 -7 129 4 c 0,20,21
 128 8 128 8 127.5 11 c 128,-1,22
 127 14 127 14 127 18 c 128,-1,23
 127 22 127 22 128 32 c 128,-1,24
 129 42 129 42 130 57 c 128,-1,25
 131 72 131 72 132 101 c 128,-1,26
 133 130 133 130 133 166 c 0,27,28
 133 172 133 172 132 204.5 c 128,-1,29
 131 237 131 237 130.5 266 c 128,-1,30
 130 295 130 295 132.5 329.5 c 128,-1,31
 135 364 135 364 141 382 c 0,32,33
 147 397 147 397 152 408 c 128,-1,34
 157 419 157 419 159.5 423 c 128,-1,35
 162 427 162 427 164 432 c 128,-1,36
 166 437 166 437 166 444 c 0,37,38
 168 458 168 458 148 458 c 2,39,-1
 137 458 l 2,40,41
 94 458 94 458 73.5 479.5 c 128,-1,42
 53 501 53 501 53 546 c 0,43,44
 53 582 53 582 67 614 c 128,-1,45
 81 646 81 646 100 646 c 0,46,47
 108 646 108 646 109.5 643 c 128,-1,48
 111 640 111 640 110 631.5 c 128,-1,49
 109 623 109 623 109 619 c 0,50,51
 111 611 111 611 117 605.5 c 128,-1,52
 123 600 123 600 129 600 c 2,0,-1
EndSplineSet
PairPos2: "'kern' Horizontal Kerning in Hebrew lookup 6 subtable" uniFB4D dx=-10 dy=0 dh=-10 dv=0 dx=0 dy=0 dh=0 dv=0
PairPos2: "'kern' Horizontal Kerning in Hebrew lookup 6 subtable" uniFB48 dx=10 dy=0 dh=10 dv=0 dx=0 dy=0 dh=0 dv=0
PairPos2: "'kern' Horizontal Kerning in Hebrew lookup 6 subtable" uniFB3B dx=-10 dy=0 dh=-10 dv=0 dx=0 dy=0 dh=0 dv=0
PairPos2: "'kern' Horizontal Kerning in Hebrew lookup 6 subtable" uniFB32 dx=-25 dy=0 dh=-25 dv=0 dx=0 dy=0 dh=0 dv=0
PairPos2: "'kern' Horizontal Kerning in Hebrew lookup 6 subtable" uniFB30 dx=-20 dy=0 dh=-20 dv=0 dx=0 dy=0 dh=0 dv=0
PairPos2: "'kern' Horizontal Kerning in Hebrew lookup 6 subtable" uniFB2F dx=-20 dy=0 dh=-20 dv=0 dx=0 dy=0 dh=0 dv=0
PairPos2: "'kern' Horizontal Kerning in Hebrew lookup 6 subtable" uniFB2E dx=-20 dy=0 dh=-20 dv=0 dx=0 dy=0 dh=0 dv=0
PairPos2: "'kern' Horizontal Kerning in Hebrew lookup 6 subtable" uniFB24 dx=-10 dy=0 dh=-10 dv=0 dx=0 dy=0 dh=0 dv=0
PairPos2: "'kern' Horizontal Kerning in Hebrew lookup 6 subtable" uniFB21 dx=-20 dy=0 dh=-20 dv=0 dx=0 dy=0 dh=0 dv=0
PairPos2: "'kern' Horizontal Kerning in Hebrew lookup 6 subtable" ellipsis dx=-50 dy=0 dh=-50 dv=0 dx=0 dy=0 dh=0 dv=0
PairPos2: "'kern' Horizontal Kerning in Hebrew lookup 6 subtable" afii57688 dx=10 dy=0 dh=10 dv=0 dx=0 dy=0 dh=0 dv=0
PairPos2: "'kern' Horizontal Kerning in Hebrew lookup 6 subtable" afii57675 dx=-10 dy=0 dh=-10 dv=0 dx=0 dy=0 dh=0 dv=0
PairPos2: "'kern' Horizontal Kerning in Hebrew lookup 6 subtable" afii57666 dx=-25 dy=0 dh=-25 dv=0 dx=0 dy=0 dh=0 dv=0
PairPos2: "'kern' Horizontal Kerning in Hebrew lookup 6 subtable" afii57664 dx=-20 dy=0 dh=-20 dv=0 dx=0 dy=0 dh=0 dv=0
PairPos2: "'kern' Horizontal Kerning in Hebrew lookup 6 subtable" question dx=10 dy=0 dh=10 dv=0 dx=0 dy=0 dh=0 dv=0
PairPos2: "'kern' Horizontal Kerning in Hebrew lookup 6 subtable" period dx=-50 dy=0 dh=-50 dv=0 dx=0 dy=0 dh=0 dv=0
PairPos2: "'kern' Horizontal Kerning in Hebrew lookup 6 subtable" hyphen dx=-20 dy=0 dh=-20 dv=0 dx=0 dy=0 dh=0 dv=0
PairPos2: "'kern' Horizontal Kerning in Hebrew lookup 6 subtable" comma dx=-50 dy=0 dh=-50 dv=0 dx=0 dy=0 dh=0 dv=0
EndChar

StartChar: afii57671
Encoding: 1495 1495 162
Width: 593
GlyphClass: 2
Flags: W
AnchorPoint: "Anchor-5" 287 0 basechar 0
AnchorPoint: "Anchor-4" 287 0 basechar 0
AnchorPoint: "Anchor-3" 297 0 basechar 0
AnchorPoint: "Anchor-2" 292 0 basechar 0
AnchorPoint: "Anchor-0" 304 0 basechar 0
LayerCount: 2
Fore
SplineSet
114 458 m 0,0,1
 82 464 82 464 66 485 c 128,-1,2
 50 506 50 506 50 546 c 0,3,4
 50 582 50 582 64 614 c 128,-1,5
 78 646 78 646 97 646 c 0,6,7
 104 646 104 646 106 643 c 128,-1,8
 108 640 108 640 107 631.5 c 128,-1,9
 106 623 106 623 106 619 c 0,10,11
 108 611 108 611 114 605.5 c 128,-1,12
 120 600 120 600 126 600 c 2,13,-1
 515 600 l 2,14,15
 546 600 546 600 547 560 c 2,16,-1
 547 476 l 2,17,18
 547 462 547 462 544.5 457.5 c 128,-1,19
 542 453 542 453 538.5 453 c 128,-1,20
 535 453 535 453 529 447.5 c 128,-1,21
 523 442 523 442 516 428 c 0,22,23
 506 410 506 410 507.5 363 c 128,-1,24
 509 316 509 316 515 273.5 c 128,-1,25
 521 231 521 231 527 181 c 128,-1,26
 533 131 533 131 531 107 c 0,27,28
 528 50 528 50 500 22 c 0,29,30
 485 6 485 6 462.5 -0.5 c 128,-1,31
 440 -7 440 -7 434 4 c 0,32,33
 432 4 432 4 433 13.5 c 128,-1,34
 434 23 434 23 436 30 c 128,-1,35
 438 37 438 37 440.5 70.5 c 128,-1,36
 443 104 443 104 443 152 c 0,37,38
 443 172 443 172 439.5 254 c 128,-1,39
 436 336 436 336 441 353 c 0,40,41
 443 379 443 379 447 396.5 c 128,-1,42
 451 414 451 414 454.5 420 c 128,-1,43
 458 426 458 426 462.5 431.5 c 128,-1,44
 467 437 467 437 469 441 c 0,45,46
 472 449 472 449 467 453.5 c 128,-1,47
 462 458 462 458 450 458 c 2,48,-1
 240 458 l 2,49,50
 236 458 236 458 228.5 457 c 128,-1,51
 221 456 221 456 204.5 448.5 c 128,-1,52
 188 441 188 441 180 428 c 0,53,54
 165 403 165 403 163.5 342 c 128,-1,55
 162 281 162 281 167.5 206.5 c 128,-1,56
 173 132 173 132 171 107 c 0,57,58
 168 50 168 50 140 22 c 0,59,60
 125 6 125 6 102.5 -0.5 c 128,-1,61
 80 -7 80 -7 74 4 c 0,62,63
 73 8 73 8 72.5 10.5 c 128,-1,64
 72 13 72 13 73 15.5 c 128,-1,65
 74 18 74 18 76 27 c 128,-1,66
 78 36 78 36 79.5 49.5 c 128,-1,67
 81 63 81 63 82 90 c 128,-1,68
 83 117 83 117 83 152 c 0,69,70
 83 285 83 285 88 340 c 0,71,72
 91 375 91 375 100 398 c 128,-1,73
 109 421 109 421 118 431 c 128,-1,74
 127 441 127 441 127 444 c 0,75,76
 129 455 129 455 114 458 c 0,0,1
EndSplineSet
PairPos2: "'kern' Horizontal Kerning in Hebrew lookup 6 subtable" uniFB4E dx=10 dy=0 dh=10 dv=0 dx=0 dy=0 dh=0 dv=0
PairPos2: "'kern' Horizontal Kerning in Hebrew lookup 6 subtable" uniFB4D dx=10 dy=0 dh=10 dv=0 dx=0 dy=0 dh=0 dv=0
PairPos2: "'kern' Horizontal Kerning in Hebrew lookup 6 subtable" afii57700 dx=10 dy=0 dh=10 dv=0 dx=0 dy=0 dh=0 dv=0
PairPos2: "'kern' Horizontal Kerning in Hebrew lookup 6 subtable" uniFB4A dx=10 dy=0 dh=10 dv=0 dx=0 dy=0 dh=0 dv=0
PairPos2: "'kern' Horizontal Kerning in Hebrew lookup 6 subtable" uniFB49 dx=-5 dy=0 dh=-5 dv=0 dx=0 dy=0 dh=0 dv=0
PairPos2: "'kern' Horizontal Kerning in Hebrew lookup 6 subtable" uniFB48 dx=30 dy=0 dh=30 dv=0 dx=0 dy=0 dh=0 dv=0
PairPos2: "'kern' Horizontal Kerning in Hebrew lookup 6 subtable" uniFB47 dx=10 dy=0 dh=10 dv=0 dx=0 dy=0 dh=0 dv=0
PairPos2: "'kern' Horizontal Kerning in Hebrew lookup 6 subtable" uniFB46 dx=-10 dy=0 dh=-10 dv=0 dx=0 dy=0 dh=0 dv=0
PairPos2: "'kern' Horizontal Kerning in Hebrew lookup 6 subtable" uniFB44 dx=10 dy=0 dh=10 dv=0 dx=0 dy=0 dh=0 dv=0
PairPos2: "'kern' Horizontal Kerning in Hebrew lookup 6 subtable" uniFB40 dx=10 dy=0 dh=10 dv=0 dx=0 dy=0 dh=0 dv=0
PairPos2: "'kern' Horizontal Kerning in Hebrew lookup 6 subtable" uniFB3E dx=20 dy=0 dh=20 dv=0 dx=0 dy=0 dh=0 dv=0
PairPos2: "'kern' Horizontal Kerning in Hebrew lookup 6 subtable" uniFB3D dx=20 dy=0 dh=20 dv=0 dx=0 dy=0 dh=0 dv=0
PairPos2: "'kern' Horizontal Kerning in Hebrew lookup 6 subtable" uniFB3B dx=10 dy=0 dh=10 dv=0 dx=0 dy=0 dh=0 dv=0
PairPos2: "'kern' Horizontal Kerning in Hebrew lookup 6 subtable" uniFB38 dx=10 dy=0 dh=10 dv=0 dx=0 dy=0 dh=0 dv=0
PairPos2: "'kern' Horizontal Kerning in Hebrew lookup 6 subtable" afii57723 dx=10 dy=0 dh=10 dv=0 dx=0 dy=0 dh=0 dv=0
PairPos2: "'kern' Horizontal Kerning in Hebrew lookup 6 subtable" uniFB33 dx=10 dy=0 dh=10 dv=0 dx=0 dy=0 dh=0 dv=0
PairPos2: "'kern' Horizontal Kerning in Hebrew lookup 6 subtable" uniFB2D dx=-5 dy=0 dh=-5 dv=0 dx=0 dy=0 dh=0 dv=0
PairPos2: "'kern' Horizontal Kerning in Hebrew lookup 6 subtable" uniFB2C dx=-5 dy=0 dh=-5 dv=0 dx=0 dy=0 dh=0 dv=0
PairPos2: "'kern' Horizontal Kerning in Hebrew lookup 6 subtable" afii57695 dx=-5 dy=0 dh=-5 dv=0 dx=0 dy=0 dh=0 dv=0
PairPos2: "'kern' Horizontal Kerning in Hebrew lookup 6 subtable" afii57694 dx=-5 dy=0 dh=-5 dv=0 dx=0 dy=0 dh=0 dv=0
PairPos2: "'kern' Horizontal Kerning in Hebrew lookup 6 subtable" uniFB28 dx=10 dy=0 dh=10 dv=0 dx=0 dy=0 dh=0 dv=0
PairPos2: "'kern' Horizontal Kerning in Hebrew lookup 6 subtable" uniFB26 dx=20 dy=0 dh=20 dv=0 dx=0 dy=0 dh=0 dv=0
PairPos2: "'kern' Horizontal Kerning in Hebrew lookup 6 subtable" uniFB24 dx=10 dy=0 dh=10 dv=0 dx=0 dy=0 dh=0 dv=0
PairPos2: "'kern' Horizontal Kerning in Hebrew lookup 6 subtable" uniFB22 dx=10 dy=0 dh=10 dv=0 dx=0 dy=0 dh=0 dv=0
PairPos2: "'kern' Horizontal Kerning in Hebrew lookup 6 subtable" uniE801 dx=10 dy=0 dh=10 dv=0 dx=0 dy=0 dh=0 dv=0
PairPos2: "'kern' Horizontal Kerning in Hebrew lookup 6 subtable" afii57716 dx=10 dy=0 dh=10 dv=0 dx=0 dy=0 dh=0 dv=0
PairPos2: "'kern' Horizontal Kerning in Hebrew lookup 6 subtable" afii57690 dx=10 dy=0 dh=10 dv=0 dx=0 dy=0 dh=0 dv=0
PairPos2: "'kern' Horizontal Kerning in Hebrew lookup 6 subtable" afii57689 dx=-5 dy=0 dh=-5 dv=0 dx=0 dy=0 dh=0 dv=0
PairPos2: "'kern' Horizontal Kerning in Hebrew lookup 6 subtable" afii57688 dx=30 dy=0 dh=30 dv=0 dx=0 dy=0 dh=0 dv=0
PairPos2: "'kern' Horizontal Kerning in Hebrew lookup 6 subtable" afii57687 dx=10 dy=0 dh=10 dv=0 dx=0 dy=0 dh=0 dv=0
PairPos2: "'kern' Horizontal Kerning in Hebrew lookup 6 subtable" afii57686 dx=-10 dy=0 dh=-10 dv=0 dx=0 dy=0 dh=0 dv=0
PairPos2: "'kern' Horizontal Kerning in Hebrew lookup 6 subtable" afii57684 dx=10 dy=0 dh=10 dv=0 dx=0 dy=0 dh=0 dv=0
PairPos2: "'kern' Horizontal Kerning in Hebrew lookup 6 subtable" afii57680 dx=10 dy=0 dh=10 dv=0 dx=0 dy=0 dh=0 dv=0
PairPos2: "'kern' Horizontal Kerning in Hebrew lookup 6 subtable" afii57678 dx=20 dy=0 dh=20 dv=0 dx=0 dy=0 dh=0 dv=0
PairPos2: "'kern' Horizontal Kerning in Hebrew lookup 6 subtable" afii57677 dx=20 dy=0 dh=20 dv=0 dx=0 dy=0 dh=0 dv=0
PairPos2: "'kern' Horizontal Kerning in Hebrew lookup 6 subtable" afii57675 dx=10 dy=0 dh=10 dv=0 dx=0 dy=0 dh=0 dv=0
PairPos2: "'kern' Horizontal Kerning in Hebrew lookup 6 subtable" afii57672 dx=10 dy=0 dh=10 dv=0 dx=0 dy=0 dh=0 dv=0
PairPos2: "'kern' Horizontal Kerning in Hebrew lookup 6 subtable" afii57669 dx=10 dy=0 dh=10 dv=0 dx=0 dy=0 dh=0 dv=0
PairPos2: "'kern' Horizontal Kerning in Hebrew lookup 6 subtable" afii57667 dx=10 dy=0 dh=10 dv=0 dx=0 dy=0 dh=0 dv=0
PairPos2: "'kern' Horizontal Kerning in Hebrew lookup 6 subtable" question dx=10 dy=0 dh=10 dv=0 dx=0 dy=0 dh=0 dv=0
PairPos2: "'kern' Horizontal Kerning in Hebrew lookup 6 subtable" hyphen dx=10 dy=0 dh=10 dv=0 dx=0 dy=0 dh=0 dv=0
EndChar

